<svg xmlns="http://www.w3.org/2000/svg" viewBox="0 0 554.4 292.8"><defs><style>.f3f4b71b-55ec-4f45-8bda-9770aa6bcc93{fill:#fdfdfd;}.f7a20a64-2e93-48d6-b525-db835803761b{fill:#182f57;}.a44472b2-2079-4cad-8cb8-24b6ea72e444{fill:#9abbe3;}</style></defs><g id="b1a2447e-3548-4d1b-8a35-2a84efd180cb" data-name="Layer 2"><g id="a78bf240-fc58-453f-9928-4f7e9d5daa30" data-name="Artwork"><path class="f3f4b71b-55ec-4f45-8bda-9770aa6bcc93" d="M63.5,119.9l-9.4,3.8-25.7,8.5-5.6.2-6.6-1.7s-4.5-4.7-4.5-5.2-1.3-6.5-1.3-7.5.7-7.2,1.5-7.9,5.8-7.5,5.8-7.5L57.2,52l.9-22,4.2-14,2.5-2.4,2.2.6,1.4,2.5v11l4.6-8.2,2.5-2.1h1.1L78,18l2,6.4,4.9,2.3s1-.4,1.7,1.4a15.7,15.7,0,0,1,.5,8.5c-.9,4-5.3,11.6-5.3,11.6l1.8,10.5L82.4,61l-1.1,3.8L75,71.7,68.4,84.1l-6.2,9.1"/><path class="f3f4b71b-55ec-4f45-8bda-9770aa6bcc93" d="M113.3,31.9c.6.1,8,4.6,8,4.6l1.5,7.7,3.2,4.3,6.7,3,17,9.2,10.4,5.9,3.1,6.8,2.1,4.9-.3,8.1,22.8-8.2,6.1-7.1s2.1-5.8,1.4-7.1-1.3-5.3-2.4-6.4-2.7-3.5-3.7-4.3a9.9,9.9,0,0,0-3.1-2.2C184,50.2,140,28.9,140,28.9s-.7-14.5-.9-15.2-1.4-4.9-1.4-4.9l-2-.2-3.8,5.3-1.3-3.1-7-7.9-4.4-1.5-1.5,1.8,2,5.4.5,4.8-5.9-4.6-4.2-.7-.8,1.5,4,9.1,2.6,2.8,1,2.6-4-1.5a29.5,29.5,0,0,0-1.4,5.6c0,1.5-.2,4.3-.2,4.3"/><path class="f7a20a64-2e93-48d6-b525-db835803761b" d="M320.3,239.7,308,228.1c-1.3-1.2-1.2-2-.1-3.2l32-34.5c.9-1,1.1-1.5,0-2.5l-9.2-9.2c-1.8-1.8-1.8-1.8,0-3.5,3.4-3.5,6.7-6.9,10.2-10.3,1.2-1.1,1-1.5-.3-2.3l-44.1-26.1-.5-.3c-.8-.5-2.1-.8-1.3-2s1.5-.2,2.2.2l17.4,10.3,20.1,11.9V90.2c0-2.6.1-2.7,2.7-2.6,32,1.2,58.2,22,66.5,52.8.3,1.1.5,2.2.8,3.4.8-.5.6-1.3.8-1.9a53.6,53.6,0,0,1,45-41.1,51.9,51.9,0,0,1,31.2,5.3c1.5.7,1.7.3,2-1,2.6-13.5,5.2-27,7.9-40.5.3-1.6.9-1.8,2.3-1.3l40.6,15.6c.7.3,1.5.4,1.5,1.3s-.7,1-1.3,1.4L512.5,93.9l-2.8,1.5-23.5,12.9a1,1,0,0,1-.1.4l2.2,1.5a54.5,54.5,0,0,1,16.3,18.4c2.3,4.2,3.7,8.8,5.2,13.4a8.5,8.5,0,0,0,.4,3.1,49,49,0,0,1,0,17.5c-.2,1.2-.1,1.8,1.5,1.8s5.5.4,8.3.6c9.8,1.3,19.2,3.6,27.4,9.5a18.4,18.4,0,0,1,2.5,2.3c5.9,5.9,6,12.8.1,18.7-.9,1-.9,1.4,0,2.3,5.9,6,5.9,12.6,0,18.7-.8.9-.9,1.3,0,2.2,5.9,6,5.9,12.6,0,18.7-.9.8-.8,1.2,0,2.1,5.8,6,5.9,12.5.1,18.6-1,1.1-.8,1.5.1,2.5,5.6,5.9,5.6,12.8-.2,18.5s-10.7,7.3-17,9.2c-2.8.8-5.7,1.4-9,2.2h26.4c.9,0,2-.2,2,1.1s-1.1,1.1-2,1.1H15.2c-1,0-2.5.5-2.6-1s1.7-1.1,2.6-1.1H25.4l-5.1-14.8c-6.7-19-13.3-38.1-20-57.1-.6-1.4-.4-1.9,1.1-2.5l33-12.1c2.1-.7,3.3-2.5,5.4-3.3,18-6.8,36-13.9,53.9-20.8a2.7,2.7,0,0,0,2.1-2.5c1.2-6.9,2.4-13.8,3.7-20.7.2-1-.1-1.1-1-1.1l-5.7.4a1.5,1.5,0,0,1-1.8-1.6l-4.2-32.3c-.2-1.5.2-3.6-.9-4.4s-2.7.6-4.1,1.1L66.7,124c-1.4.4-2.3.5-2.6-1.3s-1-.9-1.9-.6L30.4,132.9a16,16,0,0,1-21-11,15.6,15.6,0,0,1,3-14.1C26.5,89.7,40.5,71.6,54.7,53.6a7.3,7.3,0,0,0,1.6-5A82.1,82.1,0,0,1,60,19.5a16.6,16.6,0,0,1,2.4-4.8c.9-1.3,2.1-2.3,3.8-2a4,4,0,0,1,3.1,3.1c.6,2.4.3,4.7.2,7.5l2.6-4.1a8,8,0,0,1,2.2-2.3c2.6-1.8,4.8-.6,5.6,3.2a9.6,9.6,0,0,1,5.3-.5c.8.2,1-.4,1.3-.9,3-3.8,7-4.9,11.6-3.2a2.5,2.5,0,0,0,1.9-.1,9.5,9.5,0,0,1,12.1,4.4,2.8,2.8,0,0,0,2.5,1.5,33.9,33.9,0,0,0-2-2.8,26.5,26.5,0,0,1-3.8-6c-1.1-2.2-.9-3.9.3-5s3.1-1.1,5.1.1,2.7,2,4.1,3c.5-.8-.1-1.4-.3-2a13.8,13.8,0,0,1-1-4.9c.1-3.1,2.8-4.6,5.6-3.1a14.4,14.4,0,0,1,3.8,3.6,67.1,67.1,0,0,1,5.4,8.1c.6-1,1-2,1.6-2.8a3.3,3.3,0,0,1,3.1-1.7c1.4.1,2,1.3,2.4,2.4a43.7,43.7,0,0,1,1.8,10.1c.3,2.1.4,4.2.5,6.2a2.7,2.7,0,0,0,1.8,2.7l43.5,21.4c6,3,9.3,7.9,9.3,14.7a15.2,15.2,0,0,1-10,14.7c-6.2,2.3-12.4,4.3-18.7,6.3a4.1,4.1,0,0,0-2.5,2,13,13,0,0,1-6.3,5.7c-.8.4-1.3.8-1.2,1.8.3,3,.4,5.9.5,8.8a2.5,2.5,0,0,0,1.7,2.6l55.1,27.4,30.3,15.1c10.8,5.4,17.3,14.1,19.2,26,1.2,7.9-.7,15.2-4.5,22.2q-17.1,31.2-34,62.4l-2.1,3.8a3,3,0,0,1-.7,1.1c-2.2.8-1.9,2.8-1.9,4.5a10,10,0,0,0,9.3,10h9.6c6.2,0,10,3.1,11.2,9.2.2,1,.4,1.6,1.6,1.6h91.7l-1.2-2.6c-2.7-5.9-5.4-11.9-8.2-17.8s-5.6-13.5-6.3-20.9a44.5,44.5,0,0,1-.1-7.3,34,34,0,0,1,3.7-12.2v-.4h-.3a114.8,114.8,0,0,0-9.4,10.3A1.8,1.8,0,0,1,320.3,239.7Zm19.8-19.3-.3.5h-.3l.2.2v-.3l.5-.2.4-.3c8.8-5.5,18.4-7,28.5-6.1,8.3.8,16.1-.4,22.7-6s10-13.6,11.5-22.2.6-17.2.7-25.9c0-.9-.5-1.1-1.3-1.1H339.3v.3l22.5,13.2a17.4,17.4,0,0,0,4,2.3l2,1.3,30,17.8,1.3.8a.9.9,0,0,1,.4,1.3.9.9,0,0,1-1.4.4l-1.3-.7L348,167c-.6-.3-1.2-1-2.2-.6l9.1,9.1c1.2,1,1.1,1.8,0,2.9l-9.6,9.5c-1,1-1.2,1.6,0,2.6l9.8,9.1c2.2,2,2.2,2,.2,4.2L340.5,220ZM89.5,183.9h0c-2.8.6-5.3,1.9-8,3l-19.2,7.5-22.6,8.7c-1,.4-.7.9-.5,1.6s1.6,4.2,2.5,6.3l8.7,21.9L55,245l6.4,16.5c.4,1.2.9,1.4,2,.9,4.4-1.7,8.8-3.3,13.1-5.1,6.3-2.5,12.8-4.7,18.9-7.5s14.7-5.6,22-8.5,15.1-5.4,22.3-8.8A29.9,29.9,0,0,0,155.2,216c1.9-4.5,2.4-9.3,3.2-14,.1-.6.3-1.2.4-1.8l3-16.5c.2-1.5.9-1.7,2.2-1.1l3.5,1.8,16.2,8.2c-.4-2.9-.8-5.5-1.1-8.2-.1-.8-.6-2,.8-2.1s1,1,1.2,1.8.5,3.9.8,5.8a28.4,28.4,0,0,0,2.5-4.9,1,1,0,0,1,1.3-.8c.8.3.7.9.5,1.4s-.3.8-.4,1.3a129.5,129.5,0,0,1-7.3,15,4.7,4.7,0,0,0-1,2c-2.2,3.5-4,7.2-6,10.8-4.1,7.5-8.2,14.9-12.4,22.3-.5,1-.3,1.3.6,1.6l5.7,2.5,32.5,13.6,10.2,4.3,5.6,2.5c4.2,1.8,4.3,1.8,6.4-2.3,1.2-2.2,2.7-4.2,3.3-6.7.4,0,.5-.3.7-.5,1.8-3.5,3.7-6.9,5.5-10.3,2.9-5.3,5.9-10.6,8.8-16l5.9-11.2c2.3-4,4.5-8.1,6.7-12.1,1.3-2.3,2.7-4.7,3.9-7.1a31.8,31.8,0,0,0-14-43.5l-68.2-34c-4-1.9-7.9-4.2-12-5.7a10.6,10.6,0,0,0-3.3-1.8c-4.7-2.4-4.7-2.4-9.1.7v.2c-6.9,4.8-12.3,11.2-17.1,18.1l-8.2,10.9-.7.6c-6.1,7.2-13.6,12.3-23,14.1a1.2,1.2,0,0,0-1.1,1.1c-.3,2.4-.7,4.8-1.1,7.2-1,5.4-2.1,10.7-3,16.1a2.4,2.4,0,0,1-1.7,2l-5.7,2.2C89.9,183.6,89.5,183.5,89.5,183.9ZM398,266.3l-1,.4L353.1,287l-7.4,3.5h55.9v-.3l-1.1-.7A14.8,14.8,0,0,1,394,277c-.1-4.1,1.7-7.4,4.2-10.5.2-.1.4-.1.3-.3S398.2,266.2,398,266.3Zm102.1-79.6a39.2,39.2,0,0,1,4.9-1.3c4.8-.6,9.5-.1,14.2.4,9.7,1.1,19,3.4,27.2,8.9.6.4,1,.6,1.6,0,4.6-4.4,6.1-9.8,1.6-15.3a26.2,26.2,0,0,0-10-7.1,69.7,69.7,0,0,0-25.9-5.7c-4-.3-4.1-.3-5.3,3.6a60.6,60.6,0,0,1-8.4,16.4l-.3.2h.1Zm-42.8,18.8A51.6,51.6,0,1,0,405.8,154,51.7,51.7,0,0,0,457.3,205.5ZM88.5,117.9a2.8,2.8,0,0,0-.1.8L92.9,153c.1,1.1.8.8,1.5.8,10.5-.2,19.6-3.6,27-11.2,4.7-4.9,8.6-10.5,12.6-16,5.7-7.8,12.1-14.9,20.6-19.7a1.7,1.7,0,0,0,.9-2.1c-.3-5.6-.6-11.2-.8-16.9-.1-.7-.1-1.5.9-1.5s1,.7,1,1.4.3,3,.4,4.6a12.3,12.3,0,0,0,7.1-8c1.2-3.8-.2-7.4-1.5-10.9C159.3,64.3,150,59.9,140.7,63l-22.9,7.8c-2.9.9-2.9.9-2.1,3.9s.2,4.8-1.8,6.5-4.4,1.9-6.9.9l-9.3-3.9A3.6,3.6,0,0,0,95,78L68.9,86.3A3.1,3.1,0,0,0,67,87.7l-5.6,9.8a2.6,2.6,0,0,0-.4,2.3c1.7,6.8,3.2,13.7,4.7,20.6.3,1.4.6,1.5,1.9,1.1l18.2-6.2a2.4,2.4,0,0,1,2.3,0c2,1.3,4.1,2.4,6.1,3.6s1.5.9.9,1.8-1.2.3-1.8,0Zm91,172.6v-.2l-1.7-.8-34.9-14.4c-.8-.3-1.7-.4-1-1.8,3.3-5.9,6.6-11.8,9.6-17.9s7-11.4,8.9-18.1c1.1-3.8,3.7-7.1,5.7-10.7,5.5-10.1,11-20.2,16.6-30.3.4-.8,1.1-1.4-.3-2.1L165,185.4c-1-.5-1.4-.5-1.6.7-1.3,7.2-2.6,14.4-3.8,21.6-2.3,13.9-9.9,23.4-23.1,28.5l-25.7,9.9c-8.6,3.4-17.1,6.9-25.7,10s-16.6,7.5-25.7,9.1c-3.6.7-6.9,2.7-10.3,4.1s-5,4.5-4.4,7.7,3.5,5.6,7.3,5.6h7.5a9.2,9.2,0,0,1,8.6,6.2,2.2,2.2,0,0,0,2.5,1.7H179.5Zm239.2-.5h90.2l-45.1-81.8ZM370,157.2h32c1.6,0,1.9-.4,1.8-1.9a85.7,85.7,0,0,0-1.9-13.2c-6.8-29.4-33.8-51.6-63.6-52.4-1.7,0-1.9.5-1.9,2v63.4c0,1.8.5,2.1,2.2,2.1ZM56.3,54.9l-1,1.1L13.9,109.2a14,14,0,0,0,15.5,21.9l32.9-11.2c.9-.3,1.1-.6.9-1.6-1.4-6-2.7-12-4.1-17.9a5.1,5.1,0,0,1,.6-4.3C65,87.3,70.2,78.4,75.5,69.5a7,7,0,0,1,2.6-2.8A8.1,8.1,0,0,0,81.4,57c-.6-2-1.4-3.9-2.1-5.8a13,13,0,0,1,2.2-13.6A25.6,25.6,0,0,0,85,32.5c.5-1,1.1-2,.2-3s-2.1-.1-2.9.5a42.4,42.4,0,0,0-6.9,5.8c-.6.5-1.1,1.4-2.1.8s-.3-1.4,0-2.1a86.5,86.5,0,0,0,3.5-9.7,16.3,16.3,0,0,0,.9-4.8c0-.7-.1-1.5-.9-1.7s-1.2.1-1.7.5a15.2,15.2,0,0,0-2.6,3.5A70.4,70.4,0,0,0,68.1,32c-.3.6-.6,1.2-1.4,1s-.7-.9-.6-1.5.7-3.6.9-5.4c.5-3.3,1.1-6.6.2-9.9-.5-1.8-1.8-2-3-.5A12.6,12.6,0,0,0,62,20.2c-3.3,10-4.1,20.3-3.7,30.8,0,2.3-.1,4.5-.1,6.8,0,.7-.2,1.3-1,1.3s-1-.6-.9-1.3Zm110,29.6c6.5-2.2,12.7-4.2,18.9-6.4a12.4,12.4,0,0,0,5.3-3.8,13.8,13.8,0,0,0-4.7-21.7C170.9,45.1,156,37.8,141,30.4a2.6,2.6,0,0,1-1.8-2.7c0-2.2-.2-4.4-.4-6.6a47.9,47.9,0,0,0-1.8-9.9c-.1-.5-.2-1.2-.9-1.3a1.7,1.7,0,0,0-1.3,1,13.6,13.6,0,0,0-1.6,4.8c-.3,2.5-.5,5.1-.7,7.6-.1.8-.1,1.9-1.2,1.9s-.9-1.1-.8-1.9-.1-.7,0-.9c1.9-6-1-10.7-4.3-15.2l-2.5-3a9.5,9.5,0,0,0-1.9-1.6,1.7,1.7,0,0,0-2.1-.4,2.2,2.2,0,0,0-.7,2,18.3,18.3,0,0,0,1.2,4.6,76.2,76.2,0,0,0,4.6,9c.4.6,1,1.3.1,2s-1.4-.3-1.8-.8a70.7,70.7,0,0,0-6.5-6.9,14.5,14.5,0,0,0-4-3c-.7-.3-1.4-.6-2-.1s-.4,1.4-.2,2.1a18.6,18.6,0,0,0,2.3,4.1,101.6,101.6,0,0,0,6.5,8.2c.4.6,1.3,1.1.5,1.9s-1.3.2-2-.1l-4.2-1.9a9,9,0,0,1,.9,2.6c.1,1.2-1,2.3-.7,3.1s2,.9,2.6,2,2.9,2.5,4.3,4c.6-.8.2-2.3,1.5-2.1s.9,1.4.9,2.2-.2,2.2-.2,3.2c-.1,5.1,1.3,8.8,7.1,10.5a5.3,5.3,0,0,1,1.7.8c7.8,4,15.3,8.8,23.4,12.4a14.6,14.6,0,0,1,6.5,5.3C165,72.4,167.1,77.9,166.3,84.5ZM493.6,193.9c-.7-.1-.9.3-1.2.5A52,52,0,0,1,467,206.6c-1.2.2-1.5.6-.8,1.8l13.8,25,13.4,24.3c1.1-4.5,3.9-7.2,8.1-8.8-4.6-2.1-8-5.2-8.1-10.5s3.4-8.4,8-10.5c-4.6-2.1-7.9-5.1-8-10.3s3.3-8.5,8.1-10.5C495.7,204.5,492.5,200.4,493.6,193.9ZM92.2,39.1A5.7,5.7,0,0,1,95.1,43c.1.9.4,1.9-.3,2.5s-1.5-.1-2.3-.4A5.9,5.9,0,0,0,86,46.7a5.8,5.8,0,0,0-.6,6.5A5.6,5.6,0,0,0,91.5,56c1.6-.5,2.3.1,2.6,1.7,1,5.6,2.2,11.2,3.3,16.9.2.8.3,1.5,1.2,1.9l9.6,3.9a4.1,4.1,0,0,0,5.6-4.8l-2.1-10.2c-.2-1-.5-1.3-1.5-.8a13.7,13.7,0,0,1-5.7.9c-.7,0-1.9,0-1.8-1.1s1-1,1.8-.9h1.2a12.6,12.6,0,0,0,12-12.6c-1.6-.1-3.2-.5-4.4,1.2-.1.2-.7.1-1-.2a1.4,1.4,0,0,1-.2-1.4c.8-2.9,2.8-3.4,5.6-1.3a10,10,0,0,0-1.5-4.4c-.8.6-1.3,2-2.3,1.1s.3-1.7.7-2.5.1-.2.2-.3.5-1.3-.4-1.9l-4.3-3c-.5-.4-1-.8-.7-1.5s1.1-.7,1.6-.2,1.3-.4,1.9-.6.1-1-.1-1.4a19.9,19.9,0,0,1-1.2-1.9c-1-2.2-3.6-2.7-5-4.5-2.7,2.8-3.3,3-7.1,1.8-.6-.2-.7.1-.9.5a5.1,5.1,0,0,1-3.7,2.8c-.5.1-1,0-.8.7C94.8,36.1,93.7,37.6,92.2,39.1Zm392.9,67.5,47.2-26.2-1.9-.8L494.9,65.9c-1.4-.5-1.8-.4-2.1,1.2-1.6,8.7-3.4,17.3-5.1,26C486.9,97.4,486,101.8,485.1,106.6ZM499.9,269c.1.5.1.7.2.8l10.3,18.8c.5.9,1.2.9,2,.9a76.9,76.9,0,0,0,24.2-4.6c4.8-1.8,9.2-4,12.6-7.9s4-11.2-1-15.6a1.2,1.2,0,0,0-1.8-.2,27,27,0,0,1-5.2,3c-7.9,3.9-16.4,5.6-25.1,6.3C510.7,270.8,505.3,271.5,499.9,269ZM354.5,201.7c-3.8-3.5-7.6-6.9-11.3-10.5-1-.9-1.3,0-1.8.5l-31.3,33.8c-.8.8-.7,1.2.1,1.9l10.1,9.3c.7.8,1.2.8,1.9,0ZM462,207.3a52.9,52.9,0,0,1-22.4-2.8,55.6,55.6,0,0,1-19-11.6l-.3.3L442.9,242Zm83.7,10.3a34.9,34.9,0,0,0-7.5-4.2c-9.7-3.9-19.9-5.2-30.3-5.3a15.3,15.3,0,0,0-8.3,2.3c-5.5,3.4-5.6,10.6-.2,14.2a15.3,15.3,0,0,0,7.5,2.3,85.1,85.1,0,0,0,23.6-2.7A45.7,45.7,0,0,0,545.7,217.6Zm0-21-2.3-1.4c-11.8-6.5-24.6-8.2-37.8-7.8a11.7,11.7,0,0,0-6.4,2.4c-5.2,3.8-4.9,10.7.6,14.1a16.2,16.2,0,0,0,8.6,2.2,87,87,0,0,0,24.3-3.4A42.8,42.8,0,0,0,545.7,196.6Zm-.1,62.8a22.7,22.7,0,0,0-5-3.1c-10.7-4.9-22-6.5-33.7-6.3a14.7,14.7,0,0,0-7.3,2.1c-5,3.2-5.6,9.3-1.3,13.3a13.5,13.5,0,0,0,9,3.3,82.7,82.7,0,0,0,21.6-2.3A48,48,0,0,0,545.6,259.4Zm.1-21-3-1.9c-11.7-6.1-24.2-7.8-37.1-7.3a12.2,12.2,0,0,0-6.8,2.6,7.7,7.7,0,0,0-3,8.8c1.6,4.6,5.2,6.6,9.7,7a74.2,74.2,0,0,0,29.9-4A38.4,38.4,0,0,0,545.7,238.4ZM421.6,277.3a12.8,12.8,0,1,0-12.8,12.8A12.9,12.9,0,0,0,421.6,277.3ZM146.2,59.9l-2.3-1.3c-4.9-2.6-9.5-5.8-14.6-7.8s-8.2-5.2-8.6-10.8a6.1,6.1,0,0,0-3.4-5.1,4.6,4.6,0,0,0-.9,4.7c.6,1.3.9,2.8,1.6,4.1,3.1,5.6,2.5,12.6-2.2,17-2.5,2.3-2.4,4.3-1.6,6.9,0,.2.1.4.1.6s.6,1.4,1.8,1l15.4-5.3C136.2,62.5,140.7,60.3,146.2,59.9ZM69.5,83.6l.3.2L94.7,76c.7-.2.8-.6.7-1.3-1-5-2.1-10.1-3-15.2-.3-1.6-1-1.7-2.2-1a8.4,8.4,0,0,1-4.9,1.1c-1.1-.1-1.3.4-1.4,1.4a9.4,9.4,0,0,1-3.8,6.7,12.3,12.3,0,0,0-4,4.8ZM407.1,261.9c9.5.3,15,5,16.8,14.5l16.4-29.8Zm-64.5-95.8-.6.6-9.6,9.5c-.7.7-.3,1,.2,1.5l9.3,9.3c.5.6.8.7,1.4.1l9.4-9.5c.6-.5.6-.9.1-1.5l-9.5-9.4Zm180.8,61.8c.1.2.1.3.2.3,8.2,1.4,16.2,3.7,23.2,8.5.6.4.8.2,1.3-.1a11,11,0,0,0,.1-17.1,1.2,1.2,0,0,0-1.6-.1C539.6,224.2,531.7,226.4,523.4,227.9Zm-.8,21c8.7,1.5,16.9,3.7,24,8.6.8.6,1.1.2,1.6-.2,5.3-4.7,5.5-10.9.7-16.1-1.1-1.2-1.8-1.4-3.2-.3a21.5,21.5,0,0,1-5.6,3A72.1,72.1,0,0,1,522.6,248.9Zm.1-41.8.9.2c8.2,1.5,16.1,3.7,23,8.5.8.5,1.1.1,1.6-.3,5.4-4.8,5.4-11.8.1-16.7a1.3,1.3,0,0,0-1.8-.2C539.4,203.5,531.3,205.7,522.7,207.1ZM118.6,10.7a.1.1,0,0,1-.1.1v0Z"/><path class="a44472b2-2079-4cad-8cb8-24b6ea72e444" d="M509.7,95.4l2.8-1.5h32.9c1.8,0,2.5.3,2.5,2.3q-.1,33.1,0,66.3c0,1.8-.4,2.4-2.3,2.3-7.8-.1-15.7,0-23.5,0a3.8,3.8,0,0,0-2.1.2c-2.8-.2-5.6-.6-8.3-.6s-1.7-.6-1.5-1.8a49,49,0,0,0,0-17.5,8.5,8.5,0,0,1-.4-3.1V124.1C509.8,114.5,509.7,105,509.7,95.4Z"/><path class="a44472b2-2079-4cad-8cb8-24b6ea72e444" d="M307.1,290.5h-8.9a25.6,25.6,0,0,1-13.9-7.4,24,24,0,0,1-7.2-17.2c0-8.1.1-16.2,0-24.3,0-1.5.4-2,2-2h41.2a1.8,1.8,0,0,0,2.1,0,17.1,17.1,0,0,0,3.2-.1c1.8-.2,2.8.3,2.7,2.3a44.5,44.5,0,0,0,.1,7.3,3.4,3.4,0,0,0-.3,2c0,4.8.1,9.7,0,14.5a25.8,25.8,0,0,1-6.8,16.9A27.6,27.6,0,0,1,307.1,290.5Z"/><path class="f3f4b71b-55ec-4f45-8bda-9770aa6bcc93" d="M247.8,214.5l-5.9,11.2c-2.9,5.4-5.9,10.7-8.8,16-.3-.2-.7-.3-.9-.6-1.6-2-3.5-3.6-5.2-5.4s-6.2-2.7-9,0l-14,14a7.7,7.7,0,0,0-2.6,5l-32.5-13.6-5.7-2.5c-.9-.3-1.1-.6-.6-1.6,4.2-7.4,8.3-14.8,12.4-22.3,2.4,1.4,4,3.8,6,5.6s5.9,1.9,7.9,0,2.7-5.7.9-7.7a72.3,72.3,0,0,0-8.8-8.7,4.7,4.7,0,0,1,1-2,129.5,129.5,0,0,0,7.3-15c.1-.5.3-.8.4-1.3s.3-1.1-.5-1.4a1,1,0,0,0-1.3.8,28.4,28.4,0,0,1-2.5,4.9c-.3-1.9-.6-3.9-.8-5.8s0-1.9-1.2-1.8-.9,1.3-.8,2.1c.3,2.7.7,5.3,1.1,8.2l-16.2-8.2-3.5-1.8c-1.3-.6-2-.4-2.2,1.1l-3,16.5c-.1.6-.3,1.2-.4,1.8l-.6-.5c-3.4-3.2-6.4-3.2-9.8.2l-4.7,4.8c-.7.7-1.1.7-1.7,0s-3.7-3.7-5.6-5.6a5.9,5.9,0,0,0-8.3,0c-3.7,3.6-7.3,7.3-10.9,10.9a5.5,5.5,0,0,0-1.7,3.7,5.7,5.7,0,0,0,3.3,5.7,6.2,6.2,0,0,0,7.2-1.3,54.4,54.4,0,0,0,4.8-4.8c1-1.2,1.7-1.4,2.9-.1a60.2,60.2,0,0,0,5,5.1,5.8,5.8,0,0,0,8.4-.1c1.8-1.7,3.5-3.4,5.2-5.2s1.5-.9,2.3.1l1,1.1a29.9,29.9,0,0,1-15.5,16.5c-7.2,3.4-14.8,6-22.3,8.8l-2.7-2.6c-2.8-2.6-6.3-2.6-9,.1s-4.3,4.1-6.2,6.3-3.1,2.8-4.1,4.7c-6.1,2.8-12.6,5-18.9,7.5-4.3,1.8-8.7,3.4-13.1,5.1-1.1.5-1.6.3-2-.9L55,245H67c4.5,0,7-2.5,7-6.9s.1-8.1-.3-12.1c-.2-1.5.4-2.1,2-2H89a5.6,5.6,0,0,0,5.8-5.7c.1-3.8-2.6-6.3-6.8-6.3H69c-4.8,0-7.5,2.5-7.3,7.2L62,231c0,1.6-.5,2-2,1.9H50.4L41.7,211c-.9-2.1-1.6-4.2-2.5-6.3s-.5-1.2.5-1.6l22.6-8.7a31.7,31.7,0,0,0,36.1-1.9c8.2-6.5,12.6-15,12.6-25.5a5.7,5.7,0,0,0-3.4-5.3c-2.7-1.3-5-.5-7.1,1.5.4-2.4.8-4.8,1.1-7.2a1.2,1.2,0,0,1,1.1-1.1c9.4-1.8,16.9-6.9,23-14.1l.7-.6a23,23,0,0,0,8.6,1.2,5.7,5.7,0,0,0,5.7-4.9,5.9,5.9,0,0,0-4.3-6.8l-1.8-.4c4.8-6.9,10.2-13.3,17.1-18.1.9.4,1.3,1.3,2,1.9,3.2,3,8.8,2.1,10.5-1,4.1,1.5,8,3.8,12,5.7l68.2,34a31.8,31.8,0,0,1,14,43.5c-1.2,2.4-2.6,4.8-3.9,7.1h-6.8c-2.1,0-4.1.5-5.4,2.4a5.5,5.5,0,0,0-.7,6.1A5.7,5.7,0,0,0,247.8,214.5Zm-38-15.5a18.8,18.8,0,0,0,10.6-2.4c11.6-6.3,15.6-19.7,9.3-31.4-1.5-3-4.8-3.7-7.2-1.4-8.5,8.4-16.9,16.8-25.3,25.3-2.2,2.3-1.6,5.5,1.2,7.1A20.6,20.6,0,0,0,209.8,199Zm-29.7-69.3a4.5,4.5,0,0,0-4,1.5q-7.8,7.5-15.3,15.3a5.8,5.8,0,0,0,.8,8.7c2.7,1.9,5.6,1.6,8.3-1l9.1-9.1c.6-.6,1.2-1.1,2-.2s4.4,4.5,6.5,6.8a21.9,21.9,0,0,0,4.2,3.8,5.8,5.8,0,0,0,7.7-1.4,5.9,5.9,0,0,0-.3-7.7c-4.8-5-9.7-10-14.6-14.9A5,5,0,0,0,180.1,129.7ZM140,180.9a7.7,7.7,0,0,0,7.5-7.6c0-3.9-3.7-7.4-7.7-7.4a7.4,7.4,0,0,0-7.3,7.7A7.4,7.4,0,0,0,140,180.9Z"/><path class="f3f4b71b-55ec-4f45-8bda-9770aa6bcc93" d="M457.3,205.5A51.6,51.6,0,1,1,509,153.9,51.7,51.7,0,0,1,457.3,205.5Z"/><path class="a44472b2-2079-4cad-8cb8-24b6ea72e444" d="M88.5,117.9l4.8,2.8c.6.3,1.3.8,1.8,0s-.2-1.4-.9-1.8-4.1-2.3-6.1-3.6a2.4,2.4,0,0,0-2.3,0l-18.2,6.2c-1.3.4-1.6.3-1.9-1.1-1.5-6.9-3-13.8-4.7-20.6a2.6,2.6,0,0,1,.4-2.3L67,87.7a3.1,3.1,0,0,1,1.9-1.4L95,78a3.6,3.6,0,0,1,2.7.2l9.3,3.9c2.5,1,4.8.9,6.9-.9s2.4-4,1.8-6.5-.8-3,2.1-3.9L140.7,63c9.3-3.1,18.6,1.3,21.9,10.5,1.3,3.5,2.7,7.1,1.5,10.9a12.3,12.3,0,0,1-7.1,8c-.1-1.6-.3-3.1-.4-4.6s-.1-1.5-1-1.4-1,.8-.9,1.5c.2,5.7.5,11.3.8,16.9a1.7,1.7,0,0,1-.9,2.1c-8.5,4.8-14.9,11.9-20.6,19.7-4,5.5-7.9,11.1-12.6,16-7.4,7.6-16.5,11-27,11.2-.7,0-1.4.3-1.5-.8l-4.5-34.3A2.8,2.8,0,0,1,88.5,117.9Zm39,4.7a15.2,15.2,0,0,0,5.7-3.7,87.8,87.8,0,0,0,7-7.9c3-3.4,6.3-6.5,10.4-8.4.7-.3,1.8-.6,1.3-1.7s-1.4-.4-2.1-.1c-4.4,2-7.8,5.3-11,8.8s-6.6,9-12,11.2a.9.9,0,0,0-.5,1.2C126.5,122.5,126.9,122.6,127.5,122.6Zm3-8a1.4,1.4,0,0,0-.6-1c-.6-.3-1,.1-1.3.5a14.5,14.5,0,0,1-4.7,3.4c-.6.2-1.1.6-.8,1.4s.9.7,1.6.4a14.1,14.1,0,0,0,5.4-4A2.5,2.5,0,0,0,130.5,114.6Z"/><path class="f3f4b71b-55ec-4f45-8bda-9770aa6bcc93" d="M418.7,290l45.1-81.8L508.9,290Z"/><path class="f3f4b71b-55ec-4f45-8bda-9770aa6bcc93" d="M370,157.2H338.6c-1.7,0-2.2-.3-2.2-2.1V91.7c0-1.5.2-2,1.9-2,29.8.8,56.8,23,63.6,52.4a85.7,85.7,0,0,1,1.9,13.2c.1,1.5-.2,1.9-1.8,1.9Z"/><path class="f3f4b71b-55ec-4f45-8bda-9770aa6bcc93" d="M92.2,39.1c1.5-1.5,2.6-3,1.9-5.2-.2-.7.3-.6.8-.7a5.1,5.1,0,0,0,3.7-2.8c.2-.4.3-.7.9-.5,3.8,1.2,4.4,1,7.1-1.8,1.4,1.8,4,2.3,5,4.5a19.9,19.9,0,0,0,1.2,1.9c.2.4.9,1,.1,1.4s-.8,1.6-1.9.6-1.2-.6-1.6.2.2,1.1.7,1.5l4.3,3c.9.6,1.2,1.1.4,1.9s-.2.2-.2.3-1.8,1.6-.7,2.5,1.5-.5,2.3-1.1a10,10,0,0,1,1.5,4.4c-2.8-2.1-4.8-1.6-5.6,1.3a1.4,1.4,0,0,0,.2,1.4c.3.3.9.4,1,.2,1.2-1.7,2.8-1.3,4.4-1.2a12.6,12.6,0,0,1-12,12.6h-1.2c-.8-.1-1.7-.1-1.8.9s1.1,1.1,1.8,1.1a13.7,13.7,0,0,0,5.7-.9c1-.5,1.3-.2,1.5.8l2.1,10.2a4.1,4.1,0,0,1-5.6,4.8l-9.6-3.9c-.9-.4-1-1.1-1.2-1.9-1.1-5.7-2.3-11.3-3.3-16.9-.3-1.6-1-2.2-2.6-1.7a5.6,5.6,0,0,1-6.1-2.8,5.8,5.8,0,0,1,.6-6.5,5.9,5.9,0,0,1,6.5-1.6c.8.3,1.5,1.1,2.3.4s.4-1.6.3-2.5A5.7,5.7,0,0,0,92.2,39.1Zm13.1-.4a1,1,0,0,0-1.1-1,1.1,1.1,0,0,0-1.2,1,1,1,0,0,0,1.2,1.1C104.8,39.8,105.2,39.4,105.3,38.7Z"/><path class="f3f4b71b-55ec-4f45-8bda-9770aa6bcc93" d="M485.1,106.6c.9-4.8,1.8-9.2,2.6-13.5,1.7-8.7,3.5-17.3,5.1-26,.3-1.6.7-1.7,2.1-1.2l35.5,13.7,1.9.8Z"/><path class="f3f4b71b-55ec-4f45-8bda-9770aa6bcc93" d="M354.5,201.7l-32.3,35c-.7.8-1.2.8-1.9,0l-10.1-9.3c-.8-.7-.9-1.1-.1-1.9l31.3-33.8c.5-.5.8-1.4,1.8-.5C346.9,194.8,350.7,198.2,354.5,201.7Z"/><path class="a44472b2-2079-4cad-8cb8-24b6ea72e444" d="M50.4,232.9H60c1.5.1,2-.3,2-1.9l-.3-11.9c-.2-4.7,2.5-7.2,7.3-7.2H88c4.2,0,6.9,2.5,6.8,6.3a5.6,5.6,0,0,1-5.8,5.7H75.7c-1.6-.1-2.2.5-2,2,.4,4,.3,8,.3,12.1s-2.5,6.9-7,6.9H55C53.4,240.9,51.9,236.9,50.4,232.9Z"/><path class="a44472b2-2079-4cad-8cb8-24b6ea72e444" d="M155.2,216l-1-1.1c-.8-1-1.5-1-2.3-.1s-3.4,3.5-5.2,5.2a5.8,5.8,0,0,1-8.4.1,60.2,60.2,0,0,1-5-5.1c-1.2-1.3-1.9-1.1-2.9.1a54.4,54.4,0,0,1-4.8,4.8,6.2,6.2,0,0,1-7.2,1.3,5.7,5.7,0,0,1-3.3-5.7,5.5,5.5,0,0,1,1.7-3.7c3.6-3.6,7.2-7.3,10.9-10.9a5.9,5.9,0,0,1,8.3,0c1.9,1.9,3.8,3.7,5.6,5.6s1,.7,1.7,0l4.7-4.8c3.4-3.4,6.4-3.4,9.8-.2l.6.5C157.6,206.7,157.1,211.5,155.2,216Z"/><path class="a44472b2-2079-4cad-8cb8-24b6ea72e444" d="M100.5,163.2c2.1-2,4.4-2.8,7.1-1.5A5.7,5.7,0,0,1,111,167c0,10.5-4.4,19-12.6,25.5a31.7,31.7,0,0,1-36.1,1.9l19.2-7.5c3-.3,5.7-1,8-3h0c.3,0,.5,0,.6-.4l5.7-2.2a2.4,2.4,0,0,0,1.7-2C98.4,173.9,99.5,168.6,100.5,163.2Z"/><path class="f3f4b71b-55ec-4f45-8bda-9770aa6bcc93" d="M421.6,277.3a12.8,12.8,0,1,1-12.8-13.1A12.9,12.9,0,0,1,421.6,277.3Z"/><path class="a44472b2-2079-4cad-8cb8-24b6ea72e444" d="M201.4,254.7a7.7,7.7,0,0,1,2.6-5l14-14c2.8-2.7,6.2-2.8,9,0s3.6,3.4,5.2,5.4c.2.3.6.4.9.6-1.8,3.4-3.7,6.8-5.5,10.3-.2.2-.3.5-.7.5s-1.9-1.9-2.8-2.8-1.9-1.4-3.1-.1c-3.1,3.2-6.3,6.3-9.4,9.4Z"/><path class="f3f4b71b-55ec-4f45-8bda-9770aa6bcc93" d="M342.6,166.1l.7.6,9.5,9.4c.5.6.5,1-.1,1.5l-9.4,9.5c-.6.6-.9.5-1.4-.1l-9.3-9.3c-.5-.5-.9-.8-.2-1.5l9.6-9.5Z"/><path class="a44472b2-2079-4cad-8cb8-24b6ea72e444" d="M369.6,159.2c3.8,1.2,6.1,3.6,6.4,7.7a8,8,0,0,1-9.2,8.1h-1.1a14.7,14.7,0,0,1-4-2.4c-.3-.5-.5-1.1-.8-1.6a7.9,7.9,0,0,1-.9-5c.5-3.6,2.8-5.7,6.1-6.8Z"/><path class="a44472b2-2079-4cad-8cb8-24b6ea72e444" d="M181,203.9a72.3,72.3,0,0,1,8.8,8.7c1.8,2,1.2,5.8-.9,7.7s-5.8,1.8-7.9,0-3.6-4.2-6-5.6C177,211.1,178.8,207.4,181,203.9Z"/><path class="f3f4b71b-55ec-4f45-8bda-9770aa6bcc93" d="M211.6,259c3.1-3.1,6.3-6.2,9.4-9.4,1.2-1.3,1.9-1.1,3.1.1s1.5,2.3,2.8,2.8c-.6,2.5-2.1,4.5-3.3,6.7-2.1,4.1-2.2,4.1-6.4,2.3Z"/><path class="a44472b2-2079-4cad-8cb8-24b6ea72e444" d="M134.6,129.3l1.8.4a5.9,5.9,0,0,1,4.3,6.8,5.7,5.7,0,0,1-5.7,4.9,23,23,0,0,1-8.6-1.2Z"/><path class="a44472b2-2079-4cad-8cb8-24b6ea72e444" d="M247.8,214.5a5.7,5.7,0,0,1-6.2-3.5,5.5,5.5,0,0,1,.7-6.1c1.3-1.9,3.3-2.4,5.4-2.4h6.8C252.3,206.4,250.1,210.5,247.8,214.5Z"/><path class="a44472b2-2079-4cad-8cb8-24b6ea72e444" d="M95.4,249.8c1-1.9,2.7-3.2,4.1-4.7s4.1-4.2,6.2-6.3,6.2-2.7,9-.1l2.7,2.6C110.1,244.2,102.9,247.2,95.4,249.8Z"/><path class="a44472b2-2079-4cad-8cb8-24b6ea72e444" d="M164.2,112.1c-1.7,3.1-7.3,4-10.5,1-.7-.6-1.1-1.5-2-1.9V111c4.4-3.1,4.4-3.1,9.1-.7A10.6,10.6,0,0,1,164.2,112.1Z"/><path class="f3f4b71b-55ec-4f45-8bda-9770aa6bcc93" d="M89.5,183.9c-2.3,2-5,2.7-8,3C84.2,185.8,86.7,184.5,89.5,183.9Z"/><path class="f3f4b71b-55ec-4f45-8bda-9770aa6bcc93" d="M90.1,183.5c-.1.4-.3.4-.6.4S89.9,183.6,90.1,183.5Z"/><path class="f3f4b71b-55ec-4f45-8bda-9770aa6bcc93" d="M331.8,229.4h.3v.4Z"/><path class="f7a20a64-2e93-48d6-b525-db835803761b" d="M339.8,220.9v.3l-.2-.2Z"/><path class="f7a20a64-2e93-48d6-b525-db835803761b" d="M118.6,10.7h.1v0A.1.1,0,0,0,118.6,10.7Z"/><path class="f3f4b71b-55ec-4f45-8bda-9770aa6bcc93" d="M398,266.3c.2-.1.4-.2.5-.1s-.1.2-.3.3S398.1,266.4,398,266.3Z"/><path class="f3f4b71b-55ec-4f45-8bda-9770aa6bcc93" d="M500.1,186.7l-.3.2h-.1l.3-.2Z"/><path class="a44472b2-2079-4cad-8cb8-24b6ea72e444" d="M209.8,199a20.6,20.6,0,0,1-11.4-2.8c-2.8-1.6-3.4-4.8-1.2-7.1,8.4-8.5,16.8-16.9,25.3-25.3,2.4-2.3,5.7-1.6,7.2,1.4,6.3,11.7,2.3,25.1-9.3,31.4A18.8,18.8,0,0,1,209.8,199Z"/><path class="a44472b2-2079-4cad-8cb8-24b6ea72e444" d="M180.1,129.7a5,5,0,0,1,4.4,1.8c4.9,4.9,9.8,9.9,14.6,14.9a5.9,5.9,0,0,1,.3,7.7,5.8,5.8,0,0,1-7.7,1.4,21.9,21.9,0,0,1-4.2-3.8c-2.1-2.3-4.3-4.5-6.5-6.8s-1.4-.4-2,.2l-9.1,9.1c-2.7,2.6-5.6,2.9-8.3,1a5.8,5.8,0,0,1-.8-8.7q7.5-7.8,15.3-15.3A4.5,4.5,0,0,1,180.1,129.7Z"/><path class="a44472b2-2079-4cad-8cb8-24b6ea72e444" d="M140,180.9a7.4,7.4,0,0,1-7.5-7.3,7.4,7.4,0,0,1,7.3-7.7c4,0,7.7,3.5,7.7,7.4A7.7,7.7,0,0,1,140,180.9Z"/><path class="f7a20a64-2e93-48d6-b525-db835803761b" d="M127.5,122.6c-.6,0-1-.1-1.2-.6a.9.9,0,0,1,.5-1.2c5.4-2.2,8.3-7.1,12-11.2s6.6-6.8,11-8.8c.7-.3,1.6-1,2.1.1s-.6,1.4-1.3,1.7c-4.1,1.9-7.4,5-10.4,8.4a87.8,87.8,0,0,1-7,7.9A15.2,15.2,0,0,1,127.5,122.6Z"/><path class="f7a20a64-2e93-48d6-b525-db835803761b" d="M130.5,114.6a2.5,2.5,0,0,1-.4.7,14.1,14.1,0,0,1-5.4,4c-.7.3-1.3.2-1.6-.4s.2-1.2.8-1.4a14.5,14.5,0,0,0,4.7-3.4c.3-.4.7-.8,1.3-.5A1.4,1.4,0,0,1,130.5,114.6Z"/><path class="f7a20a64-2e93-48d6-b525-db835803761b" d="M105.3,38.7c-.1.7-.5,1.1-1.1,1.1a1,1,0,0,1-1.2-1.1,1.1,1.1,0,0,1,1.2-1A1,1,0,0,1,105.3,38.7Z"/><path class="a44472b2-2079-4cad-8cb8-24b6ea72e444" d="M463.6,165.4a6,6,0,0,0-1.3-4.2,13.1,13.1,0,0,0-4.7-2.9c-2.2-.9-4.3-1.8-6.1-2.7a22.1,22.1,0,0,1-4.9-3.3,11.5,11.5,0,0,1-3.1-4.2,13.2,13.2,0,0,1-1.1-5.9,12.3,12.3,0,0,1,3.9-9.4,16.3,16.3,0,0,1,10.3-4.4v-7.1H462v7.3a15.4,15.4,0,0,1,9.8,5.1,16.1,16.1,0,0,1,3.5,10.6H463.8a9.4,9.4,0,0,0-1.3-5.4,4.4,4.4,0,0,0-3.9-1.9,4.5,4.5,0,0,0-3.5,1.4,5.7,5.7,0,0,0-1.2,3.9,5.3,5.3,0,0,0,1.4,4,14.6,14.6,0,0,0,4.6,2.8c2.1.9,4.1,1.8,6,2.8a28.9,28.9,0,0,1,4.8,3.3,12.4,12.4,0,0,1,3.2,4.3,13.2,13.2,0,0,1,1.2,5.9,12.9,12.9,0,0,1-3.7,9.4c-2.5,2.5-5.8,3.9-10.1,4.3V186h-5.4v-6.9q-7.3-.7-11.4-5.1c-2.6-2.9-3.9-6.6-3.9-11.3H452a8.7,8.7,0,0,0,1.8,5.9,6,6,0,0,0,4.8,2,5,5,0,0,0,3.7-1.4A5.2,5.2,0,0,0,463.6,165.4Z"/><path class="f3f4b71b-55ec-4f45-8bda-9770aa6bcc93" d="M302.4,207.4a2.6,2.6,0,0,0-.2-2,5.1,5.1,0,0,0-1.8-1.8l-2.6-1.8a11.4,11.4,0,0,1-1.9-1.9,5.5,5.5,0,0,1-1-2.2,6.1,6.1,0,0,1,0-2.7,5.7,5.7,0,0,1,2.6-3.9,7.8,7.8,0,0,1,5.1-1.1l.6-3.2,2.5.5-.7,3.3a6.8,6.8,0,0,1,4,3.2,7.2,7.2,0,0,1,.6,5.1l-5.2-1a4.4,4.4,0,0,0-.1-2.6,1.9,1.9,0,0,0-1.6-1.2,2,2,0,0,0-1.7.3,3.4,3.4,0,0,0-.9,1.7,2.4,2.4,0,0,0,.3,1.9,5.9,5.9,0,0,0,1.8,1.7l2.5,1.8a11.4,11.4,0,0,1,1.9,1.9,6.2,6.2,0,0,1,1,2.2,6.6,6.6,0,0,1,0,2.8,5.9,5.9,0,0,1-2.5,3.9,7.2,7.2,0,0,1-4.9,1.1l-.7,3.1-2.4-.5.6-3.1a8.1,8.1,0,0,1-4.7-3.4,7,7,0,0,1-.7-5.4l5.1,1a4.1,4.1,0,0,0,.3,2.8,3,3,0,0,0,2,1.4,2.7,2.7,0,0,0,1.8-.3A2.4,2.4,0,0,0,302.4,207.4Z"/><path class="f7a20a64-2e93-48d6-b525-db835803761b" d="M300.1,217.3l-3.9-.7.7-3.2a8.1,8.1,0,0,1-4.5-3.5,8.6,8.6,0,0,1-.9-6l.2-.7,6.6,1.3v.7a3.8,3.8,0,0,0,.1,2.4,2,2,0,0,0,1.6.9,1.6,1.6,0,0,0,1.2-.1,2,2,0,0,0,.6-1.2h0a2.4,2.4,0,0,0-.1-1.5,4.4,4.4,0,0,0-1.7-1.4l-2.5-1.9a10.1,10.1,0,0,1-2.1-2,6.2,6.2,0,0,1-1.1-2.5,6.5,6.5,0,0,1,0-3.1,6.8,6.8,0,0,1,2.9-4.4,8.7,8.7,0,0,1,4.9-1.2l.6-3.3,4,.8-.7,3.4a7.1,7.1,0,0,1,3.7,3.3,8.1,8.1,0,0,1,.8,5.6l-.2.8-6.7-1.3.2-.8a3.5,3.5,0,0,0-.1-2.1,1.4,1.4,0,0,0-1-.8,1.5,1.5,0,0,0-1.1.2,2.2,2.2,0,0,0-.7,1.2,2.1,2.1,0,0,0,.2,1.4,8,8,0,0,0,1.6,1.5l2.5,1.8a13.4,13.4,0,0,1,2.1,2,8,8,0,0,1,1.1,2.5,5.4,5.4,0,0,1,0,3.1,6.3,6.3,0,0,1-2.8,4.5,8.9,8.9,0,0,1-4.7,1.2Zm-2.1-1.9,1,.2.6-3h.6a6.6,6.6,0,0,0,4.5-.9,5.4,5.4,0,0,0,2.2-3.5,4.9,4.9,0,0,0,0-2.4,7.2,7.2,0,0,0-.9-2,9.8,9.8,0,0,0-1.8-1.7l-2.4-1.8a7.4,7.4,0,0,1-2-1.9,3,3,0,0,1-.4-2.5,3.7,3.7,0,0,1,1.2-2.1,3,3,0,0,1,2.3-.5A2.8,2.8,0,0,1,305,195a4.2,4.2,0,0,1,.3,2.3l3.7.7a6.4,6.4,0,0,0-.7-3.9,6.2,6.2,0,0,0-3.5-2.8l-.6-.2.6-3.2-1-.2-.6,3.1h-.7a7,7,0,0,0-4.6.9,5,5,0,0,0-2.2,3.4,7.2,7.2,0,0,0-.1,2.5,8.2,8.2,0,0,0,.9,1.9,9.8,9.8,0,0,0,1.8,1.7l2.5,1.8a6.8,6.8,0,0,1,2.1,2,3.5,3.5,0,0,1,.3,2.5,3.3,3.3,0,0,1-1.3,2.1,2.9,2.9,0,0,1-2.3.4,3.5,3.5,0,0,1-2.6-1.7,4.4,4.4,0,0,1-.4-2.6l-3.7-.7a6,6,0,0,0,.8,4.2,7.7,7.7,0,0,0,4.2,3l.7.2Z"/></g></g></svg>