<svg xmlns="http://www.w3.org/2000/svg" viewBox="0 0 2930.1 306.4"><defs><style>.e4c35973-5438-4739-b25c-b5826bf462c1{fill:#102e57;}.b3de749e-8fde-4323-8b8d-032df5ee1461{fill:#f8d99b;}</style></defs><g id="b0186f68-4d36-452f-9da9-3c7e53222d2c" data-name="Layer 2"><g id="e6cd1d35-b717-4e76-b2a0-0969fa0adc2e" data-name="Layer 1"><g id="a23f5374-4672-44cb-aab3-9de5e41e9678" data-name="SvgjsG2227"><path class="e4c35973-5438-4739-b25c-b5826bf462c1" d="M216.3,243.3c1.4,3.1,1,6.3-1.1,9.6a9.4,9.4,0,0,1-8.4,4.8H10.4a10.1,10.1,0,0,1-5-1.3A8.8,8.8,0,0,1,1.9,253a9,9,0,0,1-.9-9.7l9.1-21.6A10.4,10.4,0,0,1,14,217a9.5,9.5,0,0,1,5.6-1.7H157L108.6,99.7,69.1,194a9.4,9.4,0,0,1-3.7,4.6,10,10,0,0,1-5.7,1.6H34.9a10.2,10.2,0,0,1-8.8-4.7,12.4,12.4,0,0,1-1.5-4.7,10.3,10.3,0,0,1,.6-5L85,45.4a10.8,10.8,0,0,1,3.7-4.7,9.7,9.7,0,0,1,5.8-1.8h28.3a9.2,9.2,0,0,1,5.7,1.8,10.1,10.1,0,0,1,3.7,4.7Zm102.3-26.6a11,11,0,0,1,5.6,4,10.5,10.5,0,0,1,2.1,6.4v22.7A10.6,10.6,0,0,1,316,260.1a5.1,5.1,0,0,1-2.1-.3,88.8,88.8,0,0,1-47.2-25.4q-26.5-27.2-26.5-71.3V49.5a10.2,10.2,0,0,1,3.1-7.5,9.5,9.5,0,0,1,7.2-3.1h22.7a10.6,10.6,0,0,1,10.6,10.6V163.6c0,18.7,5.3,33,15.9,42.8a41.9,41.9,0,0,0,18.9,10.3ZM420.3,38.9a10.3,10.3,0,0,1,7.6,3.1,10.6,10.6,0,0,1,3.1,7.5V163.1q0,44.1-26.6,71.3a88.4,88.4,0,0,1-47.2,25.4,4.6,4.6,0,0,1-2,.3,10.1,10.1,0,0,1-6.5-2.4c-2.6-1.9-3.8-4.7-3.8-8.2V226.8a9.9,9.9,0,0,1,2-6.1,11.4,11.4,0,0,1,5.6-4,45.6,45.6,0,0,0,18.9-10.3c10.6-9.4,15.9-23.7,15.9-42.8V49.5a10.6,10.6,0,0,1,3.1-7.5,10.2,10.2,0,0,1,7.5-3.1Zm77,0a9.9,9.9,0,0,1,7.5,3.1,10.2,10.2,0,0,1,3.1,7.5V71a10.6,10.6,0,0,1-10.6,10.7H466.9a10.3,10.3,0,0,1-7.2-3.1,10.7,10.7,0,0,1-3.1-7.6V49.5a10.6,10.6,0,0,1,3.1-7.5,9.9,9.9,0,0,1,7.2-3.1Zm131.8,0a9.9,9.9,0,0,1,7.3,3.1,10.6,10.6,0,0,1,3.1,7.5V71a10.7,10.7,0,0,1-3.1,7.6,10.3,10.3,0,0,1-7.3,3.1H569.9V249.2a10.3,10.3,0,0,1-3.1,7.2,9.9,9.9,0,0,1-7.3,3.1H536.8a10.6,10.6,0,0,1-10.6-10.3V49.5a10.6,10.6,0,0,1,3.1-7.5,10.2,10.2,0,0,1,7.5-3.1ZM753,41.3a9.5,9.5,0,0,1,3.5,7.9V71.3a10.4,10.4,0,0,1-2.2,6.7,10.6,10.6,0,0,1-6,3.7,58.8,58.8,0,0,0-32.2,18q-18,18.8-18,49.1t18,49.4a60.1,60.1,0,0,0,32.2,17.6,10.6,10.6,0,0,1,6,3.7,10.4,10.4,0,0,1,2.2,6.7v22.1a10.1,10.1,0,0,1-3.5,7.9,11.3,11.3,0,0,1-6.8,2.4h-1.8q-34.2-5.6-58.6-31-30.7-31.5-30.7-78.5t30.7-79.2c15.9-16.5,35.5-26.8,58.6-30.7a10.3,10.3,0,0,1,8.6,2.1Zm92.6,28.6c20.4,21.4,30.7,47.8,30.7,79.2s-10.3,57.5-30.7,78.5a102,102,0,0,1-58.7,31h-1.8a11,11,0,0,1-6.7-2.4,10.2,10.2,0,0,1-3.6-7.9V226.2a10.2,10.2,0,0,1,8.3-10.4,59.4,59.4,0,0,0,32.1-17.6q18-19.2,18-49.4t-18-49.1a58.2,58.2,0,0,0-32.1-18,10.2,10.2,0,0,1-8.3-10.4V49.2a9.7,9.7,0,0,1,3.7-7.9,9.9,9.9,0,0,1,8.4-2.1c23.2,3.9,42.8,14.2,58.7,30.7Zm272.2,78.4a55.3,55.3,0,0,1,19.3,19.5,50.4,50.4,0,0,1,6.7,25.6c0,22.2-8.5,39.3-25.4,51.1q-17.1,12.3-46.3,15.6h-1.2a9.3,9.3,0,0,1-6.8-2.7,10.1,10.1,0,0,1-3.5-7.6V228.5a10.3,10.3,0,0,1,2.6-6.8,11.3,11.3,0,0,1,6.5-3.5c9.3-1,16.4-3.1,21.6-6.5a17.8,17.8,0,0,0,7.9-9.1,24.3,24.3,0,0,0,1.2-8.3,12.5,12.5,0,0,0-1.2-5.6,12,12,0,0,0-4.1-4.4,79.9,79.9,0,0,0-22.1-10l-4.7-1.5c-9.9-2.8-18.9-5-27.2-6.8l-8.5-2.1-3.3-.8a194.7,194.7,0,0,1-22.4-7.4c-11.6-4.9-21.1-11.1-28.6-18.6s-13-20-13-34.2q0-29.2,22.4-47.5c10.3-8.6,24.6-14.1,43.1-16.5a9.3,9.3,0,0,1,8.1,2.7,10,10,0,0,1,3.4,7.6V70.5a10.2,10.2,0,0,1-2.4,6.7,8.4,8.4,0,0,1-6,3.4,40.5,40.5,0,0,0-7.5,1.7c-5.7,2.1-9.8,4.2-12.1,6.3a19.7,19.7,0,0,0-5,6.3,33.4,33.4,0,0,0-1.5,9.5c0,1.5.9,3.2,2.7,5s6.7,5.2,12,7.4l12.4,4.4,36.9,9.1,1.8.6c9.2,2.6,15.9,4.5,20,5.9a108.8,108.8,0,0,1,24.2,11.5Zm-49.2-66.6a10.8,10.8,0,0,1-5.8-3.7,10.4,10.4,0,0,1-2.2-6.7V49.8a10,10,0,0,1,3.8-7.9,7.3,7.3,0,0,1,3.9-2,13.1,13.1,0,0,1,4.4-.1c17.3,2.7,31.3,8.6,42.2,17.7,14.7,12.2,22.6,27.7,23.5,46.6a9.7,9.7,0,0,1-2.8,7.5,9.5,9.5,0,0,1-7.5,3.4h-23a10,10,0,0,1-6.8-2.7,9.5,9.5,0,0,1-3.2-6.5,27.6,27.6,0,0,0-5-12.6c-4.1-4.9-10.5-8.7-19.2-11.2a1.7,1.7,0,0,1-1.2-.3ZM1034,217a9,9,0,0,1,5.9,3.6,9.9,9.9,0,0,1,2.4,6.5v21.8a10.4,10.4,0,0,1-3.5,7.9,10.7,10.7,0,0,1-6.8,2.4h-1.5q-27.4-4.2-45.1-18-22.9-18.3-26-51a9.3,9.3,0,0,1,2.7-8.1,10.2,10.2,0,0,1,7.7-3.4h23.3a9.6,9.6,0,0,1,7,2.8,10.3,10.3,0,0,1,3.3,6.9c.6,9.9,5.4,17.4,14.4,22.7A59.3,59.3,0,0,0,1034,217Zm154.3-102.6a9.5,9.5,0,0,1-7.2-3.1,9.9,9.9,0,0,1-3.1-7.2V49.2a9.9,9.9,0,0,1,3.1-7.2,9.5,9.5,0,0,1,7.2-3.1h22.4a9.8,9.8,0,0,1,7.4,3.1,10.5,10.5,0,0,1,2.9,7.2v54.9a10.5,10.5,0,0,1-2.9,7.2,9.8,9.8,0,0,1-7.4,3.1Zm160.1-75.5a9.5,9.5,0,0,1,7.2,3.1,9.9,9.9,0,0,1,3.1,7.2V247.4a10.6,10.6,0,0,1-10.3,10.3H1326a9.8,9.8,0,0,1-7.4-3.1,10.1,10.1,0,0,1-2.9-7.2V169.5H1221v77.9a10.1,10.1,0,0,1-2.9,7.2,9.8,9.8,0,0,1-7.4,3.1h-22.4a10.6,10.6,0,0,1-10.3-10.3V137.1a9.7,9.7,0,0,1,3.1-7.2,9.5,9.5,0,0,1,7.2-3.1h127.4V49.2a10.5,10.5,0,0,1,2.9-7.2,9.8,9.8,0,0,1,7.4-3.1ZM1492,41.3a9.6,9.6,0,0,1,3.6,7.9V71.3a10.2,10.2,0,0,1-8.3,10.4,58.2,58.2,0,0,0-32.1,18q-18,18.8-18,49.1t18,49.4a59.4,59.4,0,0,0,32.1,17.6,10.2,10.2,0,0,1,8.3,10.4v22.1a10.2,10.2,0,0,1-3.6,7.9,11,11,0,0,1-6.7,2.4h-1.8a102,102,0,0,1-58.7-31q-30.7-31.5-30.7-78.5t30.7-79.2c15.9-16.5,35.5-26.8,58.7-30.7a10.1,10.1,0,0,1,8.5,2.1Zm92.6,28.6q30.8,32.1,30.7,79.2t-30.7,78.5c-16.3,17-35.8,27.3-58.7,31h-1.7a11.3,11.3,0,0,1-6.8-2.4,10.1,10.1,0,0,1-3.5-7.9V226.2a10.4,10.4,0,0,1,2.2-6.7,10.6,10.6,0,0,1,6-3.7,60.1,60.1,0,0,0,32.2-17.6c12-12.8,17.9-29.3,17.9-49.4s-5.9-36.6-17.9-49.1a58.8,58.8,0,0,0-32.2-18,10.6,10.6,0,0,1-6-3.7,10.4,10.4,0,0,1-2.2-6.7V49.2a9.6,9.6,0,0,1,3.6-7.9,9.9,9.9,0,0,1,8.4-2.1c23.2,3.9,42.8,14.2,58.7,30.7Zm165.5-31c23.4,0,42.2,6.7,56.6,20.2s21.5,31.4,21.5,53.8-7.1,40.3-21.2,53.7-33.1,20.1-56.9,20.1h-56.3v60.1a10.6,10.6,0,0,1-10.4,10.3H1661a9.9,9.9,0,0,1-7.2-3.1,9.5,9.5,0,0,1-3.1-7.2V155.4a9.5,9.5,0,0,1,3.1-7.2,9.9,9.9,0,0,1,7.2-3.1h87.3c13.2,0,22.6-2.9,28.3-8.6s8.6-12.9,8.6-23.3-3-18.4-8.9-24-15.2-8.4-28-8.4H1661a10.3,10.3,0,0,1-7.2-3.1,9.9,9.9,0,0,1-3.1-7.2V49.2A10.6,10.6,0,0,1,1661,38.9Z"/></g><g id="f529bcbb-2c45-4b0f-b020-0317e2e438a6" data-name="SvgjsG2228"><path class="b3de749e-8fde-4323-8b8d-032df5ee1461" d="M2011.2,153.2a59.3,59.3,0,1,0,59.3,59.3A59.4,59.4,0,0,0,2011.2,153.2Zm0,108.7a49.4,49.4,0,1,1,49.4-49.4A49.5,49.5,0,0,1,2011.2,261.9Z"/><path class="b3de749e-8fde-4323-8b8d-032df5ee1461" d="M2011.2,182.8a29.7,29.7,0,1,0,29.7,29.7A29.7,29.7,0,0,0,2011.2,182.8Zm0,49.5a19.8,19.8,0,1,1,19.8-19.8A19.8,19.8,0,0,1,2011.2,232.3Z"/><path class="b3de749e-8fde-4323-8b8d-032df5ee1461" d="M2211.3,91.1a102.8,102.8,0,0,0-13.7-33.2l5.8-11.6-26-26-11.6,5.8a102.8,102.8,0,0,0-33.2-13.7L2128.4,0h-36.7l-4.2,12.4a101.9,101.9,0,0,0-33.2,13.7l-11.6-5.8-26,26,5.8,11.6a102.8,102.8,0,0,0-13.7,33.2l-12.4,4.2v23.3h-3.9l-4.7,18.4a79,79,0,0,0-13.4,5.6l-16.4-9.7-26.4,26.4,9.7,16.3a89.2,89.2,0,0,0-5.6,13.5l-18.4,4.7v37.3l18.4,4.8a92.5,92.5,0,0,0,5.6,13.4l-9.7,16.4,26.4,26.4,16.4-9.7a78.6,78.6,0,0,0,13.4,5.5l4.7,18.5h37.4l4.7-18.5a79.6,79.6,0,0,0,13.5-5.5l16.3,9.7,26.4-26.4-9.7-16.4a82.5,82.5,0,0,0,5.6-13.4l18.4-4.8v-3.8h23.3l4.2-12.4a102.8,102.8,0,0,0,33.2-13.7l11.6,5.8,26-26-5.8-11.6a101.9,101.9,0,0,0,13.7-33.2l12.4-4.2V95.3ZM2095.2,223.5l-16.5,4.2-.8,2.8a66,66,0,0,1-6.8,16.5l-1.4,2.5,8.7,14.6-15.6,15.6-14.6-8.7-2.5,1.4a66,66,0,0,1-16.5,6.8l-2.8.8-4.2,16.5h-22L1996,280l-2.8-.8a67.6,67.6,0,0,1-16.4-6.8l-2.6-1.4-14.6,8.7L1944,264.1l8.7-14.7-1.4-2.5a63.8,63.8,0,0,1-6.8-16.4l-.8-2.8-16.5-4.2v-22l16.5-4.2.8-2.8a64.5,64.5,0,0,1,6.8-16.5l1.4-2.5-8.7-14.6,15.6-15.6,14.6,8.7,2.5-1.4a66,66,0,0,1,16.5-6.8l2.8-.8,4.2-16.5h22l4.2,16.5,2.8.8a66,66,0,0,1,16.5,6.8l2.5,1.4,14.6-8.7,15.6,15.6-8.7,14.6,1.4,2.5a64.5,64.5,0,0,1,6.8,16.5l.8,2.8,16.5,4.2Zm118.6-98.6-11.1,3.7-.5,2.8a93.3,93.3,0,0,1-14.4,34.9l-1.6,2.4,5.2,10.4L2175.5,195l-10.4-5.2-2.4,1.6a94,94,0,0,1-34.9,14.4l-2.8.5-3.7,11.1h-16.2V193.8l-18.4-4.7a80,80,0,0,0-5.6-13.5l9.7-16.3-9.7-9.7,22.6-22.6a14.2,14.2,0,0,0,12.7,0l28.4,28.4a54.6,54.6,0,0,1-48,11l-2.4,9.6a63.4,63.4,0,0,0,15.6,1.9,64.2,64.2,0,1,0-62.1-47.9l9.6-2.5a54.2,54.2,0,0,1,10.8-48.6l28.4,28.4a14.2,14.2,0,0,0,0,12.7l-22.6,22.6-9.7-9.7-16.3,9.7a80,80,0,0,0-13.5-5.6l-4.7-18.4h-23.6V102.4l11-3.7.6-2.8A92.3,92.3,0,0,1,2032.3,61l1.6-2.3-5.2-10.5,15.9-15.9,10.4,5.2,2.4-1.6a92.8,92.8,0,0,1,34.8-14.4l2.9-.5,3.7-11.1h22.5L2125,21l2.8.5a94,94,0,0,1,34.9,14.4l2.4,1.6,10.4-5.2,15.9,15.9-5.2,10.4,1.6,2.4a94,94,0,0,1,14.4,34.9l.5,2.8,11.1,3.7Zm-62,23.5L2123.4,120a14.2,14.2,0,0,0,0-12.7l28.4-28.4a54.2,54.2,0,0,1,0,69.5Zm-46.7-34.7a5,5,0,1,1,4.9,4.9A4.9,4.9,0,0,1,2105.1,113.7Zm11.3-13.4a14.2,14.2,0,0,0-12.7,0l-28.4-28.4a54.2,54.2,0,0,1,69.5,0Z"/><path class="b3de749e-8fde-4323-8b8d-032df5ee1461" d="M2110,29.6a84.2,84.2,0,0,0-83.8,78.6l9.9.6a74.1,74.1,0,1,1,78.6,78.8l.6,9.9A84,84,0,0,0,2110,29.6Z"/><rect class="b3de749e-8fde-4323-8b8d-032df5ee1461" x="2213.8" y="286.6" width="9.9" height="9.88"/><polygon class="b3de749e-8fde-4323-8b8d-032df5ee1461" points="2141.7 276.7 2095.2 276.7 2095.2 286.6 2137.6 286.6 2147.5 296.5 2203.9 296.5 2203.9 286.6 2151.6 286.6 2141.7 276.7"/><rect class="b3de749e-8fde-4323-8b8d-032df5ee1461" x="2194" y="257" width="9.9" height="9.88"/><polygon class="b3de749e-8fde-4323-8b8d-032df5ee1461" points="2184.2 266.8 2184.2 257 2151.6 257 2141.7 247.1 2095.2 247.1 2095.2 257 2137.6 257 2147.5 266.8 2184.2 266.8"/><rect class="b3de749e-8fde-4323-8b8d-032df5ee1461" x="1917.3" y="14.8" width="9.9" height="9.88"/><polygon class="b3de749e-8fde-4323-8b8d-032df5ee1461" points="1979.5 34.6 2016.1 34.6 2016.1 24.7 1983.6 24.7 1973.7 14.8 1937.1 14.8 1937.1 24.7 1969.6 24.7 1979.5 34.6"/><rect class="b3de749e-8fde-4323-8b8d-032df5ee1461" x="1937.1" y="44.5" width="9.9" height="9.88"/><polygon class="b3de749e-8fde-4323-8b8d-032df5ee1461" points="1956.8 44.5 1956.8 54.4 1974.6 54.4 1984.5 64.2 2006.3 64.2 2006.3 54.4 1988.5 54.4 1978.7 44.5 1956.8 44.5"/></g><g id="ae438375-60af-402f-9655-a781fae8ab9a" data-name="SvgjsG2229"><path class="e4c35973-5438-4739-b25c-b5826bf462c1" d="M2412.9,38.8q35.3,0,56.8,20.3t21.6,54c0,22.4-7.1,40.4-21.3,53.8s-33.2,20.1-57.1,20.1h-56.5v60.4a10.6,10.6,0,0,1-10.4,10.3h-22.4a10.6,10.6,0,0,1-10.4-10.3V155.7a10.6,10.6,0,0,1,10.4-10.4h87.5c13.2,0,22.7-2.9,28.4-8.6s8.6-12.9,8.6-23.3-3-18.5-8.9-24.2-15.3-8.4-28.1-8.4h-87.5a10.6,10.6,0,0,1-10.4-10.3V49.2a10.6,10.6,0,0,1,10.4-10.4Zm303.2,205c1.4,3.2,1,6.4-1,9.6a9.6,9.6,0,0,1-8.5,4.9h-197a9.8,9.8,0,0,1-5-1.3,9.1,9.1,0,0,1-3.6-3.4,9.4,9.4,0,0,1-.8-9.8l9.1-21.6a10,10,0,0,1,3.9-4.7,9.6,9.6,0,0,1,5.6-1.8h137.8L2608.1,99.8l-39.6,94.6a9.4,9.4,0,0,1-3.7,4.6,10.3,10.3,0,0,1-5.8,1.6h-24.8a10.3,10.3,0,0,1-8.9-4.7,12.4,12.4,0,0,1-1.5-4.7,10.9,10.9,0,0,1,.6-5.1l60.1-140.8a10.1,10.1,0,0,1,3.7-4.7,9.4,9.4,0,0,1,5.7-1.8h28.4a9.7,9.7,0,0,1,5.8,1.8,10.1,10.1,0,0,1,3.7,4.7ZM2928.8,44.4a10.4,10.4,0,0,1,1.3,5.7,9.5,9.5,0,0,1-1.9,5.3l-81.9,118.3v76a10.6,10.6,0,0,1-10.4,10.4h-22.8a10.6,10.6,0,0,1-7.5-3.1,9.9,9.9,0,0,1-3.1-7.3V163.1a10.4,10.4,0,0,1,2.1-6l78.9-113.9a12.6,12.6,0,0,1,3.7-3.2,10.2,10.2,0,0,1,4.9-1.2h27.5a10.6,10.6,0,0,1,5.5,1.5A9.2,9.2,0,0,1,2928.8,44.4Zm-124.5,65.1a9.5,9.5,0,0,1-3.7,4.2,11.5,11.5,0,0,1-5.5,1.4h-27.5a10.8,10.8,0,0,1-8.9-4.4l-38.5-55.3a12.1,12.1,0,0,1-1.6-5.3,12.4,12.4,0,0,1,1.1-5.7,8.9,8.9,0,0,1,3.6-4.1,10.8,10.8,0,0,1,5.5-1.5h27.8c3.4,0,6.2,1.5,8.6,4.4l38.5,55.4a11.4,11.4,0,0,1,1.6,5.3,13.3,13.3,0,0,1-1,5.6Z"/></g></g></g></svg>