<svg xmlns="http://www.w3.org/2000/svg" viewBox="0 0 148.3 15.5"><defs><style>.ffc2135d-2027-4acd-88fc-8e2a86c32cab{fill:#182f57;}.a003a19f-c580-46f5-b50a-1d3f34d457a1{fill:#f8d99c;}</style></defs><g id="ec6ac238-727a-4573-bd48-62edbcd1965f" data-name="Layer 2"><g id="aac4c8fa-3c37-4ada-851b-ec71a0521598" data-name="Artwork"><g id="af3257cd-0131-4f16-8cbe-4b5cbb0f4a5d" data-name="SvgjsG2227"><path class="ffc2135d-2027-4acd-88fc-8e2a86c32cab" d="M10.9,12.3a.5.5,0,0,1,0,.5.4.4,0,0,1-.4.2H.3l-.2-.2a.5.5,0,0,1,0-.5l.4-1.1L.7,11H7.9L5.5,5l-2,4.8-.2.3H1.8c-.2,0-.4,0-.5-.2s0-.2-.1-.2a.4.4,0,0,1,.1-.3l3-7.1.2-.2h2l.2.2ZM16.1,11l.3.2a.4.4,0,0,1,.1.3v1.1a.5.5,0,0,1-.2.4l-.3.2h-.1a4.6,4.6,0,0,1-2.4-1.2,5.2,5.2,0,0,1-1.3-3.6V2.5a.6.6,0,0,1,.1-.4h1.9a.8.8,0,0,1,.2.4V8.3a2.5,2.5,0,0,0,.8,2.1,1.8,1.8,0,0,0,.9.6Zm5.2-9h.4a.6.6,0,0,1,.1.4V8.3a5.2,5.2,0,0,1-1.3,3.6,4.6,4.6,0,0,1-2.4,1.2H18l-.4-.2c-.1-.1-.1-.2-.1-.4V11.5a.4.4,0,0,1,.1-.3.2.2,0,0,1,.2-.2,2.1,2.1,0,0,0,1-.6,2.7,2.7,0,0,0,.8-2.1V2.5a.8.8,0,0,1,.2-.4h1.5Zm3.9,0h.3a.4.4,0,0,1,.2.4V3.6a.4.4,0,0,1-.2.4H23.3a.8.8,0,0,1-.2-.4V2.5a.8.8,0,0,1,.2-.4h1.9Zm6.6,0h.4a.8.8,0,0,1,.2.4V3.6a.8.8,0,0,1-.2.4H28.8v8.5a.6.6,0,0,1-.1.4H26.8a.8.8,0,0,1-.2-.4V2.5a.8.8,0,0,1,.2-.4h5Zm6.3.1a.5.5,0,0,1,.2.4V3.6a1,1,0,0,1-.1.3l-.3.2a4.6,4.6,0,0,0-1.7.9,3.7,3.7,0,0,0-.9,2.5,3.5,3.5,0,0,0,.9,2.5,2.8,2.8,0,0,0,1.7.9l.3.2v1.5a.8.8,0,0,1-.2.4h-.4a4.9,4.9,0,0,1-3-1.6,5.5,5.5,0,0,1-1.5-4,5.9,5.9,0,0,1,1.5-4,5.4,5.4,0,0,1,3-1.5Zm4.7,1.4a5.9,5.9,0,0,1,1.5,4,5.5,5.5,0,0,1-1.5,4,4.9,4.9,0,0,1-3,1.6h-.4a.8.8,0,0,1-.2-.4V11.4a.4.4,0,0,1,.1-.3l.3-.2a2.8,2.8,0,0,0,1.7-.9,3.5,3.5,0,0,0,.9-2.5A3.7,3.7,0,0,0,41.3,5a4.6,4.6,0,0,0-1.7-.9l-.3-.2c-.1,0-.1-.2-.1-.3V2.5a.5.5,0,0,1,.2-.4h.4a5.4,5.4,0,0,1,3,1.5Zm13.8,4a2.8,2.8,0,0,1,.9,1,2,2,0,0,1,.4,1.3,2.9,2.9,0,0,1-1.3,2.6,5.2,5.2,0,0,1-2.3.8h-.1l-.3-.2c-.2-.1-.2-.2-.2-.4v-1c0-.2,0-.3.1-.4l.3-.2a1.6,1.6,0,0,0,1.1-.3l.4-.4a.9.9,0,0,0,.1-.5c0-.1,0-.2-.1-.2l-.2-.3-1.1-.5h-.2l-1.4-.3h-.6L51,7.9a5.6,5.6,0,0,1-1.5-1,2.4,2.4,0,0,1-.6-1.7A2.8,2.8,0,0,1,50,2.8,4.1,4.1,0,0,1,52.2,2c.1-.1.3,0,.4.1s.1.2.1.4V3.6a.4.4,0,0,1-.1.3l-.3.2h-.4l-.6.3-.2.3a.9.9,0,0,0-.1.5c0,.1,0,.1.1.2l.6.4.7.2,1.8.5h.1l1,.3,1.3.6ZM54.1,4.1l-.3-.2c-.1,0-.1-.2-.1-.3V2.5a.4.4,0,0,1,.2-.4h.4a5.1,5.1,0,0,1,2.1.9,2.9,2.9,0,0,1,1.2,2.4.4.4,0,0,1-.1.3.4.4,0,0,1-.4.2H55.6l-.2-.3a1.4,1.4,0,0,0-.2-.7l-1-.6ZM52.3,11l.3.2a.4.4,0,0,1,.1.3v1.1c0,.2,0,.3-.1.4h-.4a4,4,0,0,1-2.3-.9,3.5,3.5,0,0,1-1.3-2.6c-.1-.1,0-.3.1-.4a.5.5,0,0,1,.4-.2h1.2l.3.2.2.3a1.5,1.5,0,0,0,.7,1.2l.8.3Zm7.8-5.2-.3-.2c-.1-.1-.2-.2-.2-.3V2.5a.8.8,0,0,1,.2-.4h1.8a.8.8,0,0,1,.2.4V5.3c0,.1-.1.2-.2.3l-.3.2ZM68.2,2h.4a.8.8,0,0,1,.2.4v10a.5.5,0,0,1-.2.4H66.7c-.1-.1-.1-.2-.1-.4V8.6H61.8v3.9a.5.5,0,0,1-.2.4H59.8a.5.5,0,0,1-.2-.4V6.9c0-.1.1-.2.2-.3l.3-.2h6.5V2.5a.6.6,0,0,1,.1-.4h1.5Zm7.3.1a.5.5,0,0,1,.2.4V3.6c0,.1,0,.3-.1.3l-.3.2a4.6,4.6,0,0,0-1.7.9,3.7,3.7,0,0,0-.9,2.5,3.5,3.5,0,0,0,.9,2.5,2.8,2.8,0,0,0,1.7.9l.3.2a.4.4,0,0,1,.1.3v1.2l-.2.4h-.4a4.9,4.9,0,0,1-3-1.6,5.5,5.5,0,0,1-1.5-4,5.9,5.9,0,0,1,1.5-4,5.4,5.4,0,0,1,3-1.5Zm4.7,1.4a5.9,5.9,0,0,1,1.5,4,5.5,5.5,0,0,1-1.5,4,4.9,4.9,0,0,1-3,1.6h-.4l-.2-.4V11.4a.4.4,0,0,1,.1-.3l.3-.2a2.8,2.8,0,0,0,1.7-.9,3.5,3.5,0,0,0,.9-2.5A3.7,3.7,0,0,0,78.7,5,4.6,4.6,0,0,0,77,4.1l-.3-.2c-.1,0-.1-.2-.1-.3V2.5a.5.5,0,0,1,.2-.4h.4a5.4,5.4,0,0,1,3,1.5ZM88.6,2a3.7,3.7,0,0,1,2.8,1,3.3,3.3,0,0,1,1.1,2.7,3.2,3.2,0,0,1-1.1,2.7,3.7,3.7,0,0,1-2.8,1H85.7v3.1a.6.6,0,0,1-.1.4H83.7a.8.8,0,0,1-.2-.4V7.9a.5.5,0,0,1,.2-.4l.4-.2h4.4a2,2,0,0,0,1.4-.4c.3-.2.4-.6.4-1.2a1.6,1.6,0,0,0-.4-1.2,2,2,0,0,0-1.4-.4H84.1l-.4-.2c-.1-.1-.2-.2-.2-.3V2.5a.8.8,0,0,1,.2-.4h4.9Z"/></g><g id="a74d60f5-b223-49b6-b0a6-6cef7f25ac9e" data-name="SvgjsG2228"><path class="a003a19f-c580-46f5-b50a-1d3f34d457a1" d="M101.8,7.8a2.9,2.9,0,0,0-3,3,3,3,0,0,0,3,3,3.1,3.1,0,0,0,3-3A3,3,0,0,0,101.8,7.8Zm0,5.5a2.5,2.5,0,0,1-2.5-2.5,2.5,2.5,0,1,1,5,0A2.5,2.5,0,0,1,101.8,13.3Z"/><path class="a003a19f-c580-46f5-b50a-1d3f34d457a1" d="M101.8,9.3a1.5,1.5,0,0,0-1.5,1.5,1.5,1.5,0,0,0,3,0A1.5,1.5,0,0,0,101.8,9.3Zm0,2.5a1,1,0,0,1-1-1,.9.9,0,0,1,1-1,1,1,0,0,1,1,1A1.1,1.1,0,0,1,101.8,11.8Z"/><path class="a003a19f-c580-46f5-b50a-1d3f34d457a1" d="M111.9,4.6a5.1,5.1,0,0,0-.7-1.7l.3-.6L110.2,1l-.6.3L107.9.6l-.2-.6h-1.8l-.3.6-1.6.7-.6-.3-1.3,1.3.3.6a3.6,3.6,0,0,0-.7,1.7l-.7.2V6h-.2l-.2.9-.7.3-.8-.5L97.8,8.1l.4.8a1.4,1.4,0,0,0-.2.7l-1,.2v1.9l1,.2a1.4,1.4,0,0,0,.2.7l-.4.8,1.3,1.4.8-.5.7.3.2.9h1.9l.3-.9.6-.3.9.5,1.3-1.4-.5-.8.3-.7.9-.2v-.2h1.2l.2-.6,1.7-.7.6.3,1.3-1.3-.3-.6a5.1,5.1,0,0,0,.7-1.7l.6-.2V4.8ZM106,11.3l-.8.2v.2l-.4.8h-.1l.5.8-.8.8-.7-.5h-.2a1.9,1.9,0,0,1-.8.3h-.1l-.3.8h-1.1l-.2-.8h-.1a3.2,3.2,0,0,1-.9-.3h-.1l-.7.5-.8-.8.4-.8h-.1l-.3-.8v-.2l-.9-.2V10.2l.9-.2V9.8l.3-.8h.1l-.4-.8.8-.7.7.4h.1l.9-.3h.1l.2-.8h1.1l.3.8h.1l.8.3h.2l.7-.4.8.7-.5.8h.1l.4.8V10l.8.2Zm6-5-.5.2v.2a3.6,3.6,0,0,1-.7,1.7h-.1l.3.6-.8.8-.5-.3h-.2a5.1,5.1,0,0,1-1.7.7h-.2V11h-.9V9.8l-.9-.2-.3-.7.5-.8-.5-.5,1.2-1.2h.6l1.4,1.5a2.4,2.4,0,0,1-1.7.6h-.7v.5h.8a3.3,3.3,0,0,0,0-6.5,3.3,3.3,0,0,0-3.3,3.3c0,.2.1.5.1.8h.5c0-.3-.1-.5-.1-.7a2.9,2.9,0,0,1,.7-1.8l1.4,1.4c0,.1-.1.2-.1.4s.1.2.1.3L105,7.2l-.5-.5-.9.5-.6-.3-.3-.9h-1.2V5.2l.6-.2h0a4.8,4.8,0,0,1,.7-1.8h.1l-.2-.6.8-.8.5.3h.1a5.6,5.6,0,0,1,1.8-.7h.1l.2-.6h1.2v.6h.2a5.1,5.1,0,0,1,1.7.7h.2l.5-.3.8.8-.3.6h.1a3.6,3.6,0,0,1,.7,1.8h.1l.5.2Zm-3.1,1.2-1.4-1.4V5.4L108.9,4a2.8,2.8,0,0,1,.6,1.8A2.7,2.7,0,0,1,108.9,7.5Zm-2.4-1.7a.3.3,0,0,1,.3-.3c.1,0,.2.1.2.3a.2.2,0,0,1-.2.2C106.6,6,106.5,5.9,106.5,5.8Zm.6-.7h-.6L105,3.6a2.8,2.8,0,0,1,1.8-.6,2.4,2.4,0,0,1,1.7.6Z"/><path class="a003a19f-c580-46f5-b50a-1d3f34d457a1" d="M106.8,1.5a4.3,4.3,0,0,0-4.3,4h.5A3.8,3.8,0,0,1,106.8,2a3.7,3.7,0,0,1,3.7,3.8A3.7,3.7,0,0,1,107,9.5V10a4.2,4.2,0,0,0,4-4.2A4.2,4.2,0,0,0,106.8,1.5Z"/><rect class="a003a19f-c580-46f5-b50a-1d3f34d457a1" x="112" y="14.5" width="0.5" height="0.5"/><polygon class="a003a19f-c580-46f5-b50a-1d3f34d457a1" points="108.4 14 106 14 106 14.5 108.2 14.5 108.7 15 111.5 15 111.5 14.5 108.9 14.5 108.4 14"/><rect class="a003a19f-c580-46f5-b50a-1d3f34d457a1" x="111" y="13" width="0.5" height="0.5"/><polygon class="a003a19f-c580-46f5-b50a-1d3f34d457a1" points="110.5 13.5 110.5 13 108.9 13 108.4 12.5 106 12.5 106 13 108.2 13 108.7 13.5 110.5 13.5"/><rect class="a003a19f-c580-46f5-b50a-1d3f34d457a1" x="97" y="0.8" width="0.5" height="0.5"/><polygon class="a003a19f-c580-46f5-b50a-1d3f34d457a1" points="100.2 1.8 102 1.8 102 1.3 100.4 1.3 99.9 0.8 98 0.8 98 1.3 99.7 1.3 100.2 1.8"/><rect class="a003a19f-c580-46f5-b50a-1d3f34d457a1" x="98" y="2.3" width="0.5" height="0.5"/><polygon class="a003a19f-c580-46f5-b50a-1d3f34d457a1" points="99 2.3 99 2.8 99.9 2.8 100.4 3.3 101.5 3.3 101.5 2.8 100.6 2.8 100.1 2.3 99 2.3"/></g><g id="bb81552f-82ee-4c68-8347-67c414aaef96" data-name="SvgjsG2229"><path class="ffc2135d-2027-4acd-88fc-8e2a86c32cab" d="M122.1,2A3.9,3.9,0,0,1,125,3a3.7,3.7,0,0,1,1.1,2.7A3.4,3.4,0,0,1,125,8.4a4,4,0,0,1-2.9,1.1h-2.8v3a.5.5,0,0,1-.2.4h-1.9c-.1-.1-.1-.2-.1-.4V7.9c0-.2,0-.3.1-.4H122a2.1,2.1,0,0,0,1.5-.5,1.7,1.7,0,0,0,.4-1.2,1.7,1.7,0,0,0-.5-1.2,1.8,1.8,0,0,0-1.4-.4h-4.4l-.4-.2a.4.4,0,0,1-.1-.3V2.5c0-.2,0-.3.1-.4h4.9Zm15.4,10.3a.7.7,0,0,1-.1.5c-.1.2-.2.3-.4.3H126.8l-.2-.2a.4.4,0,0,1-.1-.5l.5-1.1.2-.2h7.2L132,5l-2,4.8-.2.3h-1.6a.5.5,0,0,1-.4-.3c0-.1-.1-.1-.1-.2a.4.4,0,0,1,.1-.3l3-7.1a.2.2,0,0,1,.2-.2h2c.1,0,.1.1.2.2ZM148.2,2.2a.4.4,0,0,1,.1.3c0,.1-.1.2-.1.3l-4.2,6v3.8c0,.2,0,.3-.1.4l-.4.2h-1.1a.7.7,0,0,1-.6-.6V8.3c0-.1.1-.2.1-.3l4-5.8.2-.2H148Zm-6.3,3.3-.2.3h-1.6c-.2,0-.4,0-.5-.2l-1.9-2.8a.4.4,0,0,1-.1-.3V2.2l.2-.2h1.7c.2,0,.3,0,.4.2l2,2.8v.3c0,.1,0,.2-.1.2Z"/></g></g></g></svg>