<svg xmlns="http://www.w3.org/2000/svg" viewBox="0 0 289.5 287.9"><defs><style>.ab40060d-02e1-444a-acb7-9fcb93e2d46f{fill:#182f57;}.af1d5bf7-65d9-44c6-b2f7-52ebb33114fc{fill:#9abbe3;}.b7fbc872-0782-4381-85d7-5677e383a8ab{fill:#fff;}.b3b802a1-5bd2-41af-a3ca-5616edd31dad{fill:#fdfdfd;}</style></defs><g id="a1f0f944-2796-4b0b-b406-1757ccf19ef8" data-name="Layer 2"><g id="b7413e55-360e-41e7-8052-c723757ea19d" data-name="Artwork"><path class="ab40060d-02e1-444a-acb7-9fcb93e2d46f" d="M154.6,108.3h-.2Z"/><path class="ab40060d-02e1-444a-acb7-9fcb93e2d46f" d="M83,129h22.7c-.2.6-.7.7-1.1.9-8.5,4.7-14.5,11.4-16.4,21.2a21.2,21.2,0,0,0,1.7,13.8c3.3,6.7,6.5,13.5,9.8,20.2a2.6,2.6,0,0,1-.4,3.2C87.2,202.1,75.2,216,63.2,229.8c-2.8,3.2-2.4,2.5.3,5l1.3.9a23.1,23.1,0,0,1-9.9,2.2,194.8,194.8,0,0,1-21.6-.6c-8.1-.8-15.2,3.3-18.3,10.2-.7,1.5-.6,2.3,1,3,12.6,5.8,25.2,11.7,37.6,17.7,3.2,1.6,6.3,1.5,9.6,1.2l21.1-1.5-3.3,7c-2.5,4.9-2.5,4.9,2.5,7.3l6.7,3.2.3.2c-.5.4-.9.2-1.4.2H.7a1.1,1.1,0,0,0,0,2H288.3c.7,0,1.2-.3,1.2-1s-.5-1-1.2-1h-3.6c-2.6-.1-2.6-.1-3-2.6-.8-5.9-1.7-11.8-2.6-17.8-1.7-10.5-3.3-21.1-4.9-31.7l-4.8-31.9c-.9-5.5-1.7-11.1-2.6-16.8h3.7a4.1,4.1,0,0,0,4.4-3.6c.2-.8.3-1.6.5-2.3q6.6-33.7,13.4-67.3a13.1,13.1,0,0,0-10.5-15.6c-2.4-.5-4.9-.2-7.3-.2v1.8a38.4,38.4,0,0,1,6.8.2,11.1,11.1,0,0,1,9.2,13.3q-6.6,33-13.1,66.2c-.4,1.6-.9,2.1-2.7,2.1-8.6-.1-17.2,0-25.8-.2,10.1-3.9,17.5-10.7,21.3-21-1.2.4-1.8,1.5-2.9,2-3.1,7.2-8.4,12.2-15.4,15.6a27.8,27.8,0,0,1-13,2.9l-48.9-.3h-1.4l3.5-4.1c.5-.6,1.4-1.3.4-2.1s-1.3.3-1.8.8l-34.7,40.8c-15.4,18-30.7,36.1-46.1,54.2-.7.9-1.1.8-1.9.1q-19.9-17.7-40.1-35.2c-1.1-1-.5-1.4.1-2.1C73.3,221,82,210.9,90.8,200.9q26.3-30.5,52.6-60.7a27.2,27.2,0,0,1,20.3-9.7l3.2-.2a6.6,6.6,0,0,1,3.4.5c2.3,1,4.6.4,6.9-.1l5.9-1.4a10.2,10.2,0,0,1,4.6.1,2.1,2.1,0,0,1,1.7,1.4,17,17,0,0,0,10.9,9.7,16.4,16.4,0,0,0,11.7-1.7c5.4-3.2,8.3-8,9-14.3a18.6,18.6,0,0,0-3.2-12.9c.8-.3,1.3.2,1.9.5l17.2,7.9c1.4.6,2,.5,2.2-1.2.5-4.2,1.1-8.3,1.7-12.5.2-1.4.3-2.7.5-4.1s.5-1.7-.6-1.8-.9.8-1,1.5c-.7,5.4-1.5,10.8-2.2,16.4l-14.6-6.6-11.7-5.4a13.9,13.9,0,0,0-9.6-.9c-1.9.5-3.3-.6-4.9-1.1s-.5-.5-.4-1c.4-2.2.9-4.4,1.2-6.6.1-.7.5-1.6-.6-1.8s-1,.8-1.1,1.5-.7,4.2-1.1,6.4c-.1.6-.2.8-.9.6l-8.8-2.1-5.3-.7c-2.5-.2-5.2,0-7.5-.7-6.6-2.3-13.1-5-19.6-7.4a1.6,1.6,0,0,1-1-1.5l-1.2-7.8c-1-7-3.3-9-10.4-9H92.5c-3,0-6-.1-9,0-5,.1-8.6,4.1-8,8.7.3,2.6.7,5.1,1.1,7.6,1.8,11.6,3.5,23.1,5.3,34.6Zm135.9-10.7c2.1,8.2-2.2,17-9.8,19.9a13.3,13.3,0,0,1-16.9-6.7L194,133c6.9,6.8,16.6,3.3,20.6-3.6a15.1,15.1,0,0,0-7.9-21.7l-2-.7C211.4,106.6,217.1,111.2,218.9,118.3Zm-46.4-16.2c10.2,0,19.9,2.3,29.4,5.9,1.8.7,3.7,1.2,5.5,2,6.1,2.6,8.1,8.9,7,15a12.5,12.5,0,0,1-12.3,9.8,10.1,10.1,0,0,1-6.5-2.8,16.6,16.6,0,0,0-8.9-4.6c-2.9-.4-5.6.4-8.3,1.1a21.1,21.1,0,0,1-6.1,1c-1.1-.1-2-.4-2.3-1.5s.3-1.7,1-2.2c2.9-2.2,6.1-3.5,9.3-5l1.3-.6c.5-.2,1-.5.9-1.2s-.8-.7-1.4-.7l-10-.4a23.6,23.6,0,0,1-7.4-1.4c-.8-.3-1.7-.6-1.7-1.8s.6-1.7,1.5-2.2a17,17,0,0,1,6.3-1.4l7.7-.2c.6-.1,1.5.1,1.6-.8s-.8-1-1.5-1.2l-12.7-2.1-1.2-.3a1.6,1.6,0,0,1-1.3-1.4,1.6,1.6,0,0,1,1-1.7,11.5,11.5,0,0,1,4.8-1.3Zm-5-2c-1.2.7-2.4.6-3.5,1s-3.5,2.1-3.4,4,1.1,2.8,3.7,3.5a21.4,21.4,0,0,1,3.2.8,23.2,23.2,0,0,0-4.5,1.3c-1.7.9-2.9,2.1-2.9,4.2s1.5,2.8,3.2,3.4c3.4,1.3,7.1,1.3,10.7,1.6l2.2.2c-2.9,1.5-5.7,1.7-8.6,2a29.8,29.8,0,0,1-9.4-.5c-1.5-.4-2.3-.9-2.4-2.6-.4-3.3-1-6.5-1.5-9.7,0-.3-.1-.6,0-.8h.2a.1.1,0,0,1,.1-.1h0c1.4,1.9,3.4,2,5.5,1.7.5-.1.9-.4.8-1s-.5-.8-1.1-.8c-4.2-.3-5.8-1.7-6.5-6-.4-2.1-.7-4.2-1-6.3-.1-.4-.1-.8-.2-1.5ZM85.9,127c-1.6,0-2.1-.3-2.3-2-1.5-10.7-3.2-21.4-4.8-32.1-.6-3.3-1.1-6.7-1.6-10.1A6.1,6.1,0,0,1,83.3,76H141c4.7,0,6.7,1.6,7.4,6.3,1.9,11.6,3.6,23.1,5.3,34.7.3,1.8.6,3.6.8,5.4s.6,1.8,2.1,1.8h13.1c-1,2.8-3.1,3-5.6,3Zm4.8,34.7a15,15,0,0,1-1-6.6c.2-9,4.7-15.7,11.6-20.9a24,24,0,0,1,15.6-5.3c13.1.3,26.2.1,39.4.1h1.9a33,33,0,0,0-13.3,7.1c-3.7,3.4-6.7,7.4-10,11.1l-32.4,37.3a9.1,9.1,0,0,0-.6,1.1C98.1,177.3,94,169.7,90.7,161.7Zm40,80.6,34.8-40.7,5.3-6.2c.8.5.9,1.3,1.2,2,5.3,11.4,10.5,22.8,15.7,34.1.6,1.3.4,1.7-.8,2.1l-50.3,20.2c-1.3.6-1.9.5-2.5-.9s-2.4-5.3-3.7-7.9A2.1,2.1,0,0,1,130.7,242.3ZM94.1,285.1c-3.9-1.9-7.9-3.8-12-5.6-1-.4-.9-.9-.5-1.7l4.7-9.6c.9-2,.7-2.3-1.5-2.2l-22.2,1.6a15.7,15.7,0,0,1-9-1.5c-11.8-5.7-23.7-11.2-35.6-16.7-1.3-.6-1.4-1.2-.7-2.4a16,16,0,0,1,13.9-8c7.1.7,14.1.8,21.2.8a32.2,32.2,0,0,0,13-2.3,1.4,1.4,0,0,1,1.7.4L102,268.6c.8.6.8,1.1.4,2l-6.6,13.9C95.4,285.3,95.1,285.6,94.1,285.1Zm15.1-.3c0,.8-.2,1.1-1,1.1h-11c2.4-4.9,4.6-9.6,6.8-14.3.2-.4.4-.7.8-.4s1.7,0,2.3-.8c6.8-7.9,13.5-15.9,20.2-23.8l1.1-1.3,4.7,9.8c.5,1.1.9,2.4,2.8,1a15.7,15.7,0,0,1-5.7,7.7,28.2,28.2,0,0,1-7.8,3.8c-6.3,2.1-10.9,5.9-12.7,12.5A15.7,15.7,0,0,0,109.2,284.8Zm45,.7c-13.8-.1-27.7-.1-41.5,0-1.5,0-1.8-.5-1.7-1.8.6-7.2,4.4-11.7,11-14.1,3.7-1.3,7.4-2.7,10.4-5.4a16.1,16.1,0,0,0,5.4-7.9,2.1,2.1,0,0,1,1.4-1.6l40.2-16.1.7-.3c.7,0,.7.5.9.8l12.6,27.7c.3.7.2,1-.5,1.3l-12.4,5.6c-.9.5-1.2.2-1.5-.6l-4.2-9.5c-.3-.7-.4-1.7-1.3-1.8s-1.2.8-1.6,1.4c-5.2,7-10.4,14-15.5,21.1A2.6,2.6,0,0,1,154.2,285.5Zm36.9.4H158.6l-.7-.2,15.5-21.1,4.4,10.1c.6,1.5,1.3,2,2.9,1.2l14-6.4c1.4-.6,1.6-1.2,1-2.6-4.3-9.2-8.5-18.5-12.7-27.8-.6-1.2-.6-1.8.8-2.2a45.2,45.2,0,0,0,4.7-1.8c2.4-.9,2.4-1,1.3-3.3L173,195.1c-.5-1.1-.6-1.8.3-2.7a21.2,21.2,0,0,0,3.4-3.9c1.8-2.9,4.2-3.5,7.5-3.5,11,.2,22,.1,33.1.1,1.5,0,1.7.3,1.3,1.8q-13,48.8-26,97.6C192.4,285.3,192.2,285.9,191.1,285.9Zm87.4,0H196c-1.4,0-1.8-.2-1.4-1.8q13.1-48.8,26-97.5c.3-1.1.7-1.5,1.9-1.5h40.8c1.4,0,1.7.5,1.9,1.6l3.6,24.5c1.7,10.6,3.3,21.3,4.9,31.9l4.8,31.7c.5,3.1.9,6.3,1.5,9.4C280.3,285.6,279.9,285.9,278.5,285.9Z"/><path class="ab40060d-02e1-444a-acb7-9fcb93e2d46f" d="M200.3,140.5a16.4,16.4,0,0,0,11.7-1.7c5.4-3.2,8.3-8,9-14.3a18.6,18.6,0,0,0-3.2-12.9c.8-.3,1.3.2,1.9.5l17.2,7.9c1.4.6,2,.5,2.2-1.2.5-4.2,1.1-8.3,1.7-12.5.2-1.4.3-2.7.5-4.1s.5-1.7-.6-1.8-.9.8-1,1.5c-.7,5.4-1.5,10.8-2.2,16.4l-14.6-6.6-11.7-5.4a13.9,13.9,0,0,0-9.6-.9c-1.9.5-3.3-.6-4.9-1.1s-.5-.5-.4-1c.4-2.2.9-4.4,1.2-6.6.1-.7.5-1.6-.6-1.8s-1,.8-1.1,1.5-.7,4.2-1.1,6.4c-.1.6-.2.8-.9.6l-8.8-2.1c4.7-7.7,9.3-15.5,14.1-23.1s9.9-9.5,17.4-9.9h3c.1.9.3,1.8.4,2.7a12.2,12.2,0,0,0,10.1,11,12.4,12.4,0,0,0,13.3-6.4c1.5-2.6,1.4-5.4,1.6-8.3,2.9.3,5.8-.1,8.7.6,7.6,2,12.6,6.7,15.3,14a32,32,0,0,1,1.8,11.8,4.3,4.3,0,0,0,.3,2.5v1.8c0,.6-.1,1.1-.1,1.6.3,16.2.6,32.4.5,48.6a14.7,14.7,0,0,1-1.1,4.7c-.8,2.1-2.4,3.8-3.6,5.7s-1.8,1.5-2.9,2a18,18,0,0,1-17.4.7l-22.1-9.9Z"/><path class="ab40060d-02e1-444a-acb7-9fcb93e2d46f" d="M244.9,67.2c-.2,2.9-.1,5.7-1.6,8.3A12.4,12.4,0,0,1,230,81.9a12.2,12.2,0,0,1-10.1-11c-.1-.9-.3-1.8-.4-2.7a1.1,1.1,0,0,1,.1-.5c.3-3.3-.4-5.4-3.9-7.1-8.6-4.2-12.1-14.7-8.6-23.5.4-1,.4-1.4-.6-2a7.9,7.9,0,0,1-3.8-6.4c-.1-1.1.4-1.7,1.6-1.7a22.9,22.9,0,0,0,3.7,0c.5,0,1.1.3,1-.6-.4-2.8.3-5.6,1-8.3-1.4-.2-2.6-.2-3.8-.5a9,9,0,0,1-6.7-9.4A8.8,8.8,0,0,1,208.1.1h28.7c6.2,0,11,5.2,11.1,11.8,0,3.2,0,6.5-.1,9.7a1.6,1.6,0,0,0,1.3,1.7,11.1,11.1,0,0,1,7.5,12.3,11,11,0,0,1-10.2,9.2c-1.6.1-1.7.8-1.6,1.9C244.8,53.6,244.8,60.4,244.9,67.2ZM214.8,33.9c-1.4,1.2-2.7,2.1-4.4,2.1s-1,.5-1.3,1.1a15.1,15.1,0,0,0-1.2,9.8c2.5,12.5,15.6,18.3,26.6,11.9.6-.4,1.4-1.2,2-.2s-.5,1.4-1.1,1.7A18,18,0,0,1,222.7,63c-1-.1-1.5-.1-1.4,1.1s0,3.7.2,5.6c.3,5.6,4.3,10,9.4,10.5s10.4-2.7,11.8-8.2a17.8,17.8,0,0,0,.3-4.6c0-7.6,0-15.1-.1-22.7,0-1.5.4-2.1,2-1.7a8.2,8.2,0,0,0,2.7-.2,9.2,9.2,0,0,0-3.3-18.1,9,9,0,0,0-7.8,8.5c-.1.7-.1,1.4-1,1.4s-.9-.8-.9-1.4,0-2.3.1-3.4,0-.8-.5-.8-.9-.1-1,.5-.2.8-.4,1.2a6.9,6.9,0,0,1-7.1,5.3c-3.1-.1-5.3-2.3-6.5-6-.1-.5-.1-1-.7-1a.7.7,0,0,0-.9.8l-.9,4.6c-.1.8.3.9.9.9h2.9c.5,0,1,.1,1.1.7a1.1,1.1,0,0,1-1,1.1h-2.7C214.6,37.2,214.6,37.2,214.8,33.9Zm21.8-6.4a11.8,11.8,0,0,1,8.7-4.8c.8,0,.7-.5.7-1-.1-3.6.1-7.3-.1-10.9a9.4,9.4,0,0,0-9.4-8.9H208.3a7.1,7.1,0,0,0-7,6.8,7,7,0,0,0,6.1,7.2,24.2,24.2,0,0,0,3.8.2h20.1c3.2,0,5.2,2,5.3,5.3Zm-13.8-.4h0c2.2,0,4.4.1,6.6,0s4.2,1,5-.3.4-3.6.3-5.5a3,3,0,0,0-3.3-3.2H213.2c-1-.1-1.3.4-1.5,1.1a20.4,20.4,0,0,0-.9,6.5c.1,1.2.4,1.6,1.6,1.5ZM207.5,29h-1.8c-.9-.1-1,.3-.8,1.1a5.3,5.3,0,0,0,5,4.1,5.2,5.2,0,0,0,4.9-4.1c.1-.4.4-1-.4-1.1s-.6.3-.6.9a1.8,1.8,0,0,1-1.9,2.1,1.8,1.8,0,0,1-1.9-2.1c.1-.9-.2-1-.9-.9Zm18.6,5.2a4.2,4.2,0,0,0,3.6-1.7c.9-.9,1.8-2.1,1.4-3.1s-2-.2-3-.3-.8,0-.7.7-.5,2.2-1.9,2.2-1.9-.9-2-2.3-1.1-.4-1.7-.6-.8.1-.7.8A5.4,5.4,0,0,0,226.1,34.2Z"/><path class="af1d5bf7-65d9-44c6-b2f7-52ebb33114fc" d="M246.4,161.2l-22.1-9.9-24-10.8a17,17,0,0,1-10.9-9.7,2.1,2.1,0,0,0-1.7-1.4,10.2,10.2,0,0,0-4.6-.1l-5.9,1.4c-2.3.5-4.6,1.1-6.9.1a6.6,6.6,0,0,0-3.4-.5l-3.2.2a27.2,27.2,0,0,0-20.3,9.7Q117,170.5,90.8,200.9c-8.8,10-17.5,20.1-26.3,30.2-.6.7-1.2,1.1-.1,2.1q20.1,17.6,40.1,35.2c.8.7,1.2.8,1.9-.1,15.4-18.1,30.7-36.2,46.1-54.2l34.7-40.8c.5-.5.9-1.5,1.8-.8s.1,1.5-.4,2.1l-3.5,4.1h1.4l48.9.3a27.8,27.8,0,0,0,13-2.9c7-3.4,12.3-8.4,15.4-15.6A18,18,0,0,1,246.4,161.2Z"/><path class="b7fbc872-0782-4381-85d7-5677e383a8ab" d="M237.2,285.9H196c-1.4,0-1.8-.2-1.4-1.8q13.1-48.8,26-97.5c.3-1.1.7-1.5,1.9-1.5h40.8c1.4,0,1.7.5,1.9,1.6l3.6,24.5c1.7,10.6,3.3,21.3,4.9,31.9l4.8,31.7c.5,3.1.9,6.3,1.5,9.4.3,1.4-.1,1.7-1.5,1.7Z"/><path class="b3b802a1-5bd2-41af-a3ca-5616edd31dad" d="M156.6,124.1c-1.5,0-1.9-.6-2.1-1.8s-.5-3.6-.8-5.4c-1.7-11.6-3.4-23.1-5.3-34.7-.7-4.7-2.7-6.3-7.4-6.3H83.3a6.1,6.1,0,0,0-6.1,6.8c.5,3.4,1,6.8,1.6,10.1,1.6,10.7,3.3,21.4,4.8,32.1.2,1.7.7,2,2.3,2h78.2c2.5,0,4.6-.2,5.6-3Z"/><path class="ab40060d-02e1-444a-acb7-9fcb93e2d46f" d="M180.1,238.3c.7,0,.7.5.9.8l12.6,27.7c.3.7.2,1-.5,1.3l-12.4,5.6c-.9.5-1.2.2-1.5-.6l-4.2-9.5c-.3-.7-.4-1.7-1.3-1.8s-1.2.8-1.6,1.4c-5.2,7-10.4,14-15.5,21.1a2.6,2.6,0,0,1-2.4,1.2c-13.8-.1-27.7-.1-41.5,0-1.5,0-1.8-.5-1.7-1.8.6-7.2,4.4-11.7,11-14.1,3.7-1.3,7.4-2.7,10.4-5.4a16.1,16.1,0,0,0,5.4-7.9,2.1,2.1,0,0,1,1.4-1.6l40.2-16.1Z"/><path class="af1d5bf7-65d9-44c6-b2f7-52ebb33114fc" d="M158.2,129a33,33,0,0,0-13.3,7.1c-3.7,3.4-6.7,7.4-10,11.1l-32.4,37.3a9.1,9.1,0,0,0-.6,1.1c-3.8-8.3-7.9-15.9-11.2-23.9a15,15,0,0,1-1-6.6c.2-9,4.7-15.7,11.6-20.9a24,24,0,0,1,15.6-5.3c13.1.3,26.2.1,39.4.1Z"/><path class="ab40060d-02e1-444a-acb7-9fcb93e2d46f" d="M31.2,239c7.1.7,14.1.8,21.2.8a32.2,32.2,0,0,0,13-2.3,1.4,1.4,0,0,1,1.7.4L102,268.6c.8.6.8,1.1.4,2l-6.6,13.9c-.4.8-.7,1.1-1.7.6-3.9-1.9-7.9-3.8-12-5.6-1-.4-.9-.9-.5-1.7l4.7-9.6c.9-2,.7-2.3-1.5-2.2l-22.2,1.6a15.7,15.7,0,0,1-9-1.5c-11.8-5.7-23.7-11.2-35.6-16.7-1.3-.6-1.4-1.2-.7-2.4A16,16,0,0,1,31.2,239Z"/><path class="af1d5bf7-65d9-44c6-b2f7-52ebb33114fc" d="M170.8,195.4c.8.5.9,1.3,1.2,2,5.3,11.4,10.5,22.8,15.7,34.1.6,1.3.4,1.7-.8,2.1l-50.3,20.2c-1.3.6-1.9.5-2.5-.9s-2.4-5.3-3.7-7.9a2.1,2.1,0,0,1,.3-2.7l34.8-40.7Z"/><path class="b3b802a1-5bd2-41af-a3ca-5616edd31dad" d="M172.5,102.1c10.2,0,19.9,2.3,29.4,5.9,1.8.7,3.7,1.2,5.5,2,6.1,2.6,8.1,8.9,7,15a12.5,12.5,0,0,1-12.3,9.8,10.1,10.1,0,0,1-6.5-2.8,16.6,16.6,0,0,0-8.9-4.6c-2.9-.4-5.6.4-8.3,1.1a21.1,21.1,0,0,1-6.1,1c-1.1-.1-2-.4-2.3-1.5s.3-1.7,1-2.2c2.9-2.2,6.1-3.5,9.3-5l1.3-.6c.5-.2,1-.5.9-1.2s-.8-.7-1.4-.7l-10-.4a23.6,23.6,0,0,1-7.4-1.4c-.8-.3-1.7-.6-1.7-1.8s.6-1.7,1.5-2.2a17,17,0,0,1,6.3-1.4l7.7-.2c.6-.1,1.5.1,1.6-.8s-.8-1-1.5-1.2l-12.7-2.1-1.2-.3a1.6,1.6,0,0,1-1.3-1.4,1.6,1.6,0,0,1,1-1.7,11.5,11.5,0,0,1,4.8-1.3Z"/><path class="b3b802a1-5bd2-41af-a3ca-5616edd31dad" d="M266.7,158.5c1.2-1.9,2.8-3.6,3.6-5.7a14.7,14.7,0,0,0,1.1-4.7c.1-16.2-.2-32.4-.5-48.6,0-.5.1-1,.1-1.6a38.4,38.4,0,0,1,6.8.2,11.1,11.1,0,0,1,9.2,13.3q-6.6,33-13.1,66.2c-.4,1.6-.9,2.1-2.7,2.1-8.6-.1-17.2,0-25.8-.2C255.5,175.6,262.9,168.8,266.7,158.5Z"/><path class="b3b802a1-5bd2-41af-a3ca-5616edd31dad" d="M154.6,108.3c1.4,1.9,3.4,2,5.5,1.7.5-.1.9-.4.8-1s-.5-.8-1.1-.8c-4.2-.3-5.8-1.7-6.5-6-.4-2.1-.7-4.2-1-6.3-.1-.4-.1-.8-.2-1.5l15.4,5.7c-1.2.7-2.4.6-3.5,1s-3.5,2.1-3.4,4,1.1,2.8,3.7,3.5a21.4,21.4,0,0,1,3.2.8,23.2,23.2,0,0,0-4.5,1.3c-1.7.9-2.9,2.1-2.9,4.2s1.5,2.8,3.2,3.4c3.4,1.3,7.1,1.3,10.7,1.6l2.2.2c-2.9,1.5-5.7,1.7-8.6,2a29.8,29.8,0,0,1-9.4-.5c-1.5-.4-2.3-.9-2.4-2.6-.4-3.3-1-6.5-1.5-9.7,0-.4-.2-.8.3-1Z"/><path class="b3b802a1-5bd2-41af-a3ca-5616edd31dad" d="M204.7,107c6.7-.4,12.4,4.2,14.2,11.3s-2.2,17-9.8,19.9a13.3,13.3,0,0,1-16.9-6.7L194,133c6.9,6.8,16.6,3.3,20.6-3.6a15.1,15.1,0,0,0-7.9-21.7Z"/><path class="b3b802a1-5bd2-41af-a3ca-5616edd31dad" d="M154.6,108.3l-.2.3h-.1l.3-.2Z"/><path class="b3b802a1-5bd2-41af-a3ca-5616edd31dad" d="M214.8,33.9c-.2,3.3-.2,3.3,3.1,3.2h2.7a1.1,1.1,0,0,0,1-1.1c-.1-.6-.6-.7-1.1-.7h-2.9c-.6,0-1-.1-.9-.9l.9-4.6a.7.7,0,0,1,.9-.8c.6,0,.6.5.7,1,1.2,3.7,3.4,5.9,6.5,6a6.9,6.9,0,0,0,7.1-5.3c.2-.4.2-.8.4-1.2s.5-.5,1-.5.5.4.5.8-.1,2.2-.1,3.4-.1,1.4.9,1.4.9-.7,1-1.4a9,9,0,0,1,7.8-8.5,9.2,9.2,0,0,1,3.3,18.1,8.2,8.2,0,0,1-2.7.2c-1.6-.4-2,.2-2,1.7.1,7.6.1,15.1.1,22.7a17.8,17.8,0,0,1-.3,4.6c-1.4,5.5-6,8.7-11.8,8.2s-9.1-4.9-9.4-10.5c-.2-1.9-.1-3.7-.2-5.6s.4-1.2,1.4-1.1a18,18,0,0,0,12.7-2.7c.6-.3,1.6-.7,1.1-1.7s-1.4-.2-2,.2c-11,6.4-24.1.6-26.6-11.9a15.1,15.1,0,0,1,1.2-9.8c.3-.6.5-1.1,1.3-1.1S213.4,35.1,214.8,33.9Zm8.1,7.4-8.4.8c-.7.1-1.4.2-1.4,1.2a6.4,6.4,0,0,0,5.1,6.4c3.4.5,6.5-2.3,6.8-6.2C225.1,41.3,225,41.2,222.9,41.3Zm20.4-7.7,6.2-2.4c.5-.2,1-.5.8-1.2s-.9-.7-1.5-.5l-8.3,3.3a1.1,1.1,0,0,0-.8.8c0,.6.4.8.9,1l5.9,2.1c.6.3,1.2.3,1.4-.4s-.3-1.1-.9-1.3Z"/><path class="ab40060d-02e1-444a-acb7-9fcb93e2d46f" d="M236.6,27.5v-6c-.1-3.3-2.1-5.3-5.3-5.3H211.2a24.2,24.2,0,0,1-3.8-.2,7,7,0,0,1-6.1-7.2,7.1,7.1,0,0,1,7-6.8h28.2a9.4,9.4,0,0,1,9.4,8.9c.2,3.6,0,7.3.1,10.9,0,.5.1,1-.7,1A11.8,11.8,0,0,0,236.6,27.5Z"/><path class="b3b802a1-5bd2-41af-a3ca-5616edd31dad" d="M222.8,27.1H212.4c-1.2.1-1.5-.3-1.6-1.5a20.4,20.4,0,0,1,.9-6.5c.2-.7.5-1.2,1.5-1.1h18.2a3,3,0,0,1,3.3,3.2c.1,1.9.6,4.2-.3,5.5s-3.3.2-5,.3-4.4,0-6.6,0Z"/><path class="b3b802a1-5bd2-41af-a3ca-5616edd31dad" d="M207.5,29h1.6c.7-.1,1,0,.9.9a1.8,1.8,0,0,0,1.9,2.1,1.8,1.8,0,0,0,1.9-2.1c0-.6-.2-1,.6-.9s.5.7.4,1.1a5.2,5.2,0,0,1-4.9,4.1,5.3,5.3,0,0,1-5-4.1c-.2-.8-.1-1.2.8-1.1Z"/><path class="b3b802a1-5bd2-41af-a3ca-5616edd31dad" d="M226.1,34.2a5.4,5.4,0,0,1-5-4.3c-.1-.7.2-.9.7-.8s1.7-.7,1.7.6.6,2.3,2,2.3,2-.9,1.9-2.2.2-.7.7-.7,2.6-.5,3,.3-.5,2.2-1.4,3.1A4.2,4.2,0,0,1,226.1,34.2Z"/><path class="ab40060d-02e1-444a-acb7-9fcb93e2d46f" d="M222.9,41.3c2.1-.1,2.2,0,2.1,2.2-.3,3.9-3.4,6.7-6.8,6.2a6.4,6.4,0,0,1-5.1-6.4c0-1,.7-1.1,1.4-1.2ZM215.2,44c.3,2.3,1.5,3.8,3.4,4s3.6-1.3,4.4-3.5.1-1.4-1-1.3Z"/><path class="ab40060d-02e1-444a-acb7-9fcb93e2d46f" d="M243.3,33.6,247,35c.6.2,1.2.5.9,1.3s-.8.7-1.4.4l-5.9-2.1c-.5-.2-.9-.4-.9-1a1.1,1.1,0,0,1,.8-.8l8.3-3.3c.6-.2,1.3-.3,1.5.5s-.3,1-.8,1.2Z"/><path class="b3b802a1-5bd2-41af-a3ca-5616edd31dad" d="M215.2,44l6.8-.8c1.1-.1,1.3.2,1,1.3s-2.5,3.7-4.4,3.5S215.5,46.3,215.2,44Z"/></g></g></svg>