<svg xmlns="http://www.w3.org/2000/svg" viewBox="0 0 60 60"><defs><style>.a4d0b1a4-e1b9-4589-a836-ee1534532166,.efac377e-eb05-4304-966c-4145c79250b8{fill:#99bae2;}.a91ff212-5d7d-4163-9596-fdd50ddef3bb{fill:none;}.a4d0b1a4-e1b9-4589-a836-ee1534532166,.a91ff212-5d7d-4163-9596-fdd50ddef3bb{stroke:#102e57;stroke-linecap:round;stroke-linejoin:round;stroke-width:2px;}</style></defs><g id="e9934e8f-c771-43be-a579-2cd0cc81dbf7" data-name="Layer 2"><g id="b4d66824-87ff-4aa0-8fc5-12e5387000e5" data-name="Artwork"><ellipse class="efac377e-eb05-4304-966c-4145c79250b8" cx="20" cy="6" rx="19" ry="5"/><path class="efac377e-eb05-4304-966c-4145c79250b8" d="M39,6v7c0,3-9,5-19,5S1,16,1,13V6"/><path class="efac377e-eb05-4304-966c-4145c79250b8" d="M39,13v7c0,3-9,5-19,5S1,23,1,20V13"/><path class="efac377e-eb05-4304-966c-4145c79250b8" d="M39,20v7c0,3-9,5-19,5S1,30,1,27V20"/><path class="efac377e-eb05-4304-966c-4145c79250b8" d="M38.6,35a1.3,1.3,0,0,0,.4-1V27"/><ellipse class="efac377e-eb05-4304-966c-4145c79250b8" cx="20" cy="19.5" rx="19" ry="5"/><path class="efac377e-eb05-4304-966c-4145c79250b8" d="M39,19.5v7c0,3-9,5-19,5s-19-2-19-5v-7"/><path class="efac377e-eb05-4304-966c-4145c79250b8" d="M39,26.5v7c0,3-9,5-19,5s-19-2-19-5v-7"/><path class="efac377e-eb05-4304-966c-4145c79250b8" d="M39,33.5v7c0,3-9,5-19,5s-19-2-19-5v-7"/><path class="efac377e-eb05-4304-966c-4145c79250b8" d="M38.6,48.5a1.3,1.3,0,0,0,.4-1v-7"/><ellipse class="a91ff212-5d7d-4163-9596-fdd50ddef3bb" cx="20" cy="6" rx="19" ry="5"/><path class="a91ff212-5d7d-4163-9596-fdd50ddef3bb" d="M39,6v7c0,3-9,5-19,5S1,16,1,13V6"/><path class="a91ff212-5d7d-4163-9596-fdd50ddef3bb" d="M39,13v7c0,3-9,5-19,5S1,23,1,20V13"/><path class="a91ff212-5d7d-4163-9596-fdd50ddef3bb" d="M39,20v7c0,3-9,5-19,5S1,30,1,27V20"/><path class="a4d0b1a4-e1b9-4589-a836-ee1534532166" d="M59,47v7c0,3-9,5-19,5s-19-2-19-5V47"/><path class="a91ff212-5d7d-4163-9596-fdd50ddef3bb" d="M1,27v7c0,3,9,5,19,5h1.4"/><path class="a91ff212-5d7d-4163-9596-fdd50ddef3bb" d="M38.6,35a1.3,1.3,0,0,0,.4-1V27"/><path class="a91ff212-5d7d-4163-9596-fdd50ddef3bb" d="M1,34v7c0,3,9,5,19,5h1"/><path class="a4d0b1a4-e1b9-4589-a836-ee1534532166" d="M59,40v7c0,3-9,5-19,5s-19-2-19-5V40"/><ellipse class="a4d0b1a4-e1b9-4589-a836-ee1534532166" cx="40" cy="40" rx="19" ry="5"/></g></g></svg>