<?xml version="1.0" encoding="utf-8"?>
<!-- Generator: Adobe Illustrator 25.0.1, SVG Export Plug-In . SVG Version: 6.00 Build 0)  -->
<svg version="1.1" id="Layer_1" xmlns="http://www.w3.org/2000/svg" xmlns:xlink="http://www.w3.org/1999/xlink" x="0px" y="0px"
	 viewBox="0 0 530.8 292.6" style="enable-background:new 0 0 530.8 292.6;" xml:space="preserve">
<style type="text/css">
	.st0{fill:#2E2F3D;}
	.st1{fill:#182F57;}
	.st2{fill:#9ABBE3;}
	.st3{fill:#F7D89B;}
	.st4{fill:#323440;}
	.st5{fill:#232438;}
	.st6{fill:#FFFFFF;}
	.st7{fill:#F9F9F9;}
	.st8{fill:#FCFCFB;}
	.st9{fill:#F9F8F8;}
	.st10{fill:#FAFBFB;}
	.st11{fill:#8CAEDB;}
	.st12{fill:#F5F4F5;}
	.st13{fill:#F2F1F1;}
	.st14{fill:#3B318A;}
	.st15{fill:#262837;}
</style>
<g>
	<g id="f1a8f3e4-4a42-4beb-a705-c07851cdf212">
		<g id="f5e9a1dd-141a-4d3b-bd28-01cb13127eca">
			<path class="st0" d="M131.2,70.4l-7-15.3c-0.4-0.9-1.1-1-1.9-1.1s-1.3-0.2-1.6-0.8s0.3-1.2,0.8-1.5s0.7-1,0.3-1.8l-4.5-9.6
				c-0.4-0.9-0.7-0.8-1.5-0.6c-9.7,2.7-18.1-1.3-22.2-10.5c-1.7-3.7-3.5-7.4-5.2-11.2s0.6-6.9,4.8-6.4c0.7,0,0.9-0.2,1.2-0.8
				c0.9-1.7,2.8-2.5,4.6-2.1c1,0.2,1.2-0.2,1.7-0.9c0.8-1.6,2.7-2.4,4.4-1.9c0.9,0.2,1.2-0.2,1.6-0.8c0.7-1.6,2.5-2.5,4.2-2.1
				c1,0.2,1.4-0.2,2-1c1.3-2,3.8-2.5,5.8-1.3c0.6,0.4,1.2,1,1.5,1.7c2.5,4.7,4.7,9.5,6.7,14.4c2.9,7.6,0.1,16.3-6.8,20.7
				c-1.3,0.9-1.3,1.5-0.7,2.7s2.7,5.5,3.9,8.3c0.4,1,0.8,1.1,1.5,0.4s2.1-1.8,3.4-2.9l-3.9-0.6c-0.5,0.1-1-0.3-1.1-0.9v-0.1
				c0.1-0.8,0.7-1,1.4-0.9l3.7,0.4l-2.1-2.5c-0.5-0.5-0.9-1.1-0.1-1.7s1.2,0,1.7,0.5c0.6,0.8,1.3,1.5,2.2,1.9v-2.7
				c0-0.8,0-1.6,1.1-1.6s1,1,0.9,1.8s-0.1,2-0.2,3.4l6.8-5.7c0.8-0.7,1.6-1,2.3,0.2c-0.5,3.8,0.9,7.6,3.9,10.1
				c2.8,3.8,3.3,7.7,0.6,11.7c-0.3,0.4-0.3,0.9,0.1,1.3l0,0c3,4.1,5.3,8.6,6.9,13.4c0,0.6,0.6,1.1,1.2,1h0.1h3.2
				c-2.8-1.9-4.3-4.2-4.4-7.2s0.6-3.9,1-5.8s-0.3-2.6-1.4-3.5s-1.7-1.3-0.3-2.8c0.1,0,0.1-0.2,0.1-0.3s0.5-1.1,1.3-0.9
				s0.5,0.2,0.8-0.3s1.9-0.2,1.8,0.7c-0.4,3.9,2,4.7,4.9,5.1l1.1,0.2c5.2,2.1,7.1,6.1,5.4,11.4c-0.2,0.8-0.4,1.7-0.7,2.5s0,1,0.7,1
				h8.2l-11.6-19.8l-0.3-2.8l2.2,1.8L177,73.9c0.4,0.8,1.2,1.3,2.1,1.1c4.1,0,4.1,0,4.1-4V24.7c0-1.8,0.5-2.3,2.3-2.3H235
				c2-0.1,2.3,0.6,2.3,2.4c0,15,0.1,30,0.1,45c0,1.6,0.3,2,1.9,1.6c4.2-1.1,8.4-2,12.6-2.9c1.2-0.2,1.7-0.4,1.1-1.8
				c-1.2-2.6-1.3-5.5-0.4-8.2c0.4,0.5,1,0.8,1.6,0.8c-0.4,2.2-0.2,4.5,0.5,6.6c0.3,0.9,0.6,0.9,1.2,0.3l6.8-6.6h2.9
				c-2.7,2.5-5.2,5.2-8,7.5s-5.7,7.8-5,13s2.4,8,6.7,9.7s7.9,0.5,11.2-2.4l8.1-7.1c-4.4-4.3-5.7-9.4-4.4-15.3
				c0.6-2.7,0.9-5.4,1.4-8.1l2.4-2.6c-0.8,4.6-1.6,9.2-2.3,13.8c-1,6.8,5,13.7,11.8,13.9s14.3-4.9,16.7-12.6V69l-0.3,0.2
				c-1.7,0.9-3.8,1.3-5.7,0.9c-2.1-0.4-6.1-4-6.3-5.7s2-5.2,4.5-6.1c0.6-0.3,1.2-0.5,1.8-0.5c2.6,0.1,4.8-1.2,7.2-1.8
				s1.4-0.6,0.7-1.6s-3.2-4.8-4.7-7.2c-0.4-0.6-0.7-1.4-1.5-1.2s-0.3,1.1-0.3,1.7c-0.3,3.7-3.2,6.6-6.9,6.9
				c-3.6,0.1-6.7-2.3-7.6-5.7c-0.2-1,0.4-2.4-0.6-2.9s-2.1-0.1-3.2-0.1h-0.9c0-0.7,0.2-1.3,0.6-1.9c1.1,0,2.2-0.1,3.4,0
				c0.8,0,1.6-0.3,2-1c3.2-4.2,8.7-4.2,11.9,0.1c0.3,0.7,1.1,1,1.8,0.9c1.6-0.4,2.6-1.9,2.5-3.5l-0.9-3c0.6-0.1,1.3-0.1,1.9,0.1
				c0.4,2.2,1.4,2.8,3.9,2.3s6.6,2.3,7.4,5.8c0.7,3.5-1.2,7.1-4.6,8.4c-0.9,0.3-2,0.2-1.2,1.8s-0.6,1-1.2,1.3s-2.1,0.8-0.3,2.3
				c1.5,1.2,2.4,3,2.6,4.9c0.2,1.2-0.3,2-1.5,1.8s-1.9,0.6-2.1,1.9c-1.9,9.5-10.3,16.3-20,16.1c-1.7,0-3.4-0.3-5.1-0.8
				c-1.3-0.5-1.2,0-1,1c0.9,5,1.9,10.1,2.8,15.2l-1.8,0.8c-1.1-5.6-2.1-11.3-3.2-17.2c-2.7,2.4-5.1,4.6-7.7,6.7
				c-6.6,5.2-15.7,2.6-18.8-5.2c-1.8-4.4-1.7-9.4,0.1-13.8l0.2-0.3h-0.4c-5,1.1-9.9,2.1-14.8,3.3c-4.6,1-8.9,2.7-12.9,5.2
				c-5.2,3.2-8.3,7.7-8.6,14c-0.4,8.1-0.7,16.2-1.1,24.3c-0.2,4.2-0.4,8.3-0.2,12.7c2.8-1.3,5.4-2.7,8.1-3.8
				c0.9-0.2,1.4-1.1,1.2-1.9c0-0.2-0.1-0.3-0.2-0.5c-1-3-1.8-6-2.7-8.9c-0.2-0.7-0.3-1.3,0.5-1.6s1.1,0.3,1.3,1l0.3,1.1
				c1.8,5.9,3.5,11.9,5.3,17.8c0.3,1,0.5,1.6,1.8,1l30.8-13.7c1-0.4,1.1-0.8,0.8-1.9c-1.7-5.6-3.3-11.3-5-16.9
				c-0.2-0.8-0.6-1.6,0.3-1.9s1.3,0.7,1.5,1.4c1,2.9,1.8,5.8,2.7,8.7s1.5,5,2,7.5s0.9,1.9,2.4,1.3c11.7-4.1,23.5-8,35.1-12.2
				s26.3-8.1,40.4-6.1c5,1,9.9,2.3,14.3,5.1c0.7,0.5,1.7,0.6,2.5,0.2c4.2-1.7,8.9,0.4,10.5,4.5c0.2,0.6,0.4,1.2,0.5,1.8
				c0.5,2.4-0.4,4.4-1.5,6.6c1.5,0,2.8-0.1,4,0s3.8,0.2,4.1-2.5c0.1-0.5,0.7-0.8,1.1-1.2c1.3-1.2,2.1-2.7,2.4-4.4
				c0.7-4.3-0.9-7.7-5.1-9.8c-11.3-5.6-23.1-6.8-35.4-4.4l-1.5-1.5c13.4-3.2,26.4-1.8,38.6,4.7c6.4,3.3,7.4,11.6,2.3,16.8
				c-0.4,0.4-0.7,0.8-0.9,1.3c-0.5,1.1-0.3,1.6,0.8,2.2c7.9,4.1,8.6,15.6,1.4,20.7c-0.9,0.7-1.9,1.2-3,1.5c-1.4,0.3-2.8,0.5-4.2,0.6
				c-4.3-0.2-8.2,3.3-9.2,7.3s-0.1,6.1-0.3,9.1c-0.6,6.5,2,12.2,3.9,18.1s3.1,10.8,4.8,16.1c1.8,5.7,1.2,12-1.8,17.2l-4.5,8.5
				l-0.2,0.6c-0.2,0-0.4,0.3-0.3,0.5l0,0c0.3,0.3,0.4-0.2,0.6-0.3l0.3-0.3c7.2-6.8,16.3-11.2,26.1-12.8c21-3.3,41.2,4.9,52.8,23.6
				c1.1,1.8,0.8,2.4-1.4,2.4h-16.1c8.1,10,11,21.1,7.4,33.3c-3.6,12.2-11.9,20.1-23.8,24.5H500c2.2,0,2.2,0,1.3-2s-0.8-1.9-1.1-2.8
				s-0.5-1.3,0.3-1.6s0.9,0.5,1.1,1l2.5,5.7c0.5-1.2,0.6-2.6,0.4-3.9c0.1-0.9,0.1-1.7,0.1-2.6c0-0.6,0-1.3,0.8-1.3s0.8,0.6,0.8,1.2
				v4.3c-0.2,0.7,0,1.4,0.4,2c1-1.4,1.3-3,2.1-4.4s0.4-2.4,1.6-1.9s0.1,1.7-0.2,2.5c-0.4,1.3-0.9,2.6-1.5,3.8h20.5
				c0.7,0,1.6,0,1.6,1s-0.8,1.1-1.7,1.1H3.8c-0.9,0-2,0.1-1.9-1.1s1-1,1.9-1c3.2,0,6.3-0.1,9.5,0c1.4,0.1,1.8-0.3,1.8-1.7
				C15,278.1,15,267.5,15,256.9c0-0.3,0.1-0.6,0.1-0.9H17c0,10.8,0.1,21.7,0,32.6c0,1.5,0.3,1.9,1.9,1.9c6.9-0.1,13.8-0.1,20.7,0
				c1.6,0,1.7-0.5,1.4-1.9c-0.9-3.5-1.7-7-2.4-10.5c-0.2-1-0.7-1.3-1.6-1.5c-2.9-0.4-4.9-2.9-4.8-5.8c0.3-3.2,3.2-5.5,6.4-5.2
				c2.4,0.3,4.5,2,5,4.4c0.5,2.2-0.5,4.4-2.3,5.6c-0.9,0.6-1.2,1.1-0.9,2.1c0.9,3.9,1.8,7.7,2.6,11.6c0,0.7,0.6,1.3,1.4,1.2
				c0.1,0,0.2,0,0.2,0c0.2-0.1,0.5,0,0.7,0h143.2c-0.6-0.6-1.3-0.9-2.1-1c-12.5-5-20.2-14-22.7-27.3c-0.2-1.2-0.6-1.9-2.1-1.8
				c-6.2,0.1-12.5,0-18.7,0c-2.3,0.2-4.3-1.4-4.5-3.7c-0.2-1.8,0.9-3.6,2.6-4.2c1.4-0.7,2.9-0.4,4.4-0.4s2.1-0.2,2.4-2
				c1.3-11.4,6.3-21.1,14.2-29.4c4.2-4.3,6.9-9.8,7.6-15.8c0.1-0.9,0.8-2.3-1.2-2.1c-5.7,0.4-11-3.1-13-8.5
				c-1.8-5.4-0.2-10.5,5-14.9c-0.6-0.5-1.3-0.3-1.9-0.3h-38.3c-2.6,0-2.6,0-2.6-2.6V94.9l1.9-1.2v81.5c0,1.6,0.4,2,2,2h88.3
				c1.8,0,2.4-0.3,2.4-2.3c-0.1-31.5-0.1-63-0.1-94.6c0-0.7,0-1.5,0.1-2.2c0.1-1-0.3-1.4-1.3-1.3c-0.3,0.1-0.6,0.1-0.9,0
				c-29.5,0-58.9,0.1-88.3,0c-1.9,0-2.3,0.5-2.2,2.3s0,5.7,0,8.6l-1.9-1.2c0-2.8-0.1-5.5,0-8.2s-0.5-1.6-1.7-1
				c-3.9,1.9-5.6,5.5-7.1,9.2c-0.4,0.3-0.6,0.8-0.6,1.3c-1.9,3.7-3.7,7.4-5.5,11l-1.8-0.8l5.4-11.2c0.4-0.3,0.6-0.8,0.6-1.3
				c1.7-3.2,2.9-6.7,6.1-9c-2,0.1-3.9,0.3-5.9,0.6c-1.9,0.3-4.1,0-5.8,1.3s-2.5-0.4-3.7-0.1c-3.1-0.1-6.1,0.9-8.4,2.9
				c-3.7,3.3-7.7,6.1-11.6,9.1c-0.6,0.5-1.3,1.3-2.1,0.4s0.3-1.4,0.9-1.9l11.5-9.2c-3,0.3-5.9,0-8.5,2.3s-5.9,4.7-8.9,7.1
				c-0.6,0.4-1.2,0.9-1.8,0.2s-0.1-1.3,0.5-1.8l8.2-6.4c-2-0.4-4.2,0-5.9,1.1l-6.3,5c-0.6,0.5-1.3,1.1-1.9,0.2s0.1-1.3,0.6-1.7
				l4.1-3.3l0.5-0.5h-0.9l-7.8,0.9C59,82.8,58.1,83,58,82s0.7-1.2,1.4-1.3l8.7-1c-0.6-1-1.6-1-2.4-1.4L62.9,77
				c-0.6-0.3-1.1-0.7-0.8-1.4s1-0.7,1.7-0.4c0.7,0.3,3.4,1.4,4.9,2.3c2.7,1.6,5.9,1.9,8.8,0.9L70,75l-2.7-1.2
				c-0.6-0.2-0.9-0.8-0.7-1.4l0,0c0.3-0.7,0.9-0.6,1.4-0.4l1,0.4c3,1.4,6.2,2.5,9,4.1s6.2,1.5,9.5,0.8c-0.2-0.6-0.7-0.7-1.1-0.9
				l-12.1-5.5c-0.7-0.3-1.8-0.5-1.3-1.6s1.4-0.4,2.2-0.1c4.7,2.1,9.5,4.1,14,6.5c2.8,1.4,5.4,0.9,8.3,0.4c-0.4-0.7-1.1-0.8-1.7-1.1
				L81,68.3c-0.7-0.4-1.7-0.6-1.2-1.7s1.4-0.4,2.1-0.1l19,8.6c0.8,0.4,1.7,0.5,2.6,0.4c5.6-0.5,11.2-1.6,16.8-1.7
				c3.1,0,6.2,0.3,9.3,0.9c1.4,0.2,2.7,0.2,4.1,0.2l-13.1-7.8c0.1-0.7,0.5-1.2,1.1-1.6l9.2,5.3l0.5,0.3c0.2-0.1,0.2-0.4,0-0.6
				C131.4,70.5,131.3,70.4,131.2,70.4z M342.9,210.2l0.3-0.7c0-8.9,0-17.8,0.1-26.7c0.2-3.5,2.7-6.5,6.2-7.3
				c1.8-0.2,3.6-0.3,5.4-0.2c1.5,0.1,1.8-0.4,1.4-1.8c-1.6-4.9-3-9.7-4.4-14.6s-3.5-11.5-5.2-17.2c-0.4-1.5-1-1.8-2.3-1.1
				c-1.1,0.6-2.4,1-3.7,1.1c-0.9,0.2-1.3,0.7-1.6,1.7c-2,7.6-4.1,15.2-6.1,22.9c-5.2,19.1-10.3,38.2-15.4,57.5
				c-0.6,0.8,0.1,2.8-2,2.1c-0.5-0.7-0.1-1.4,0-2.1c1.2-4.3,2.4-8.6,3.5-12.9c6.1-22.5,12.1-45.1,18.3-67.6c0.5-1.9-0.5-1.7-1.5-1.7
				s-0.9,0.4-1.4,0.6c-1.6,1-3.6,1.4-5.5,1.1c-3.3-0.5-6.1-2.8-7.2-6l-6.3,3.1l-55.4,25.9c-11.5,5.4-24-0.1-27.9-12.2
				c-2.7-8.5-5.1-17-7.6-25.5c-0.3-1-0.6-1.2-1.6-0.7l-7.5,3.6c-1.1,0.2-1.7,1.3-1.5,2.4l0,0v31.5c0,0.5-0.3,1.1,0.3,1.5
				c-0.4,3.2,0,6.3-0.2,9.5c0,0.8,0.4,0.8,1.1,0.8h13.9c6.9,0.2,13.8,0.1,20.7,0h13.7c2.8-0.1,5.5,0.9,7.6,2.6
				c-0.2,0.6,0.1,1.4-0.6,1.9c-2.9-2.4-6.3-2.6-9.9-2.5h-71l-21.7-0.2c-7.4,0.1-12.5,6.3-11,13.2c1.1,5.1,5.7,8.6,10.9,8.4h95.4
				l2.4-0.2c0.3,0.8-0.3,1.4-0.3,2.1c-2.1-0.2-2.7,1.7-3.7,2.8c-6.5,6.7-10.7,15.4-11.7,24.7c-0.9,6.6-0.3,13.3-0.6,20
				c-0.1,1.5,0.4,1.9,1.8,1.9h32.4c0.5,0,1,0.3,1.5-0.4l-8.4-6.2c-0.8-0.6-1-0.4-1.3,0.5s-0.9,2.3-1.2,3.5s-1.2,2-2.8,1.4
				c-5-2-9.9-3.8-14.9-5.6c-1.9-0.6-2.1-1.3-1.4-3.1c4-10.7,7.9-21.4,11.8-32.2c0.5-0.3,0.5-1.3,1.4-1.2s0.9,0.5,0.9,1.1
				c-4,10.8-8,21.7-12.1,32.5c-0.4,1,0.1,1.1,0.8,1.4l9.3,3.4c1.6,0.6,3.5,2,4.8,1.5s1.4-3.1,2.1-4.7s1-2,2.6-0.9
				c3.3,2.5,6.7,4.9,9.9,7.4c1.1,0.8,2.4,1.3,3.8,1.2h35.8c3.4,0,3.4-0.1,2.4-3.4c-1.7-5.7-6.3-10-12-11.4
				c-5.5-1.4-7.9-5.8-6.2-11.1c0.3-0.7,0.5-1.4,0.7-2.1c0.4-0.3,0.8-0.9,1.4-0.4s0.1,1.3,0.2,2c-1.9,4.7-0.4,8.5,4,9.7
				c7.7,2,12.4,6.9,14.1,14.6c0.4,1.7,1,1.6,2.3,1.1c4.6-2,8.3-5.7,10.4-10.2c1.3-2.6,1.4-2.6-1.3-3.6c-6.4-2.3-10.5-6.5-11.4-13.4
				h2c0.7,5.4,3.8,9,8.8,11.1c1.3,0.5,2.9,1.7,4.1,1.4s1.5-2.4,2.3-3.7l1.7-3.1c0.7-1.2,1.3-2.5,1.8-3.8c-5.3-0.6-8.3-3.9-8.4-9.1
				C343,214.2,343,212.2,342.9,210.2z M338.2,130.1h-0.4c-0.2,0.2,0,0.4,0.1,0.5c1.2,2.8,1.5,5.6,0,8.3c-0.7,1.2-0.1,1.3,0.8,1.3
				c3,0,5.6-1.3,8.2-2.5s4.5-3.5,4.2-6.5s0-5.4,2.1-7.5c0.3-0.3,0.5-0.8,0.5-1.2c0.2-1.2,0.7-2.2,1.6-3c3-3.7,2.5-9.1-1.2-12.1
				c-0.4-0.3-0.9-0.6-1.3-0.9c-2.5-1.2-5.1-2.3-7.8-3c-11-2.8-22.7-2.2-33.4,1.5c-15.3,4.9-30.6,10.1-45.7,15.7
				c-12.3,4.5-24,10.5-36,15.6c-1.1,0.5-0.8,1-0.6,1.8l4.5,15c3.5,11.5,14.8,16.6,25.7,11.5l58.5-27.4c2.7-1.2,4-2.8,3.8-5.8
				l-5.1,2.3c-0.6,0.2-1.3,0.4-1.6-0.5s0.3-1,0.9-1.3l9.2-4.2c4.5-2,9.7-1.7,14,0.8c0.7,0.4,2.3,0.6,1.6,1.9
				S339.1,130.3,338.2,130.1L338.2,130.1z M390.2,290.4l-0.6-0.4c-15.2-5.4-23.5-16.2-24.9-32.3c0-0.8-0.1-1.2-1-1
				c-4.4,0.9-8.7,0.4-13.1,0.5c-1.3,0.1-1.8-0.5-1.7-1.8s0.4-4.2,0.5-6.3c0-0.4,0.4-0.9-0.1-1.2s-0.7,0.4-0.9,0.7
				c-6,8.2-14.1,11.8-24.2,11.8h-89c-1.2,0-1.9,0-2.1,1.5c-2.2,12.4-9.1,21.2-20.4,26.6c-1.4,0.7-2.8,1.1-4.6,1.8h131
				c-0.8-1.8-1.6-3.5-2.3-5.2s-0.4-1,0.2-1.3s1,0,1.3,0.6l1.2,2.7c0.6,1.1,0.8,2.4,1.9,3.4c-0.1-1.1,0-2.3,0.1-3.4
				c0.3-1.5-1.1-4.2,0.9-4.3s0.4,2.7,0.7,4.2s-0.2,2.2,0.4,3.6c1-2.1,1.8-4,2.6-5.9s0.6-1.4,1.5-0.9s0.3,1.1,0.1,1.6s-1.5,3.3-2.2,5
				L390.2,290.4z M198.3,252.1h47.2c0.8,0,2,0.4,1.7-1.3c-2-13.8-8.3-25-19.5-33.3s-21.2-10.1-33.4-9.2
				c-22.9,1.6-41.6,19.1-44.6,41.9c-0.3,1.6,0,2,1.7,2L198.3,252.1z M351.5,136.3c-0.7,0.8-1.5,1.6-2.4,2.2
				c-1.2,0.6-1.1,1.4-0.8,2.4c1,3,1.8,6,2.7,9l7.5,24.8c0.6,2.1,0.5,2.3-1.7,2.3h-4.5c-4.6,0.1-7.3,2.7-7.3,7.4V216
				c0,4.7,2.5,7.2,7.3,7.3c2,0.1,2.3,0.5,1.3,2.4c-2.8,5.2-5.7,10.4-8.4,15.6c-4.4,8.7-11.4,12.7-21.1,12.7H143.6
				c-2,0-3.1,0.8-3.1,2.2c0,1.4,1.1,2.3,3.2,2.3h181c10.8,0,18.9-4.7,24-14.3l18.6-34.5c2.7-4.8,3.3-10.5,1.6-15.7l-12.3-40.6
				C354.9,147.6,353.3,142,351.5,136.3z M441.3,230.7c0.2-0.5,0-0.7-0.2-1c-8.5-12.4-20.2-19.7-35.2-21.4
				c-12.7-1.4-24.5,1.2-34.9,8.8c-12.4,9.1-19,21.5-20.1,36.8c-0.1,1,0.2,1.4,1.3,1.4h6.3c9,0,15.7-3.9,20.2-11.6
				s12.5-12.9,22.5-12.9C414.6,230.8,427.9,230.7,441.3,230.7L441.3,230.7z M400,289.6h2.4c1.4-0.1,2.8-0.3,4.1-0.6
				c12.5-2.8,21.1-10.3,25-22.5s1.4-22.8-6.8-32.4c-0.7-0.9-1.8-1.5-3-1.4h-21c-1.4,0.1-2.8,0.1-4.1,0.3
				c-6.9,1.1-12.9,5.4-16.2,11.5c-2.7,5-7,8.9-12.3,11c-1.2,0.5-1.6,1-1.5,2.3C367.5,275.6,382.2,289.6,400,289.6z M185.1,49.4
				c0,7.6,0.1,15.2,0,22.8c-0.1,1.8,0.2,2.4,2.2,2.4h33.4c4.5,0,8.9,0,13.2-1.8c1.2-0.5,1.6-0.9,1.5-2.2V26c0-1.3-0.3-1.7-1.7-1.7
				h-46.9c-1.6,0-1.7,0.5-1.7,1.9L185.1,49.4L185.1,49.4z M172.5,260.4h-4.7c-2.6,0-2.6,0-2.1,2.5c3.7,18,21.2,29.7,39.3,26
				c5-1,9.6-3.1,13.6-6.2c6.8-5.1,10.8-12,12.5-20.4c0.3-1.1,0.5-2.1-1.4-2c-3.4,0.2-6.7,0.2-10.1,0c-1.7-0.1-2.4,0.5-3,2.1
				c-2.8,8-8.5,12.5-16.9,13.1s-14.2-3-18.3-9.9c-1.1-1.7-0.7-4.4-2.6-5.1s-4.1-0.1-6.1-0.1H172.5z M168.9,214.7
				c14.3-9.1,29.7-11.2,45.7-6.2s26.9,16.4,32.7,32.4c-0.6-14.6,3.6-27.4,14.1-38.2h-87.9c-0.3,0-0.5,0-0.8,0c-0.7,0-1,0.2-1.1,1
				C171.3,207.5,170.4,211.2,168.9,214.7z M110.1,38.6c1.7,0,3.4-0.2,5-0.8c0.8-0.2,0.9-0.6,0.5-1.3l-1.9-4.2c-0.3-0.6-1-1.4,0-1.9
				s1.4,0.5,1.7,1.2c0.6,1.2,1.2,2.4,1.7,3.7c0.5,1.2,1,1.3,2,0.6c6.1-4.2,8.5-12,5.8-18.9c-1.5-3.6-3.2-7.1-4.9-10.6
				c-0.5-1-0.9-2.1-1.4-3.1c-0.5-1.1-1.8-1.6-2.9-1.2c-0.1,0-0.2,0.1-0.3,0.2c-1.3,0.6-1.5,1.7-1.1,3l0.9,2l4.4,9.5
				c0.3,0.6,0.4,1.2-0.3,1.5s-1.1,0-1.4-0.6c-0.2-0.6-0.4-1.1-0.7-1.6c-1.5-3.1-2.9-6.3-4.4-9.4s-2.1-2.3-3.5-1.6s-1.6,1.9-0.8,3.7
				l4.8,10.3c0.3,0.7,1,1.5-0.1,2.1s-1.3-0.6-1.6-1.3l-1.8-3.7c-1.1-2.4-2.2-4.9-3.4-7.2c-0.4-1.1-1.6-1.7-2.7-1.3
				c-0.2,0.1-0.4,0.2-0.5,0.3c-1.1,0.4-1.6,1.7-1.1,2.7c0,0.1,0.1,0.2,0.1,0.3l0.6,1.5l4.2,9c0.3,0.8,1.3,1.8,0.1,2.4
				s-1.4-0.8-1.8-1.5s-0.8-1.8-1.2-2.7c-1.2-2.6-2.4-5.1-3.7-7.6c-0.5-1.2-1.9-1.7-3.1-1.2s-1.7,1.9-1.2,3.1l0.6,1.6
				c1.5,3,2.9,6,4.3,9.1c0.3,0.7,1,1.6-0.1,2.1s-1.3-0.6-1.6-1.2c-1.7-3.5-3.3-7-4.9-10.5c-0.8-1.6-2.3-2.2-3.5-1.5
				s-1.5,2.2-0.8,3.6c1.9,4.2,3.7,8.4,5.8,12.5C98.9,35.5,103.7,38.3,110.1,38.6z M359.9,157.2h0.3v-4.4c-0.1-5.9,4.1-10.9,9.9-11.8
				c0.8-0.1,1.1-0.3,1.1-1.1v-18.3c0-0.8-0.3-1-1.1-1c-3.4,0-6.7-0.1-10.1,0.1s-4.3,0.6-4.9,3.4c-0.3,1-0.9,1.9-1.7,2.6
				c-0.2,0.4-0.6,0.6-0.6,1.1c0.5,3.8,0.1,7.6,1.6,11.3s1.9,6.3,2.9,9.5S359,154.3,359.9,157.2z M186.4,260.4c-1.1,0-2.3,0.1-3.4,0
				s-1.5,0.5-1.1,1.6c0.7,2,1.7,3.8,3,5.4c4.4,5.1,10,7.2,16.6,6s11-5.1,13.4-11.4c0.4-1.2,0.4-1.7-1.1-1.6s-4.4,0-6.6,0
				c-1-0.1-1.9,0.3-2.5,1.1c-2.6,3.5-7.6,4.2-11.1,1.5c-0.4-0.3-0.7-0.6-1-0.9c-1-1.3-2.6-1.9-4.2-1.7
				C187.7,260.5,187.1,260.5,186.4,260.4z M138.9,39.6l-15.1,12.7c2.9,0.7,5.4,2.3,7.2,4.6c0.7,0.8,1.4,1.6,2.2,2.3
				c1.8,1.8,4.5,2.5,6.9,1.6c2.5-0.7,4.5-2.8,4.9-5.4c0.7-3-0.6-5.3-2.5-7.4C140.3,45.7,139,42.7,138.9,39.6z M127.1,55.8
				c-0.1,0.2-0.1,0.3-0.1,0.5l7.5,16.2c0.3,0.5,0.6,0.9,1.1,1.2c2.1,1.8,4.6,1.2,7,1.2h8c-1.4-4.5-3.5-8.7-6.2-12.5
				c-0.6-0.8-0.9-1.1-1.9-0.6c-4.4,2.3-8.7,1.4-11.9-2.4C129.6,58,128.4,56.8,127.1,55.8z M337,134.8c0-3.8-2.4-6.3-5.9-6.3
				s-7.7,2.3-7.7,6.2c-0.1,3.7,2.9,6.8,6.6,6.9C333.8,141.7,336.9,138.6,337,134.8L337,134.8z M373.2,130.6c0,2.9,0.1,5.8,0,8.6
				s0.6,1.5,1.7,1.2c4.2-1.2,6.9-5.1,6.9-9.8c0-4.5-2.9-8.5-7.3-9.8c-0.9-0.2-1.3-0.1-1.3,1C373.3,124.7,373.2,127.7,373.2,130.6z
				 M165.9,68.7c0.2-3-1.7-5.7-4.5-6.6c-5.4-1.9-5.4-1.9-6.8,3.7c-0.9,3.3,1,6.8,4.3,7.8c1.4,0.4,2.8,0.6,4.2,0.9s1.1,0.4,1.3-0.5
				S165.8,70.3,165.9,68.7z M358.2,118.7h5c0.5,0,1-0.1,1.4-0.4c2.2-1.6,2.9-5.4,1.4-8s-5.1-4-7.7-2.8c-0.7,0.3-0.9,0.6-0.5,1.2
				C359.5,111.8,359.6,115.5,358.2,118.7z M297.6,47.3c0.1-2.9-2.2-5.4-5.1-5.5c-0.1,0-0.1,0-0.2,0c-3-0.4-5.8,1.6-6.2,4.7
				c-0.4,3,1.6,5.8,4.7,6.2c0.5,0.1,1,0.1,1.5,0C295.2,52.7,297.6,50.3,297.6,47.3z M313,47.9c0.3-2.5-1.2-4.9-3.5-5.8
				c-2.1-0.7-4.5-0.1-6,1.6c-0.8,0.8-0.9,2.1-0.2,3l2.6,4c1.4,2.2,2.9,2.5,5,0.9C312.2,50.8,312.9,49.4,313,47.9z M301.2,64.1
				L301.2,64.1c1.9,0,3.8-0.1,5.8,0s1.3-0.3,0.8-1.3c-0.6-1.5-1.9-2.6-3.4-2.9c-1.9-0.4-3.9-0.5-5.8-0.3c-1.8,0.1-3.4,1.2-4.2,2.8
				c-0.5,0.9-0.3,1.3,0.8,1.3S299.2,64,301.2,64.1z M224.2,76.5h-9c-0.8,0-1.1,0.2-1.1,1v10.2C218.2,80.8,218.2,80.8,224.2,76.5
				L224.2,76.5z M37.9,267.2c-2.2,0-3.9,1.7-3.9,3.9c0,2.2,1.7,3.9,3.9,3.9s3.9-1.7,3.9-3.9V271C41.7,268.9,40,267.2,37.9,267.2z
				 M304.1,65.9h-8.6c1.4,2.4,4.5,3.2,6.9,1.7C303.1,67.2,303.7,66.6,304.1,65.9z M203.1,260.5h-9.3
				C196.3,263.4,200.1,263.4,203.1,260.5z M349.8,247.4l-0.3-0.4c-0.1,0.1-0.2,0.2-0.2,0.3v0.4L349.8,247.4z"/>
			<path class="st1" d="M278,54.4l-2.4,2.6c-3,1.9-6.5,2.8-10,2.7h-2.9c-2.8-0.3-5.7-0.4-8.5-0.3c-0.6,0-1.2-0.3-1.6-0.8
				c-1.3-3.1-2.8-6.1-3.5-9.4c-3.4-16.7,7.3-33.1,24-36.5c14.7-3,29.5,4.9,35,18.9c0.5,1.2,0.9,2.4,1.2,3.7c0.5,1.9,0.2,2.1-1.8,2.2
				s-2.6-0.3-3.9,0.2c-0.6-0.2-1.3-0.2-1.9-0.1l-0.7-0.3c-3.9,0-7.8-0.2-11.8,0s-7.4,2.9-8.2,6.8c-0.4,0.6-0.6,1.2-0.6,1.9
				C280,48.9,279.6,51.8,278,54.4z M271.9,42.3c0.1-5.1-4-9.4-9.1-9.5s-9.4,4-9.5,9.1l0,0c-0.1,5.1,4,9.4,9.1,9.5
				S271.8,47.4,271.9,42.3z"/>
			<path class="st2" d="M281.5,100.4l1.8-0.8l17.7-8c4.3-2,8.6-4,13.4-4.4c7.4-0.7,14.7,1.6,20.4,6.3l1.8,1.4l1.5,1.5
				c0.8,1.4,1.7,2.7,2.6,4.1c-14.1-2-27.3,1.2-40.4,6.1s-23.4,8.1-35.1,12.2c-1.5,0.6-2.1,0.2-2.4-1.3s-1.7-4.9-2-7.5l10.7-4.8
				c1.4-0.7,2.9-1,4-2.2c0.7,0,1.4-0.3,1.9-0.8C278.9,101.9,280.3,101.3,281.5,100.4z"/>
			<path class="st3" d="M121.7,65.5c-0.6,0.4-1,0.9-1.1,1.6c-2,1.5-4,2.7-6.7,2.3c-3.9-0.5-6.7-4.1-6.2-8.1v-0.1
				c0.2-1.1-0.1-1.2-1-0.9L98,62.5c-6.3,1.5-11.7,0.1-16-5c-1.9-2.2-2.6-4.9-3.4-7.6s-1.5-6-2.3-9c0.5-0.3,0.8-0.9,0.8-1.5l11.3-2.8
				c7.9-2,16,2.8,18,10.7v0.1c0.8,3.4,1.8,6.7,2.7,10.2c1.9-2.1,4.7-3,7.4-2.4c3.9,0.9,6.4,4.8,5.5,8.7L121.7,65.5z"/>
			<path class="st3" d="M17,256h-1.9c-0.3-0.3-0.6-0.4-1-0.4c-5.8-1.2-9.4-4.7-10.7-10.4s-2.1-10.4-3.2-15.6
				c-0.4-1.7-0.2-3.2,1.4-4.2s3.1-0.4,4.3,1c-0.5,0.6-0.6,1.4-0.3,2.1c0.7,3.5,1.4,7.1,2.2,10.7c0.1,0.6,0.2,1.5,1.1,1.3
				s0.7-1.1,0.6-1.8c-0.4-2.3-0.8-4.6-1.4-6.9s-0.2-4-1.7-5.5c0.5-1.7,1.5-2.7,3.4-2.6s2.7,1.3,3,3c1,4.5,1.9,8.9,2.8,13.4
				c0.1,0.4,0,1,0.6,1.4c1.1-4.9,2.1-9.8,3.1-14.6c0.4-1.8,1.2-3,3.1-3.2c1.6-0.1,3.1,1,3.4,2.6c-0.7,0.4-1.1,1.2-1.1,2
				c-0.8,3.5-1.5,7-2.2,10.6c-0.1,0.7-0.3,1.4,0.6,1.6s1-0.6,1.2-1.3c0.6-2.9,1.3-5.8,1.8-8.7c0.2-1.4,1.1-2.8,0-4.1
				c1.2-1.1,2.5-1.9,4.2-1.1c1.5,0.6,2.3,2.3,1.8,3.9c-1.1,5.7-2.1,11.4-3.5,17s-5.2,8.4-10.6,9.4C17.6,255.5,17.2,255.7,17,256z"/>
			<path class="st2" d="M366,177.2c-1.9-5.9-4.5-11.6-3.9-18.1c0.2-3-0.4-6.1,0.3-9.1s4.9-7.5,9.2-7.3c1.4-0.1,2.8-0.3,4.2-0.6
				c0.9,2.4,1.6,4.8,2.1,7.3c0.8,5.7-0.6,11.6-3.9,16.3C371.4,169.6,368.6,173.4,366,177.2z"/>
			<path class="st3" d="M144.8,47.6c-3-2.5-4.4-6.3-3.9-10.1c1.3-2.4,3.6-4,6.3-4.4c1.3-0.3,2.5,0.8,3.9,0.3
				c0.7,0.9,1.5,1.6,2.5,2.2l-0.4-2.9c0.7-3.7,2.6-6.2,6.5-7c3.9-0.6,7.6,2,8.5,5.8c0.7,4.6-2.3,8.6-6.4,9c-1.4,0.1-2.8-0.5-4.2-0.1
				c-0.7-0.9-1.5-1.6-2.5-2.2l0.4,2.8c-0.7,2.8-1.7,5.2-4.5,6.4S146.9,48,144.8,47.6z"/>
			<path class="st0" d="M109.2,243.8c-7,3.7-13.7,3.6-20-1c-6.5-4.7-9-13.2-6-20.7c3-7.6,10.4-12,19-11.1s13.8,6.9,15.1,14.7
				c0.2,1.1,0.3,2.2,0.3,3.3c-0.2,1.2,0.1,1.6,1.4,1.4c6.4-0.7,12.2,4,12.8,10.5c0.6,5.5-2.8,10.7-8.1,12.3c-6,1.6-12.2-1.8-14-7.8
				C109.5,244.9,109.4,244.4,109.2,243.8z M84.1,229.6c0.2,5.5,3.4,10.4,8.3,12.8c5.5,3,11,2.6,16.3-0.8c1.9-1.2,2.4-1,2.5,1
				c0.4,5.3,5,9.3,10.3,8.9s9.3-5,8.9-10.3c-0.4-5.3-5-9.3-10.3-8.9c-1.2,0.1-2.5,0.4-3.6,1c-1.2,0.6-2.2,1.4-3.1,2.4
				c-0.4,0.3-0.8,0.5-1.3,0.1c-0.4-0.2-0.6-0.8-0.3-1.2c0.1-0.1,0.1-0.2,0.2-0.3c0.7-0.8,1.4-1.5,2.3-2.1c0.6-0.3,1.1-0.9,1.1-1.6
				c1.1-8.8-5.5-17.1-14.3-17.7S84.2,219.3,84.1,229.6z"/>
			<path class="st3" d="M165.7,54.3l-2.2-1.8l0.3,2.8c-0.2,1.7-0.9,3.4-2,4.8l-1.1-0.2c-2.9-0.4-5.3-1.2-4.9-5.1
				c0.1-0.9-0.7-1.9-1.8-0.7s-0.4,0.4-0.8,0.3s-1.3-0.1-1.3,0.9s0,0.3-0.1,0.3c-1.4,1.5-1.4,1.5,0.3,2.8s2.7,1.6,1.4,3.5
				c-2.9-1.1-4.8-3.9-4.8-7c0.1-3.2,2.1-5.9,5.1-7c1.9-0.6,3.7-0.1,5.5,0h-0.1l0.6,0.4l2,1.5c0.1-0.9,0-1.8-0.3-2.6
				c0.6-1.7,0.9-3.4,2.3-4.8c2.9-3,7.6-3,10.6-0.1c2.2,2.1,2.9,5.4,1.7,8.2c-1.5,3.4-5.2,5.2-8.8,4.2L165.7,54.3z"/>
			<path class="st3" d="M147.2,26.5c-2,0.2-3.8,0.8-5.8,0.4c-4.6-0.8-7.8-5-7.5-9.6c0.2-4.9,4.1-8.8,9-9c3.7,0,7.1,2.2,8.7,5.5
				c1.7,3.3,1.1,7.2-1.3,9.9c-0.5,0.6-1.2,1-1.3,1.8C148.2,25.4,147.5,25.8,147.2,26.5z"/>
			<path class="st3" d="M100.9,98l1.8,0.8c2.2,1.2,4.4,2.2,6.6,3.5c2,1.1,2.9,3.6,2.1,5.8c-0.8,2.1-2.9,3.4-5.1,3.2l-1.5-0.4
				l-14.6-7.1c-2.1-1-3.1-3.3-2.5-5.5c0.5-2,2.3-3.5,4.4-3.7c1,0,2,0.3,2.9,0.7L100.9,98z M92.7,98.6c-0.7,0-1,0.3-1.1,0.7
				s0.4,1,0.9,1.3l7.4,3.6l6.1,2.9c0.5,0.3,1.2,0.5,1.6-0.3s-0.2-1.1-0.7-1.4l-0.5-0.3L93.7,99L92.7,98.6z"/>
			<path class="st3" d="M32.8,60.6c-0.2-3.4,2.2-6.7,6.9-6.9s6.7,3.1,6.7,7c0,3.8-3.1,6.8-6.8,6.8S32.8,64.4,32.8,60.6z"/>
			<path class="st3" d="M108.2,87.8c0-0.5,0.2-1,0.6-1.3c2.9-0.4,5.9-0.4,8.8,0l1.9,1.2c1,1.9,1,4.1,0,6l-1.9,1.2
				c-2.6,0.6-4.4-0.5-5.9-2.5L108.2,87.8z"/>
			<path class="st3" d="M97.6,78.3c1.2-0.3,2.4,0.1,3.7,0.1c2.1,2.2,3.9,4.6,5.6,7.1c0,0.5-0.2,1-0.6,1.3c-1.9,0.1-3.9,0-5.8,0.2
				c-2.5,0.3-4.8-1.1-5.7-3.4v-2.3l0,0c0.2,0,0.4-0.2,0.4-0.4l0,0C95.8,79.9,96.6,79,97.6,78.3z"/>
			<path class="st3" d="M6.8,72.7c-2.5,0-4.5-2-4.5-4.5s2-4.5,4.5-4.5s4.5,2,4.5,4.5c0.1,2.4-1.9,4.4-4.3,4.5
				C6.9,72.7,6.9,72.7,6.8,72.7z"/>
			<path class="st0" d="M77.1,39.4c0,0.6-0.3,1.2-0.8,1.5l-9.4-1.2c-0.8-0.1-1.9,0-1.7-1.2s1.1-0.8,1.9-0.7c1.1,0.1,2.3,0.1,3.4-0.1
				l-2.9-1.8c-0.6-0.4-1.5-0.7-1-1.7s1.2-0.4,1.9,0l3.1,1.7c-0.2-1.4-1.2-2.2-1.8-3.2s-0.9-1.2-0.2-1.8s1.4,0,1.8,0.6L77.1,39.4z"/>
			<path class="st4" d="M34.6,105.8l-5.8-1.7c-0.6-0.2-1.5-0.3-1.3-1.2s1-0.8,1.7-0.6l6.8,1.9c1,0.3,1.3,0.9,0.7,1.9l-4.6,6.3
				c-0.3,0.5-0.7,1-1.4,0.5s-0.5-1-0.1-1.6L34.6,105.8z"/>
			<path class="st0" d="M94.7,81.3v2.3l-10,7.8c-0.7,0.5-1.3,1.3-2.1,0.3s0.2-1.3,0.8-1.8C87.3,87.1,90.8,83.9,94.7,81.3z"/>
			<path class="st5" d="M6.4,226.3c1.5,1.5,1.1,3.7,1.7,5.5s1,4.6,1.4,6.9c0.1,0.7,0.6,1.6-0.6,1.8s-1-0.7-1.1-1.3
				c-0.8-3.6-1.5-7.2-2.2-10.7c-0.3-0.7-0.2-1.5,0.3-2.1L6.4,226.3z"/>
			<path class="st5" d="M26.1,226.4c1.1,1.3,0.2,2.7,0,4.1c-0.5,2.9-1.2,5.8-1.8,8.7c-0.2,0.7-0.2,1.5-1.2,1.3s-0.7-0.9-0.6-1.6
				c0.7-3.6,1.4-7.1,2.2-10.6c0-0.8,0.4-1.6,1.1-2L26.1,226.4z"/>
			<path class="st0" d="M161.5,47.2c0.3,0.8,0.4,1.7,0.3,2.6l-2-1.5c-0.2-0.2-0.1-0.6-0.6-0.4h0.1c-1-2.4-2.3-4.7-3.8-6.9l-0.4-2.8
				c1,0.6,1.8,1.3,2.5,2.2L161.5,47.2z"/>
			<path class="st4" d="M151.2,275c-0.1,1-0.7,1.4-1.4,1.1l-8-3.1c-0.5-0.2-0.7-0.8-0.5-1.3s0.6-0.8,1.1-0.6c2.8,1,5.6,2.2,8.3,3.3
				C151,274.5,151.1,274.9,151.2,275z"/>
			<path class="st0" d="M143.1,282.5l-2.8,0.2c-0.4,0.1-0.8-0.2-0.9-0.7c0-0.1,0-0.1,0-0.2c-0.1-0.5,0.2-1,0.7-1.1h0.1l8.9-0.5
				c0.4-0.1,0.8,0.2,0.9,0.7c0,0.1,0,0.2,0,0.3c0,0.6-0.5,0.9-1.1,1L143.1,282.5L143.1,282.5z"/>
			<path class="st0" d="M147.2,26.5c0.3-0.7,1-1.1,1.8-1l4.2,7.2l0.4,2.9c-1-0.6-1.8-1.3-2.5-2.2L147.2,26.5z"/>
			<path class="st0" d="M95.1,80.9c0,0.2-0.2,0.4-0.4,0.4l0,0L95.1,80.9z"/>
			<path class="st2" d="M214.3,166.9c-0.6-0.4-0.3-1-0.3-1.5v-31.5c-0.2-1.1,0.4-2.2,1.5-2.4l0,0l7.5-3.6c1-0.5,1.3-0.3,1.6,0.7
				c2.5,8.5,4.9,17,7.6,25.5c3.9,12.1,16.4,17.6,27.9,12.2l55.4-25.9l6.3-3.1c1.1,3.2,3.9,5.5,7.2,6c1.9,0.3,3.9-0.1,5.5-1.1
				c0.5-0.2,0.8-0.6,1.4-0.6s2-0.2,1.5,1.7c-6.2,22.5-12.2,45.1-18.3,67.6c-1.1,4.3-2.3,8.6-3.5,12.9c-0.1,0.7-0.5,1.4,0,2.1
				c-1.1,0.1-2-0.6-3-0.7s0.7-1.4-0.2-2s-1,0.1-1.4,0.4l-21.8-7.2l-20.1-6.6c0-0.6-0.3-1.1-0.9-1.1s-0.9,0.9-1.4,1.2l-0.9-0.2
				c-1.9-0.3-2.2-1.4-1.6-3.1s0.7-2.6,1-3.9s0.6-1.3,0.3-2.1c1.5-3.4,2.1-7.1,3.1-10.7s1.7-5.3,1.8-8.1c0.7-0.5,0.4-1.3,0.6-1.9
				c0.6-1.2,1-2.5,1.2-3.9c0.8-3.5,2.1-7,2.6-10.7c3.3-0.4,6.1-2.3,9.1-3.6c0.4-0.2,0.6-0.7,0.4-1.1c0,0,0-0.1-0.1-0.1
				c-0.3-0.5-0.8-0.5-1.3-0.2l-7.3,3.2c-0.7,0.1-1.1,0.8-1,1.4c0,0.1,0.1,0.3,0.2,0.4l-1.5,0.7l-23.6,11.2c-6.9,0.1-13.8,0.2-20.7,0
				C223.4,174.9,218,172.2,214.3,166.9z"/>
			<path class="st6" d="M338.2,130.1c0.9,0.2,1.9,1.6,2.6,0.3s-0.9-1.5-1.6-1.9c-4.3-2.5-9.5-2.8-14-0.8l-9.2,4.2
				c-0.6,0.3-1.1,0.6-0.9,1.3s1,0.7,1.6,0.5l5.1-2.3c0.2,3-1.1,4.6-3.8,5.8l-58.5,27.3c-10.9,5.1-22.2,0-25.7-11.5l-4.5-15
				c-0.2-0.8-0.5-1.3,0.6-1.8c12-5.1,23.7-11.1,36-15.6c15.2-5.6,30.4-10.8,45.7-15.7c10.7-3.7,22.4-4.3,33.4-1.5
				c2.7,0.7,5.3,1.8,7.8,3c4.2,2.3,5.7,7.5,3.4,11.7c-0.3,0.5-0.6,0.9-0.9,1.3c-0.9,0.8-1.4,1.8-1.6,3c0,0.4-0.2,0.9-0.5,1.2
				c-2.1,2.1-2.3,4.6-2.1,7.5s-1.5,5.3-4.2,6.5s-5.2,2.5-8.2,2.5c-0.9,0-1.5-0.1-0.8-1.3c1.5-2.7,1.2-5.5,0-8.3L338.2,130.1z"/>
			<path class="st7" d="M119.5,93.7c1-1.9,1-4.1,0-6c0-2.9,0.1-5.8,0-8.6s0.3-2.3,2.2-2.3c29.4,0.1,58.8,0,88.3,0
				c0.3,0.1,0.6,0.1,0.9,0c1-0.1,1.4,0.3,1.3,1.3c-0.1,0.7-0.1,1.5-0.1,2.2c0,31.6,0,63.1,0.1,94.6c0,2-0.6,2.3-2.4,2.3h-88.3
				c-1.6,0-2-0.4-2-2V93.7z M203.9,127.1V88.3c0-2.4,0-2.4-2.5-2.4h-71c-2.7,0-2.7,0-2.7,2.6v77c0,2.6,0,2.6,2.6,2.6h71.4
				c1.7,0,2.2-0.4,2.2-2.2L203.9,127.1z"/>
			<path class="st7" d="M198.3,252.1h-46.9c-1.7,0-2-0.4-1.7-2c3-22.8,21.7-40.3,44.6-41.9c12.2-0.9,23.4,1.8,33.4,9.2
				s17.5,19.5,19.5,33.3c0.3,1.7-0.9,1.3-1.7,1.3L198.3,252.1L198.3,252.1z M198.4,247h17.8c2.9,0,4.6-1.5,4.7-3.9s-1.8-4.3-4.6-4.3
				h-35.8c-1,0-2,0.2-2.9,0.8c-1.4,1.1-2,2.9-1.5,4.6c0.5,1.8,2.2,2.9,4,2.8L198.4,247z M198.3,233.8h17.9c2.9,0,4.6-1.5,4.7-4
				s-1.8-4.2-4.7-4.2h-35.6c-2.8,0-4.7,1.7-4.7,4.2s1.8,4,4.8,4H198.3z"/>
			<path class="st8" d="M275.5,103c-1.1,1.2-2.6,1.5-4,2.2l-10.7,4.8c-0.9-2.9-1.7-5.8-2.7-8.7c-0.2-0.7-0.3-1.9-1.5-1.4
				s-0.5,1.1-0.3,1.9c1.7,5.6,3.3,11.3,5,16.9c0.3,1.1,0.2,1.5-0.8,1.9l-30.8,13.7c-1.3,0.6-1.5,0-1.8-1c-1.8-5.9-3.5-11.9-5.3-17.8
				l-0.3-1.1c-0.2-0.7-0.5-1.2-1.3-1s-0.7,0.9-0.5,1.6c0.9,2.9,1.7,5.9,2.7,8.9c0.5,0.8,0.2,1.7-0.5,2.2c-0.1,0.1-0.3,0.2-0.5,0.2
				c-2.7,1.1-5.3,2.5-8.1,3.8c-0.2-4.4,0-8.5,0.2-12.7c0.4-8.1,0.7-16.2,1.1-24.3c0.3-6.3,3.4-10.8,8.6-14c4-2.5,8.3-4.2,12.9-5.2
				c4.9-1.2,9.8-2.2,14.8-3.3l0.2,0.3c-1.8,4.4-1.9,9.4-0.1,13.8c3.1,7.8,12.2,10.4,18.8,5.2c2.6-2.1,5-4.3,7.7-6.7
				c1.1,5.9,2.1,11.6,3.2,17.2c-1.2,0.9-2.6,1.5-4.1,1.8v-7c0-0.7,0.2-1.7-0.9-1.7s-1,0.9-1,1.7V103z"/>
			<path class="st6" d="M270.5,181.8c-0.1,2.8-1.1,5.5-1.8,8.1s-1.6,7.3-3.1,10.7l-2.4,0.2h-95.4c-5.2,0.2-9.8-3.3-10.9-8.4
				c-1.5-6.9,3.6-13.1,11-13.2l21.7,0.2h71C264.2,179.2,267.6,179.4,270.5,181.8z"/>
			<path class="st9" d="M351.5,136.3c1.8,5.7,3.4,11.3,5.1,17l12.3,40.6c1.7,5.2,1.1,10.9-1.6,15.7l-18.6,34.5
				c-5.1,9.6-13.2,14.3-24,14.3h-181c-2.1,0-3.2-0.8-3.2-2.3s1.1-2.2,3.1-2.2h180.5c9.7,0,16.7-4,21.1-12.7
				c2.7-5.2,5.6-10.4,8.4-15.6c1-1.9,0.7-2.3-1.3-2.4c-4.8-0.1-7.3-2.6-7.3-7.3v-31.5c0-4.7,2.7-7.3,7.3-7.4h4.5
				c2.2,0,2.3-0.2,1.7-2.3l-7.5-24.8c-0.9-3-1.7-6-2.7-9c-0.3-1-0.4-1.8,0.8-2.4C350,137.9,350.8,137.1,351.5,136.3z"/>
			<path class="st8" d="M441.3,230.7c-13.4,0-26.7,0.1-40.1,0c-10,0-17.5,4.3-22.5,12.9c-4.5,7.7-11.2,11.6-20.2,11.6h-6.3
				c-1.1,0-1.4-0.4-1.3-1.4c1.1-15.3,7.7-27.7,20.1-36.8c10.4-7.6,22.2-10.2,34.9-8.8c15,1.7,26.7,9,35.2,21.4
				C441.3,230,441.5,230.2,441.3,230.7z"/>
			<path class="st6" d="M269.1,209.8l20.1,6.6l21.8,7.2c-0.2,0.7-0.4,1.4-0.7,2.1c-1.7,5.3,0.7,9.7,6.2,11.1
				c5.7,1.4,10.3,5.7,12,11.4c1,3.3,1,3.4-2.4,3.4h-35.8c-1.4,0.1-2.7-0.4-3.8-1.2c-3.2-2.5-6.6-4.9-9.9-7.4
				c-1.6-1.1-1.9-0.9-2.6,0.9s-0.7,4.2-2.1,4.7s-3.2-0.9-4.8-1.5l-9.3-3.4c-0.7-0.3-1.2-0.4-0.8-1.4
				C261.1,231.5,265.1,220.6,269.1,209.8z"/>
			<path class="st10" d="M400,289.6c-17.9,0-32.5-14.1-33.4-31.9c-0.1-1.3,0.3-1.8,1.5-2.3c5.3-2.1,9.6-6,12.3-11
				c3.3-6.1,9.3-10.4,16.2-11.5c1.3-0.2,2.7-0.2,4.1-0.3h21c1.2-0.1,2.3,0.5,3,1.4c8.2,9.6,10.7,20.5,6.8,32.4s-12.5,19.7-25,22.5
				c-1.3,0.3-2.7,0.5-4.1,0.6L400,289.6z M419.2,256c-0.1-10.7-8.8-19.2-19.5-19.1c-0.1,0-0.1,0-0.2,0c-10.6,0.3-19.2,9.2-18.9,19.6
				c0.3,10.4,9.1,19.4,19.5,19.2S419.5,266.5,419.2,256z"/>
			<path class="st2" d="M332.7,223.4h-2c-4.4-0.3-8.8,0.3-13.1,0.4c5.1-19.2,10.2-38.4,15.4-57.5c2-7.7,4.1-15.3,6.1-22.9
				c0.3-1,0.7-1.5,1.6-1.7c1.3-0.1,2.6-0.5,3.7-1.1c1.3-0.7,1.9-0.4,2.3,1.1c1.7,5.7,3.4,11.5,5.2,17.2s2.8,9.7,4.4,14.6
				c0.4,1.4,0.1,1.9-1.4,1.8c-1.8-0.1-3.6,0-5.4,0.2c-3.5,0.8-6,3.8-6.2,7.3c-0.4,0.5-0.5,1-0.4,1.6v23.7c0,0.5-0.1,1,0.3,1.4
				l-0.3,0.7c-2.7,3.8-5.4,7.5-8,11.3C334.4,222.3,333.6,223,332.7,223.4z"/>
			<path class="st6" d="M185.1,49.4V26.2c0-1.4,0.1-1.9,1.7-1.9h46.9c1.4,0,1.7,0.4,1.7,1.7v44.6c0.1,1.3-0.3,1.7-1.5,2.2
				c-4.3,1.8-8.7,1.8-13.2,1.8h-33.4c-2,0-2.3-0.6-2.2-2.4C185.2,64.6,185.1,57,185.1,49.4z M210.2,30.7h-17c-1.3,0-1.8,0.4-1.7,1.7
				v34.1c-0.1,1.3,0.4,1.7,1.7,1.7h34.1c1.3,0,1.7-0.5,1.7-1.7c0-11.4-0.1-22.8,0-34.1c0-1.4-0.4-1.7-1.7-1.7H210.2z"/>
			<path class="st8" d="M172.5,260.4h0.2c2,0,4.3-0.5,6.1,0.1s1.5,3.4,2.6,5.1c4.1,6.9,10.2,10.5,18.3,9.9s14.1-5.1,16.9-13.1
				c0.6-1.6,1.3-2.2,3-2.1c3.4,0.2,6.7,0.2,10.1,0c1.9-0.1,1.7,0.9,1.4,2c-1.7,8.4-5.7,15.3-12.5,20.4c-14.6,11.2-35.5,8.4-46.7-6.2
				c-3.1-4-5.2-8.7-6.2-13.6c-0.5-2.5-0.5-2.5,2.1-2.5L172.5,260.4L172.5,260.4z"/>
			<path class="st10" d="M168.9,214.7c1.5-3.5,2.4-7.2,2.7-11c0.1-0.8,0.4-1,1.1-1c0.3,0,0.5,0,0.8,0h87.9
				c-10.5,10.8-14.7,23.6-14.1,38.2c-5.8-16-16.5-27.3-32.7-32.4S183.2,205.6,168.9,214.7z"/>
			<path class="st11" d="M110.1,38.6c-6.4-0.3-11.2-3.1-14.1-8.9c-2.1-4.1-3.9-8.3-5.8-12.5c-0.7-1.4-0.7-2.7,0.8-3.6
				s2.7-0.1,3.5,1.5c1.6,3.5,3.2,7,4.9,10.5c0.3,0.6,0.5,1.8,1.6,1.2s0.4-1.4,0.1-2.1c-1.4-3.1-2.8-6.1-4.3-9.1L96.2,14
				c-0.5-1.2,0-2.5,1.2-3s2.5,0,3,1.1c1.3,2.5,2.5,5,3.7,7.6c0.4,0.9,0.7,1.8,1.2,2.7s0.6,2.2,1.8,1.5s0.2-1.6-0.1-2.4l-4.2-9
				l-0.6-1.5c-0.6-1-0.3-2.3,0.7-2.9c0.1,0,0.2-0.1,0.3-0.1c0.9-0.7,2.3-0.5,2.9,0.5c0.1,0.2,0.2,0.3,0.3,0.5
				c1.2,2.3,2.3,4.8,3.4,7.2l1.8,3.7c0.3,0.7,0.5,1.8,1.6,1.3s0.4-1.4,0.1-2.1l-4.8-10.3c-0.8-1.8-0.5-3.1,0.8-3.7s2.6-0.2,3.5,1.6
				s2.9,6.3,4.4,9.4c0.3,0.5,0.5,1,0.7,1.6c0.3,0.6,0.7,0.9,1.4,0.6s0.6-0.9,0.3-1.5l-4.4-9.5l-0.9-2c-0.4-1.3-0.2-2.4,1.1-3
				c1-0.6,2.4-0.3,3,0.7c0.1,0.1,0.1,0.2,0.2,0.3c0.5,1,0.9,2.1,1.4,3.1c1.7,3.5,3.4,7,4.9,10.6c2.7,6.9,0.3,14.7-5.8,18.9
				c-1,0.7-1.5,0.6-2-0.6c-0.5-1.3-1.1-2.5-1.7-3.7c-0.3-0.7-0.6-1.7-1.7-1.2s-0.3,1.3,0,1.9l1.9,4.2c0.4,0.7,0.3,1.1-0.5,1.3
				C113.5,38.4,111.8,38.6,110.1,38.6z"/>
			<path class="st10" d="M278,54.4c1.6-2.6,2-5.5,2.4-8.5h0.9c1.1,0,2.3-0.3,3.2,0.1s0.4,1.9,0.6,2.9c0.9,3.4,4,5.8,7.6,5.7
				c3.7-0.3,6.6-3.2,6.9-6.9c0-0.6-0.5-1.5,0.3-1.7s1.1,0.6,1.5,1.2c1.5,2.4,3,4.8,4.7,7.2s0.3,1.3-0.7,1.6s-4.6,1.9-7.2,1.8
				c-0.6,0-1.2,0.2-1.8,0.5c-2.5,0.9-4.6,3.9-4.5,6.1c0.1,2.2,4.2,5.3,6.3,5.7c1.9,0.4,4,0,5.7-0.9l0.3,0.3
				c-2.4,7.7-9.1,12.7-16.7,12.6s-12.8-7.1-11.8-13.9C276.4,63.6,277.2,59,278,54.4z"/>
			<path class="st8" d="M265.6,59.7c3.5,0.1,7-0.8,10-2.7c-0.5,2.7-0.8,5.4-1.4,8.1c-1.3,5.9,0,11,4.4,15.3l-8.1,7.1
				c-3.3,2.9-6.9,4.1-11.2,2.4s-6.1-5.4-6.7-9.7s0.8-9.6,5-13S262.9,62.2,265.6,59.7z"/>
			<path class="st10" d="M317.6,223.8c4.3-0.1,8.7-0.7,13.1-0.4c0.9,6.9,5,11.1,11.4,13.4c2.7,1,2.6,1,1.3,3.6
				c-2.1,4.5-5.8,8.2-10.4,10.2c-1.3,0.5-1.9,0.6-2.3-1.1c-1.7-7.7-6.4-12.6-14.1-14.6c-4.4-1.2-5.9-5-4-9.7c1,0.1,1.9,0.8,3,0.7
				S317,224.6,317.6,223.8z"/>
			<path class="st8" d="M359.9,157.2c-0.9-2.9-1.8-5.8-2.6-8.6s-1.6-6.5-2.9-9.5s-1.1-7.5-1.6-11.3c0-0.5,0.4-0.7,0.6-1.1
				c0.8-0.7,1.4-1.6,1.7-2.6c0.6-2.8,2.7-3.3,4.9-3.4s6.7-0.1,10.1-0.1c0.8,0,1.1,0.2,1.1,1v18.2c0,0.8-0.3,1-1.1,1.1
				c-5.8,0.9-10,5.9-9.9,11.8v4.4L359.9,157.2z"/>
			<path class="st9" d="M340.7,100.5c-0.9-1.4-1.8-2.7-2.6-4.1c12.3-2.4,24.1-1.2,35.4,4.4c4.2,2.1,5.8,5.5,5.1,9.8
				c-0.3,1.7-1.1,3.2-2.4,4.4c-0.4,0.4-1,0.7-1.1,1.2c-0.3,2.7-2.1,2.7-4.1,2.5s-2.5,0-4,0c1.1-2.2,2-4.2,1.5-6.6
				c-0.7-4.4-4.8-7.5-9.2-6.8c-0.6,0.1-1.2,0.3-1.8,0.5c-0.8,0.4-1.8,0.3-2.5-0.2C350.6,102.8,345.7,101.5,340.7,100.5z"/>
			<path class="st10" d="M186.4,260.4c0.7,0.1,1.3,0.1,2,0c1.6-0.2,3.2,0.4,4.2,1.7c3,3.2,8,3.4,11.2,0.4c0.3-0.3,0.7-0.7,0.9-1
				c0.6-0.8,1.5-1.2,2.5-1.1c2.2,0,4.4,0.1,6.6,0s1.5,0.4,1.1,1.6c-2.4,6.3-6.9,10.2-13.4,11.4s-12.2-0.9-16.6-6
				c-1.3-1.6-2.3-3.4-3-5.4c-0.4-1.1-0.5-1.8,1.1-1.6S185.3,260.4,186.4,260.4z"/>
			<path class="st7" d="M138.9,39.6c0.1,3.1,1.4,6.1,3.6,8.4c1.9,2.1,3.2,4.4,2.5,7.4c-0.4,2.6-2.4,4.7-4.9,5.4
				c-2.4,0.9-5.1,0.2-6.9-1.6c-0.8-0.7-1.5-1.5-2.2-2.3c-1.8-2.3-4.3-3.9-7.2-4.6L138.9,39.6z"/>
			<path class="st7" d="M337,134.8c-0.1,3.8-3.2,6.9-7,6.8l0,0c-3.7-0.1-6.7-3.2-6.6-6.9c0-3.9,2.9-6.2,7.7-6.2S337,131,337,134.8z"
				/>
			<path class="st10" d="M373.2,130.6c0-2.9,0.1-5.9,0-8.8c0-1.1,0.4-1.2,1.3-1c4.4,1.3,7.3,5.3,7.3,9.8c0,4.7-2.7,8.6-6.9,9.8
				c-1.1,0.3-1.7,0.3-1.7-1.2S373.2,133.5,373.2,130.6z"/>
			<path class="st9" d="M165.9,68.7c-0.1,1.6-1,3.4-1.5,5.3s-0.8,0.7-1.3,0.5s-2.8-0.5-4.2-0.9c-3.3-1-5.2-4.5-4.3-7.8
				c1.4-5.6,1.4-5.6,6.8-3.7C164.2,63,166.1,65.7,165.9,68.7z"/>
			<path class="st9" d="M281,44c0.8-3.9,5-6.7,8.2-6.8s7.9,0,11.8,0l0.7,0.3l0.9,3c0.1,1.6-0.9,3.1-2.5,3.5
				c-0.7,0.1-1.5-0.2-1.8-0.9c-3.2-4.3-8.7-4.3-11.9-0.1c-0.4,0.7-1.2,1-2,1C283.2,43.9,282.1,44,281,44z"/>
			<path class="st12" d="M358.2,118.7c1.4-3.2,1.3-6.9-0.4-10c-0.4-0.6-0.2-0.9,0.5-1.2c2.6-1.2,6.1,0.1,7.7,2.8s0.8,6.4-1.4,8
				c-0.4,0.3-0.9,0.4-1.4,0.4L358.2,118.7z"/>
			<path class="st12" d="M297.6,47.3c0,3-2.4,5.4-5.4,5.4c-3,0.4-5.8-1.8-6.1-4.8c-0.4-3,1.8-5.8,4.8-6.1c0.5-0.1,1-0.1,1.5,0
				c2.9,0,5.3,2.4,5.3,5.3C297.6,47.2,297.6,47.2,297.6,47.3z M296.4,47.4c-0.2-1.2-0.9-2-2.1-1.9c-1-0.1-1.8,0.7-1.9,1.7
				c0,0.1,0,0.1,0,0.2c0,1.1,0.9,2,2,2S296.4,48.5,296.4,47.4z"/>
			<path class="st12" d="M313,47.9c-0.1,1.5-0.8,2.9-2.1,3.7c-2.1,1.6-3.6,1.3-5-0.9l-2.6-4c-0.7-0.9-0.6-2.2,0.2-3
				c1.5-1.7,3.9-2.3,6-1.6C311.8,43,313.3,45.4,313,47.9z M310.3,45.5c-1.1-0.1-2,0.8-2.1,1.9l0,0c-0.1,1.1,0.8,2,1.9,2.1
				s2-0.8,2.1-1.9C312.3,46.3,311.5,45.7,310.3,45.5z"/>
			<path class="st13" d="M301.2,64.1c-2-0.1-4-0.3-6-0.3s-1.3-0.4-0.8-1.3c0.8-1.6,2.4-2.7,4.2-2.8c1.9-0.2,3.9-0.1,5.8,0.3
				c1.5,0.3,2.8,1.4,3.4,2.9c0.5,1,0.3,1.3-0.8,1.3s-3.9,0-5.8,0L301.2,64.1z"/>
			<path class="st11" d="M37.9,267.2c2.2,0,3.9,1.7,3.9,3.9c0,2.2-1.7,3.9-3.9,3.9s-3.9-1.7-3.9-3.9l0,0
				C34.1,269,35.8,267.3,37.9,267.2z"/>
			<path class="st12" d="M254.2,59.3c2.8-0.1,5.7,0,8.5,0.3l-6.8,6.6c-0.6,0.6-0.9,0.6-1.2-0.3C254,63.8,253.8,61.5,254.2,59.3z"/>
			<path class="st13" d="M304.1,65.9c-1.4,2.4-4.5,3.2-6.9,1.7c-0.7-0.4-1.3-1-1.7-1.7H304.1z"/>
			<path class="st13" d="M203.1,260.5c-3,2.9-6.8,2.9-9.3,0H203.1z"/>
			<path class="st14" d="M343.2,209.5c-0.4-0.4-0.3-0.9-0.3-1.4v-23.7c-0.1-0.6,0-1.1,0.4-1.6C343.2,191.7,343.2,200.6,343.2,209.5z
				"/>
			<path class="st0" d="M131.2,70.4c0.2,0,0.4,0.2,0.3,0.5c0,0.1-0.1,0.2-0.1,0.2l-0.5-0.3L131.2,70.4z"/>
			<path class="st0" d="M349.8,247.4l-0.5,0.3v-0.4c0-0.1,0.1-0.2,0.2-0.3L349.8,247.4z"/>
			<path class="st0" d="M364.6,219.8c-0.2,0.1-0.3,0.6-0.6,0.3c-0.1-0.2,0.1-0.4,0.3-0.5l0,0L364.6,219.8z"/>
			<path class="st0" d="M67.6,81.8h0.9L68,82.3L67.6,81.8z"/>
			<path class="st8" d="M251.7,70.6h0.4l-0.2,0.3L251.7,70.6z"/>
			<path class="st10" d="M303.9,69.2l0.3-0.2v0.5L303.9,69.2z"/>
			<path class="st0" d="M364.9,219.5l-0.3,0.3l-0.3-0.2l0.2-0.6L364.9,219.5z"/>
			<path class="st6" d="M337.9,130.5c-0.1-0.1-0.3-0.3-0.1-0.5h0.4L337.9,130.5z"/>
			<path class="st4" d="M275.5,103v-7.8c0-0.8,0-1.7,1-1.7s0.9,1,0.9,1.7v7C276.9,102.7,276.2,103,275.5,103z"/>
			<path class="st9" d="M159.2,47.9c0.5-0.2,0.4,0.2,0.6,0.4L159.2,47.9z"/>
			<path class="st13" d="M92.7,98.6l1,0.4l12.7,6.1l0.5,0.3c0.5,0.3,1.1,0.7,0.7,1.4s-1.1,0.6-1.6,0.3l-6.1-2.9l-7.4-3.6
				c-0.5-0.3-1.1-0.5-0.9-1.3S92,98.6,92.7,98.6z"/>
			<path class="st5" d="M274.9,165.3L274.9,165.3c-0.3-0.6-0.2-1.3,0.4-1.6c0.1-0.1,0.3-0.1,0.4-0.2l7.3-3.2c0.5-0.3,1-0.3,1.3,0.2
				c0.3,0.4,0.2,0.9-0.2,1.1l-0.1,0.1C281,163,278.2,164.9,274.9,165.3z"/>
			<path class="st0" d="M203.9,127.1v38.8c0,1.8-0.5,2.2-2.2,2.2h-71.4c-2.6,0-2.6,0-2.6-2.6v-77c0-2.6,0-2.6,2.7-2.6h71
				c2.5,0,2.5,0,2.5,2.4V127.1z M183.5,126.9V89.5c0-1.3-0.2-1.8-1.6-1.7h-13.5c-1.3-0.1-1.6,0.3-1.6,1.6c0,25.1,0,50.1-0.1,75.1
				c0,1.5,0.6,1.7,1.9,1.7h13.1c1.5,0,1.9-0.4,1.9-1.9C183.5,151.9,183.5,139.4,183.5,126.9z M129.6,127c0,12.5,0.1,25,0,37.5
				c0,1.3,0.3,1.7,1.6,1.7h13.5c1.4,0,1.7-0.4,1.7-1.7V89.6c0-1.4-0.3-1.9-1.7-1.8c-4.5,0.1-8.9,0.1-13.4,0
				c-1.4-0.1-1.7,0.4-1.7,1.8C129.7,102,129.6,114.5,129.6,127z M164.9,127c0-12.4-0.1-24.9,0-37.4c0-1.5-0.4-1.9-1.8-1.8
				c-4.3,0.1-8.5,0.1-12.8,0c-1.6-0.1-2.1,0.2-2.1,2c0.1,8.4,0.1,16.8,0.1,25.2c0,16.5,0,32.9-0.1,49.3c0,1.6,0.5,1.9,2,1.9H163
				c1.5,0,1.9-0.3,1.9-1.9C164.8,151.9,164.9,139.5,164.9,127L164.9,127z M185.4,127c0,12.5,0.1,24.9,0,37.3c0,1.6,0.4,1.9,1.9,1.9
				h13.3c1.1,0,1.4-0.3,1.4-1.4V89.2c0-1.2-0.3-1.4-1.5-1.4c-4.4,0-8.8,0.1-13.3,0c-1.4-0.1-1.8,0.3-1.8,1.8
				C185.5,102.1,185.4,114.6,185.4,127L185.4,127z"/>
			<path class="st4" d="M198.4,247h-18.3c-1.8,0.1-3.5-1-4-2.8c-0.5-1.7,0.1-3.5,1.5-4.6c0.9-0.6,1.9-0.8,2.9-0.8h35.8
				c2.8,0,4.6,1.8,4.6,4.3s-1.8,3.9-4.7,3.9L198.4,247L198.4,247z M198.3,245.2H217c1,0,1.9-0.9,1.9-1.9c0.2-1.1-0.5-2.2-1.6-2.4
				h-36.5c-1-0.2-2.1,0.3-2.7,1.1c-0.4,0.7-0.4,1.6,0,2.3c0.5,0.8,1.5,1.2,2.4,1.1L198.3,245.2z"/>
			<path class="st15" d="M198.3,233.8h-17.6c-3,0-4.8-1.5-4.8-4s1.9-4.2,4.7-4.2h35.6c2.9,0,4.7,1.7,4.7,4.2s-1.8,4-4.7,4H198.3z
				 M198.3,232h17.8c1.6,0,2.7-0.5,2.9-2.2s-1-2.3-3-2.3h-35.2c-1.9,0-3,0.8-3,2.3s1,2.2,3,2.2H198.3z"/>
			<path class="st0" d="M419.2,256c0.3,10.5-8.3,19.4-19.1,19.7s-19.2-8.4-19.5-19.2s8.3-19.3,18.9-19.6
				c10.7-0.2,19.5,8.2,19.7,18.9C419.2,255.9,419.2,255.9,419.2,256z M417.3,256.4c0.1-9.6-7.7-17.4-17.3-17.5s-17.4,7.7-17.5,17.3
				c-0.1,9.6,7.7,17.4,17.3,17.5C409.4,273.8,417.2,266,417.3,256.4L417.3,256.4L417.3,256.4z"/>
			<path class="st15" d="M210.2,30.7h17.1c1.3,0,1.7,0.3,1.7,1.7c-0.1,11.3,0,22.7,0,34.1c0,1.2-0.4,1.7-1.7,1.7h-34.1
				c-1.3,0-1.8-0.4-1.7-1.7V32.4c-0.1-1.3,0.4-1.7,1.7-1.7H210.2z M193.4,64.9l14.7-14.6c0.8-0.8,0.5-1.2-0.1-1.8
				c-3.2-3.1-6.4-6.3-9.5-9.5l-5.1-5.1L193.4,64.9z M194.8,32.7c5.1,5.1,10,9.9,14.8,14.8c0.9,0.9,1.2,0,1.6-0.4l13.4-13.3
				c0.3-0.3,0.9-0.5,0.7-1.1H194.8z M225.7,66.2l-14.6-14.6c-0.8-0.8-1.2-0.5-1.8,0.1l-11.5,11.5l-3.2,3H225.7z M227.1,33.9
				l-14.4,14.4c-0.9,0.9-1,1.3,0,2.3L226,63.9c0.3,0.3,0.5,0.8,1.1,0.6V33.9z"/>
			<path class="st4" d="M296.4,47.4c0,1.1-0.9,2-2,2s-2-0.9-2-2c-0.1-1,0.7-1.8,1.7-1.9c0.1,0,0.1,0,0.2,0
				C295.5,45.4,296.2,46.2,296.4,47.4z"/>
			<path class="st4" d="M310.3,45.5c1.2,0.2,2,0.8,1.9,2.1c-0.1,1.1-1,2-2.1,1.9s-2-1-1.9-2.1C308.3,46.3,309.2,45.4,310.3,45.5
				L310.3,45.5z"/>
			<path class="st9" d="M183.5,126.9c0,12.5,0,25,0.1,37.4c0,1.5-0.4,1.9-1.9,1.9h-13.1c-1.3,0-1.9-0.2-1.9-1.7
				c0.1-25,0.2-50,0.1-75.1c0-1.3,0.3-1.7,1.6-1.6h13.5c1.4-0.1,1.6,0.4,1.6,1.7L183.5,126.9z"/>
			<path class="st9" d="M129.6,127c0-12.5,0.1-25,0-37.4c0-1.4,0.3-1.9,1.7-1.8c4.5,0.1,8.9,0.1,13.4,0c1.4-0.1,1.7,0.4,1.7,1.8
				v74.9c0,1.3-0.3,1.7-1.7,1.7h-13.5c-1.3,0-1.6-0.4-1.6-1.7C129.7,152,129.6,139.5,129.6,127z"/>
			<path class="st6" d="M164.9,127c0,12.5-0.1,24.9,0,37.3c0,1.6-0.4,1.9-1.9,1.9h-12.8c-1.5,0-2-0.3-2-1.9
				c0.1-16.4,0.1-32.8,0.1-49.3c0-8.4,0-16.8-0.1-25.2c0-1.8,0.5-2.1,2.1-2c4.3,0.1,8.5,0.1,12.8,0c1.4-0.1,1.8,0.3,1.8,1.8
				C164.8,102.1,164.9,114.6,164.9,127z"/>
			<path class="st6" d="M185.4,127c0-12.4,0.1-24.9,0-37.4c0-1.5,0.4-1.9,1.8-1.8c4.5,0.1,8.9,0,13.3,0c1.2,0,1.5,0.2,1.5,1.4v75.6
				c0,1.1-0.3,1.4-1.4,1.4h-13.3c-1.5,0-1.9-0.3-1.9-1.9C185.5,151.9,185.4,139.5,185.4,127z"/>
			<path class="st13" d="M198.3,245.2h-17.8c-0.9,0.1-1.9-0.3-2.4-1.1c-0.4-0.7-0.4-1.6,0-2.3c0.6-0.8,1.7-1.3,2.7-1.1h36.5
				c1.1,0.2,1.8,1.3,1.6,2.4c0,1-0.9,1.9-1.9,1.9h-18.7L198.3,245.2L198.3,245.2z"/>
			<path class="st9" d="M198.3,232h-17.5c-2,0-3-0.8-3-2.2s1.1-2.3,3-2.3H216c2,0,3.1,0.8,3,2.3s-1.3,2.2-2.9,2.2H198.3z"/>
			<path class="st10" d="M417.3,256.4c-0.1,9.6-8,17.3-17.6,17.2s-17.3-8-17.2-17.6c0.1-9.6,7.9-17.3,17.5-17.2
				c9.6,0,17.3,7.7,17.3,17.3C417.3,256.2,417.3,256.3,417.3,256.4z M391.7,256.3c-0.1,4.5,3.6,8.2,8.1,8.3h0.1
				c4.6,0,8.3-3.7,8.3-8.3c0.5-4.6-2.8-8.7-7.3-9.2c-4.6-0.5-8.7,2.8-9.2,7.3C391.6,255.1,391.6,255.7,391.7,256.3z"/>
			<path class="st8" d="M193.4,64.9v-31l5.1,5.1c3.1,3.2,6.3,6.4,9.5,9.5c0.6,0.6,0.9,1,0.1,1.8L193.4,64.9z"/>
			<path class="st8" d="M194.8,32.7h30.5c0.2,0.6-0.4,0.8-0.7,1.1l-13.4,13.3c-0.4,0.4-0.7,1.3-1.6,0.4
				C204.8,42.6,199.9,37.8,194.8,32.7z"/>
			<path class="st10" d="M225.7,66.2h-31.1l3.2-3l11.5-11.5c0.6-0.6,1-0.9,1.8-0.1L225.7,66.2z"/>
			<path class="st8" d="M227.1,33.9v30.6c-0.6,0.2-0.8-0.3-1.1-0.6l-13.3-13.3c-1-1-0.9-1.4,0-2.3L227.1,33.9z"/>
			<path class="st0" d="M391.7,256.3c-0.5-4.6,2.8-8.7,7.3-9.2c4.6-0.5,8.7,2.8,9.2,7.3c0.1,0.6,0.1,1.2,0,1.8
				c0,4.6-3.7,8.3-8.3,8.3C395.4,264.5,391.7,260.8,391.7,256.3C391.7,256.4,391.7,256.3,391.7,256.3z M400,249.9
				c-3.5,0-6.4,2.8-6.4,6.4c0,3.5,2.8,6.4,6.3,6.4s6.4-2.9,6.4-6.4C406.4,252.8,403.6,250,400,249.9
				C400.1,249.9,400,249.9,400,249.9z"/>
			<path class="st7" d="M400,249.9c3.5,0,6.3,2.8,6.3,6.3v0.1c0,3.5-2.9,6.4-6.4,6.4s-6.4-2.9-6.4-6.5
				C393.6,252.7,396.5,249.9,400,249.9L400,249.9z"/>
		</g>
	</g>
	<rect x="252.3" y="30" class="st1" width="23.1" height="23.3"/>
</g>
</svg>
