<svg xmlns="http://www.w3.org/2000/svg" viewBox="0 0 214.7 202.8"><defs><style>.b24d444f-95c6-47fc-99dc-8546d1e01e63{fill:#90b0dd;}</style></defs><g id="bfd66cd1-e245-452d-9bdf-40da8b79206f" data-name="Layer 2"><g id="ad998273-cc85-47a6-abcd-c2ee1225eb3f" data-name="Artwork"><path class="b24d444f-95c6-47fc-99dc-8546d1e01e63" d="M101.5,72.8c0-16.7-.3-33.5.2-50.2.2-8.7-3.9-21.9,10-22.6,15.5-.7,9.9,13.1,10.2,21.3.8,17.2.3,34.5.3,51.8l5.1,3.2c13.2-14.2,26.4-28.4,39.7-42.4,5.6-5.9,11.6-13.3,19.9-3.9s-.7,13.4-5.6,18.4C167.8,62.2,154,75.7,136.9,92.6c24.5,0,43.9-.1,63.2.1,6.5.1,14.6-1.7,14.6,9s-7.3,11.4-15.3,11.4H147.9c9.9,12.5,21.7,27.5,33.8,42.4,4.9,6.1,14.3,12.2,6.4,20.2s-16.1,1.8-22.6-5c-12.8-13.5-25.5-27.2-38.2-40.8l-5.1,3.1c0,17.3.3,34.6-.2,51.9-.2,7.2,3.7,17.5-9.7,17.9s-10.6-9.5-10.7-17.1c-.3-17.4-.1-34.9-.1-57.1L61.6,167.4c-4.4,4.2-8.5,8.8-13.3,12.5s-11.8,5.2-16.8.5-.8-11.1,3.5-15.3c16.2-15.9,32.6-31.7,53.1-51.5-28.6,0-50.6.1-72.6-.1C9,113.4.6,115.1,0,105.1s6.9-12,15-12H88.4c-18.5-18-32.9-31.7-47-45.7C36.2,42.3,29.1,37.1,37.2,29s13.5-1.5,18.6,3.9c13.4,14.2,26.7,28.7,40,43Z"/></g></g></svg>