<svg xmlns="http://www.w3.org/2000/svg" viewBox="0 0 152.3 153.6"><defs><style>.bdbff871-6a1c-49a2-88fa-87bcef59dcf3{fill:#8eafdc;}</style></defs><g id="b9127c6e-0e52-4f55-bbf2-0de4c6ae0e19" data-name="Layer 2"><g id="bbb6655f-01e3-4ba0-aa4e-060e54aafd1d" data-name="Artwork"><path class="bdbff871-6a1c-49a2-88fa-87bcef59dcf3" d="M79.1,0c.4.9,1.6,3.1,2.5,5.5s2.2,4.9,2.5,7.4c4.6,33.1,22.3,52.7,56.4,56.7,4.4.5,11.8.9,11.8,7.9s-6.9,6.8-11.4,8.8a29.3,29.3,0,0,1-9.4,2.9c-26.9,2.4-40,18.7-44.7,43.8-.8,4.4-2.7,8.7-4.1,13s-2,8-7.2,7.6-5.7-3.7-6.1-6.8C64.7,109.6,44,88.8,6.7,84.2c-3-.3-6.5-2.1-6.7-6.1S3.8,72,7.6,70.9c1.9-.6,3.7-1.7,5.6-1.9C45.7,65.5,63,47.3,67.6,15.3,68.3,10.3,68.7,3.1,79.1,0Z"/></g></g></svg>