<svg xmlns="http://www.w3.org/2000/svg" viewBox="0 0 614.5 345.3"><defs><style>.a67ff778-022c-4e43-aa0e-d7ad6dfb3fc7{fill:#2e2f3d;}.ba7a5d98-b16c-4140-ba07-d694c30c4beb{fill:#9abbe3;}.fd6fea14-eb85-4043-8d2d-9dbe8cad421a{fill:#f7d89b;}.bb3dc3ed-1c0c-4c90-8e08-02b8c8f43b55{fill:#182f57;}.fa6ce163-83e9-47b1-ace8-6fac0d271236{fill:#fefefe;}.ed9171d9-0d03-43cb-bf7b-4f817eef1956{fill:#fcfcfc;}.b88e345a-f15e-4cd6-b3cf-313ec69d483f{fill:#102e57;}</style></defs><g id="ea06ff04-f27f-4f36-862e-819958ab1fee" data-name="Layer 2"><g id="a05438db-f58b-4eac-a927-91ee90cd4d28" data-name="Layer 1"><path class="a67ff778-022c-4e43-aa0e-d7ad6dfb3fc7" d="M570.9,226.5c0,17.5,0,35,.1,52.5,0,.7-.7,2.2.7,2.1s3.4,1.2,4.4-1.3c3.2-7.9,6.4-15.7,9.7-23.5a3.9,3.9,0,0,1,2,.6l-10,24.3h3.1c.6,0,1.3-.1,1.6.6s-.1,1.2-.5,1.7c-3.1,4.1-6.2,8.4-9.5,12.4-1.2,1.5-1.2,2.5-.2,4.1,5.3,8.2,10.4,16.6,15.5,24.8s4.1,10.8-1.4,17.1h25.8c.9.1,2.3-.3,2.3,1.1s-1.3,1.1-2.2,1.1H574.8l-151.1.3-192.8.4L38,345.2H1a1,1,0,0,1-1-1.1,1,1,0,0,1,1-1H55.3a4.4,4.4,0,0,0,1.9-.3L47.3,338,15.6,323.2c-1.6-.8-1.8-1.6-1-3.2,6.3-12.9,12.5-25.9,18.7-38.9.4-.9,1.3-1.7-.2-2.7s0-1.5.6-2.2l19.4-23.5,31-37.5a16.9,16.9,0,0,0,2.4-4.1c5.4-14.4,10.8-28.8,16.1-43.1a1.3,1.3,0,0,0,.1-.6l2.1-5.2a4.5,4.5,0,0,0,.1-2.6c-3.2-11.8-.6-22.2,8.5-30.7H115l64.9.3c2.1,0,2.7-.6,2.2-2.5-.2-3.8.9-7.8-1-11.5.1-3.6.1-7.1.1-10.7,0-.8-.3-2,1.1-2s1,1.2,1,2v11.3a2.4,2.4,0,0,0,.6,2.1c-.1,3.8-.1,7.7-.1,11.6,0,.7-.2,1.5.9,1.5a2.4,2.4,0,0,0,.3,2.8c1.4,1.7,2.6,3.6,3.9,5.4l20.4,28c3.4,4.8,7,9.6,10.3,14.6a5.5,5.5,0,0,0,5.7,2.8c1.2-.1,1.4-.5,1.4-1.6V161.5c0-1.3-.3-1.8-1.6-1.7H213.7a5.1,5.1,0,0,1,1.2-2.3l.8.2H248c1.5,0,1.5-.7,1.5-1.8,0-6.9-.1-13.9,0-20.8,0-1.5-.4-1.8-1.8-1.8H228.3a5.7,5.7,0,0,1,1.1-2.2h39.8c1.2,0,1.5-.4,1.5-1.5V108.8c0-1.3-.4-1.7-1.7-1.7H233.7l-1-2.1h14.9c1.4.1,1.9-.2,1.9-1.8-.1-6.8-.1-13.5,0-20.2,0-1.6-.4-2.1-2-2.1H211.2c-5,0-5,0-4.6,5.1a3.8,3.8,0,0,1-2.2-1.3c.1-3.8.1-3.9-3.8-3.8h-2.3a16.3,16.3,0,0,1-3.5-2.3h30.1c.8,0,1.9.4,1.9-1.3-.1-7.1-.1-14.2,0-21.4,0-.9-.2-1.3-1.3-1.3H185.1c-.9,0-1.3.2-1.3,1.2.1,5.4.1,10.7.1,16.1l-2.3-1.5c.1-4.8,0-9.7.1-14.6,0-1-.3-1.2-1.3-1.2H152c-.4,0-.9-.2-1.2.3a3.5,3.5,0,0,0,1.5,4.2c2.1.9,4.5,1.1,6,3a2.2,2.2,0,0,1,.1,1.6c-1.4,3.2-2.8,6.4-5.7,8.6-9.5,7.5-25.3,5-30.5-6.2a22.4,22.4,0,0,1-.9-4.5c2-1.4,4.5-1.7,6.7-2.7.6-.2,1.2-.2,1.2-1.2V46.3c-5.5,1.3-9.4-.9-12.2-5.6-1.8,2.6-3,5.3-5.6,7a2.5,2.5,0,0,1-1.2-1.9c3.1-1.8,4-5.3,6.2-7.8.2-.2.1-.5.1-.8a16.5,16.5,0,0,1,1-4.4c2.7-4.5,6.7-6.1,11.8-5,1.4.3,2.2.1,1.7-1.7a2.8,2.8,0,0,1,.1-1.8,6.4,6.4,0,0,1,11.6-2.4c.6.9,1.5,1.8,1.9.3a16.6,16.6,0,0,1,2.6-4.5,3.1,3.1,0,0,0,1.9-.9h.7c5-.3,7.4,2,7.6,7.1a2.4,2.4,0,0,0,2.7,2.4q9.9-.2,19.8,0c1.4,0,1.7-.4,1.7-1.7,0-6.9-.1-13.7,0-20.5,0-1.6-.4-1.9-1.9-1.9H140.3c-.7,0-1.4-.4-1.9.3s.8.7,1.3.9c2.5,1.2,2.8,3.3,1,6.6l-2.5-.8c1-.8,1.9-1.7,1.4-3.1s-1.6-1.1-2.5-.9c-4.5,1.1-9.2,1.6-13.6,3.4-8.3,3.4-16.2,7.6-22.9,13.7-1.5,1.4-3.2,2.7-4.8,4a3.3,3.3,0,0,1-1.2-1.7l4.9-4.1c6.8-6.2,14.9-10.5,23.4-14,3.8-1.5,7.8-2,11.7-3,1.3-.2,1.9-.5,1.6-1.9s.3-1.7,1.5-1.7l86.7.2h273c1.9,0,2.6.4,2.3,2.4s0,4.7-.1,7c-.5.4-1.1.2-1.7.3,0-2.1-.1-4.1,0-6.2s-.3-1.3-1.3-1.3H455.7c-1.2,0-1.5.5-1.5,1.6s0,4,0,6h-2.1V4c0-1.1-.2-1.6-1.4-1.6H410.6c-1.1,0-1.5.3-1.4,1.4V10h-2.1c0-2.1-.1-4.2,0-6.2s-.3-1.4-1.4-1.4H365.8c-1.3,0-1.5.5-1.5,1.6s0,3.9,0,5.8-1.4.2-2,.3c-.1-2.1-.1-4.2-.1-6.3s-.3-1.4-1.3-1.4c-13.5.1-26.9.1-40.4,0-1.2,0-1.3.5-1.3,1.5V10h-2.1c0-2-.1-4,0-6s-.4-1.7-1.7-1.7h-40c-1.4,0-1.7.4-1.7,1.7.1,6.9.1,13.7,0,20.6,0,1.6.6,1.8,1.9,1.7H315v2.2H298.3c-1.3,0-1.6.3-1.6,1.6v21c0,1.3.4,1.6,1.6,1.6H315v2.2H276.2c-1.9,0-2.3.6-2.3,2.4.1,6.4.1,12.9,0,19.3,0,1.9.4,2.5,2.3,2.5,13-.1,25.9,0,38.8,0V81H298.3c-1.2-.1-1.5.3-1.5,1.4.1,2.8,0,5.5,0,8.6l18.4-8.1c3.8-1.6,7.5-3.3,11.4-4.8a2.7,2.7,0,0,0,2-3c-.1-18.1,0-36.1,0-54.2,0-3.2,0-3.2,3.1-3.2H509c1.7,0,2.2.6,2.2,2.3,0,7.3.1,14.6.1,21.9,0,11.4.1,22.8.1,34.2,0,.9-.1,1.7,1,2.2l14.4,6.1,25,11a4.4,4.4,0,0,0,2,.2h15.5c1.5,0,2,.6,2,2.1v91.7h-2.2c0-.7.1-1.4.1-2.1q0-43.7.1-87.2c0-2.1-.7-2.3-2.5-2.3H275c-1.8,0-2.2.4-2.2,2.2v94.1c0,2,.4,2.7,2.6,2.7H551.5v2.2H526.8c-4.2,0-8.4.1-12.6-.1-2-.1-2.4.5-2.4,2.5q.1,56.3.4,112.5c0,8.9,0,17.7.1,26.6,0,.8-.4,1.9,1.1,1.9l13.4-.2h25.3c.3,0,.7.1.9-.4-5.1-5.4-5.5-9.8-1.5-16.2,5.4-8.7,10.7-17.4,16.2-26.1a2,2,0,0,0-.2-2.8l-9.9-12.9c-.4-.6-1-1.1-.5-1.9s1-.5,1.7-.5h8c1.8.2,2.1-.5,2.1-2.1-.1-17.5,0-35.1,0-52.6ZM315,95.5h12.2c1.1.1,1.4-.4,1.4-1.4-.1-4.3-.1-8.7,0-13,0-1-.1-1.6-1.4-1L315,85.5l-17.4,7.4c-1.1.5-.7,1.3-.7,2.1s.8.5,1.2.5Zm211.8-.1H546c-5.9-2.8-11.8-5.4-17.7-8l-1.5-.5L511.5,80V94.5c-.1,1.1.6,1,1.3,1ZM315,292.4c-5.5,0-11,.1-16.5,0-1.3,0-1.7.3-1.7,1.7v21c0,1.3.4,1.7,1.7,1.7H315v2.2H275.6c-1.2,0-2.1-.2-2.1,1.6.1,6.8.1,13.7.1,20.6,0,1.1.2,1.5,1.4,1.5h53.3v-3.3c0-17.2,0-34.4.1-51.5,0-19.3,0-38.6.1-57.9,0-9.8-.1-19.5,0-29.3,0-1.6-.4-2-1.9-1.9H298.2c-1.1,0-1.5.3-1.4,1.4,0,3,.1,6,0,9s.5,1.9,1.9,1.9H315V213H276c-1.5,0-2,.3-1.9,1.9.1,6.9.1,13.8,0,20.6-.1,1.6.5,1.9,1.9,1.9h39v2.2H298.5c-1.2,0-1.6.3-1.6,1.6v21.6c0,1.3.4,1.6,1.6,1.6H315v2.1H275.8c-1.6-.1-1.9.4-1.9,1.9.1,6.7.1,13.3,0,20,0,1.7.4,2.1,2.1,2.1h39Zm105.2,50v-.3h87.5c1.8,0,2.4-.4,2.4-2.4q-.3-69.4-.5-139c0-1.7-.4-2.1-2.1-2.1H332.7c-1.6,0-2.1.3-2.1,2q0,69.9-.1,139.8c0,1.8.5,2.2,2.2,2.1h87.5ZM180.3,229a6.8,6.8,0,0,0,.3-2.7c0-.9-.2-2,1.1-2s1,1.1,1,1.9c.1,3.2,0,6.3,0,9.5,0,21.4.1,42.9.1,64.3,0,1.3.3,1.8,1.7,1.8,17.9.2,35.8.5,53.6.9,1.9,0,2.3-.5,2.3-2.2-.2-26.6-.4-53.1-.4-79.7a21.7,21.7,0,0,0-4.3-13.2q-27.3-37.7-54.4-75.4c-.6-.9-1.3-.8-2.1-.8l-63.6-.3a3,3,0,0,0-2.6,1.3c-7.1,7.6-8.7,16.5-6.1,26.4a6.4,6.4,0,0,1-.2,4.3L89.3,209.7c-.3.7-.9,1.4-.5,2.4l4.5-2.6c.8-.4,1.8-1.8,2.6-.4s-.8,1.7-1.6,2.2-4.2,2.6-6.4,3.8a14,14,0,0,0-3.7,3.2L50,259.8,35.5,277.3l.8.6,48.8,24.8c1.2.6,1.7,0,2.3-.8L130.2,252a33.7,33.7,0,0,0,5.7-9.2c2.7-6.7,5.4-13.2,8.2-19.8,5.5-13.3,11-26.6,16.6-39.9.3-.8.5-2,1.7-1.6s.5,1.7.2,2.5c-1.4,3.3-2.8,6.5-4.3,9.8a2.3,2.3,0,0,0,.2,2.6c1.4,1.8,2.6,3.8,3.8,5.6C168.2,211,174.2,219.9,180.3,229ZM330.7,76.1l.8-.2,81.9-35.3a2.3,2.3,0,0,0,1.5-2,5.2,5.2,0,0,1,5.6-4.6,5.2,5.2,0,0,1,5.1,4.9c.1,1.3.7,1.7,1.7,2.2l79.9,34.8c2,.8,2,.8,2-1.4-.1-16.6-.1-33.2-.2-49.7,0-5,0-5-5-5H332.9c-1.8,0-2.3.4-2.3,2.2.1,12.7.1,25.3.1,38Zm89.1,19.4h87.3c1.8,0,2.3-.5,2.2-2.3-.1-4.1-.1-8.3,0-12.4a2.4,2.4,0,0,0-1.8-2.6l-18.9-8.2L427.1,43.3c-1.3-.6-2.2-.9-3.4.4a5.2,5.2,0,0,1-7.4-.5,1.8,1.8,0,0,0-2.6-.5l-9.5,4.1-71.8,31a2.5,2.5,0,0,0-1.8,2.8c.1,4.2.2,8.5,0,12.8-.1,1.9.6,2.2,2.3,2.2ZM77.3,310.3a17.2,17.2,0,0,0,9.1,7.1l16.7,6.7c8,3.1,13.5,8.4,14.3,17.5.1,1.1.6,1.4,1.6,1.4h15.5c1,0,1.5-.1,1.5-1.3-.1-7.7-.1-15.4-.2-23.1,0-1.4.2-1.9,1.7-1.9h20.2c1.3,0,1.7-.4,1.6-1.6,0-7,0-14,.1-21.1,0-1.5-.6-1.7-1.9-1.7H139.1c-3.1,0-3.1,0-2.8-3a4.8,4.8,0,0,0,0-1.2V268.3a6.7,6.7,0,0,0-.1-2c-.8-2.1-.6-2.3,1.7-2.3h19.8c1.3,0,1.8-.3,1.7-1.7V241c.1-1.4-.4-1.8-1.7-1.7-5.4,0-10.9.1-16.3-.1a2.3,2.3,0,0,0-2.5,1.8,41.2,41.2,0,0,1-7.5,13c-13.6,15.7-27.2,31.6-40.7,47.4-.4.5-1.1.9-1.1,1.8l6.2-1a5.5,5.5,0,0,1,5.9,2.5,6.5,6.5,0,0,1,.1,7.2c-1.4,2.2-3.5,2.8-6,2.4l-2-.4Zm11.1,32.3h25.1c1.5,0,1.9-.4,1.7-1.9-.8-5.8-3.9-9.9-9-12.8a2.1,2.1,0,0,0-1.9-.1c-3.5.6-7,1.1-10.4,1.9-7.3,1.6-14.5,2-21.7-.3l-16.3-5.3a28.6,28.6,0,0,1-15.1-10.9,30.9,30.9,0,0,0-13.7-10.5c-1.3-.6-1.7-.3-2.2.9-2.5,5.3-5,10.7-7.7,15.9-.8,1.5-.3,1.9,1,2.5l42.2,19.9a7.4,7.4,0,0,0,3.2.7C71.9,342.5,80.1,342.6,88.4,342.6Zm13.2-16.5c-.5-.8-1.3-.8-1.9-1.1L85,319.1a22.1,22.1,0,0,1-9.8-7.3c-1.1-1.5-2.1-2.8-4.1-2.9s-1.3-.3-1.3-1.1a1.1,1.1,0,0,1,1.1-1c1.1-.1,1-.7.7-1.4s-1.3-4-.6-6-.1-1.6-1.1-2.1L37.5,280.8c-1.2-.6-1.6-.2-2.1.8-2.7,5.7-5.4,11.4-8.2,17.1-.6,1.2-.3,1.7.9,2.2A32.7,32.7,0,0,1,43,312.5a26,26,0,0,0,12.7,9.4c2.5.9,5.1,1.7,7.6,2.4,5.2,1.5,10.1,3.6,15.5,4.4C86.6,329.8,93.9,327.1,101.6,326.1Zm156,.3a26.5,26.5,0,0,0-7.3-3.3,43.4,43.4,0,0,1-18.7-10.7,4.3,4.3,0,0,0-2.8-1.5c-1,0-1.5-.4-1.2-1.6s-1.8-4.7-3.4-4.7l-40-.8c-1.2,0-1.4.5-1.4,1.6q.1,5.6,0,11.1c0,1.4.5,1.8,1.8,1.8a23.2,23.2,0,0,1,17,6.4l2.8,2.2a13.3,13.3,0,0,0,8.8,3c9.3,0,18.7-.1,28,.2A34.9,34.9,0,0,0,257.6,326.4Zm-31,16.3h41.9c2.3,0,2.3,0,1.4-2.1a31.9,31.9,0,0,0-7.7-10.8c-1.4-1.4-2.7-1.9-4.7-.9a37.4,37.4,0,0,1-17.2,3.5c-8.3-.4-16.7-.2-25.1-.4a37.5,37.5,0,0,1-5.8-.2c-3.8-.7-6.6-3.1-9.3-5.5a22.5,22.5,0,0,0-15-5.8c-1.7-.1-2.3,0-2.3,2,.2,6.1.2,12.1.1,18.2-.1,1.6.3,2.1,2.1,2.1Zm46.6-78.5H293c1.5,0,1.8-.4,1.8-1.8-.1-7.1,0-14.2,0-21.2,0-1.3-.2-1.8-1.6-1.8H253.3c-1.2,0-1.6.3-1.6,1.6.1,7.1.1,14.3,0,21.4,0,1.5.5,1.8,1.9,1.8ZM182.8,52.6h0c6.6,0,13.2-.1,19.8,0,1.4,0,1.7-.4,1.7-1.7-.1-6.9-.1-13.8,0-20.6,0-1.4-.3-1.9-1.8-1.9H163.1c-1.3-.1-1.8.2-1.8,1.6.1,7,.1,13.9,0,20.9,0,1.3.3,1.7,1.7,1.7C169.6,52.5,176.2,52.6,182.8,52.6ZM205.4,2.3h-20c-1.4,0-1.7.4-1.7,1.7V24.5c0,1.3.2,1.8,1.6,1.8,13.2-.1,26.4,0,39.6,0,1.4,0,1.8-.3,1.7-1.7,0-6.9,0-13.7.1-20.6,0-1.5-.6-1.8-1.9-1.7Zm44.6,24h19.9c1.4,0,1.8-.4,1.8-1.9q-.1-10.2,0-20.4c0-1.4-.3-1.8-1.8-1.8H230.3c-1.3,0-1.6.4-1.6,1.6q.2,10.3,0,20.7c-.1,1.6.5,1.8,1.9,1.8C237.1,26.2,243.6,26.3,250,26.3Zm-22.2,2.2H208c-1.1,0-1.7.1-1.6,1.5V51.2c0,1.1.3,1.4,1.5,1.4h40c1.1,0,1.5-.3,1.5-1.4-.1-7.1-.1-14.1,0-21.1,0-1.4-.4-1.7-1.8-1.7Zm45.3,0h-20c-1.3,0-1.7.3-1.7,1.7.1,7,.1,13.9,0,20.8,0,1.4.4,1.7,1.7,1.7h39.8c1.4,0,1.7-.5,1.7-1.8-.1-6.9-.1-13.7,0-20.6,0-1.4-.4-1.8-1.9-1.8C286.2,28.6,279.7,28.5,273.1,28.5ZM249.8,159.8H230.5c-1.3-.1-1.7.2-1.7,1.6.1,7.2.1,14.5,0,21.8,0,1.2.4,1.4,1.5,1.4h38.8c1.4,0,1.6-.5,1.6-1.8V161.5c0-1.4-.4-1.7-1.7-1.7Zm.5-81.1h19.6c1.4.1,1.9-.2,1.9-1.7q-.2-10.3,0-20.7c0-1.3-.3-1.7-1.7-1.7H230.7c-1.5,0-1.9.4-1.8,1.8V76.9c-.1,1.5.4,1.9,1.8,1.9ZM159.6,318.8H139.8c-1.2,0-1.7.3-1.7,1.6.1,7,0,14,0,21,0,1.1.3,1.6,1.5,1.6h39.6c1.4,0,1.6-.6,1.6-1.8,0-6.8-.1-13.6,0-20.4,0-1.4-.4-1.9-1.8-1.9Zm-.1-28.6h19.2c1.5,0,2.1-.3,2.1-2-.2-6.7-.2-13.5-.1-20.2,0-1.6-.5-1.9-2-1.9H140.2c-1.4,0-1.8.4-1.7,1.7v20.6c-.1,1.6.5,1.8,1.9,1.8Zm410.4,9.9-.4.3c-5.8,9.3-11.7,18.6-17.4,28a8.8,8.8,0,0,0,7.4,13.3q10.2.3,20.4,0a8.9,8.9,0,0,0,7.5-13.5C581.7,318.8,575.8,309.5,569.9,300.1Zm-296.6-7.7h-20c-1.4,0-1.8.3-1.8,1.7s.1,4.1,0,6.2.4,1.7,1.7,1.2a4.5,4.5,0,0,1,2.8.1,6.5,6.5,0,0,1,4.2,7.4c-.6,3.2-2.9,4.9-6.9,4.7-.9,0-1.8-.3-1.8,1.3s.4,1.8,1.7,1.7H293c1.4,0,1.7-.5,1.7-1.8V294.2c0-1.5-.4-1.8-1.8-1.8C286.3,292.5,279.8,292.4,273.3,292.4ZM144,24.9c-1.2,6.2-4.7,8.1-10.1,5.9-.3-.1-.7-.3-.7-.2-1.2,2.6-2.3.4-3.3-.1A7.6,7.6,0,0,0,119.4,34a7.5,7.5,0,0,0,4.3,10.1,7.4,7.4,0,0,0,8.5-2.5c.5-.6,1.1-1,1.8-.5a1.2,1.2,0,0,1-.1,1.8,15.3,15.3,0,0,1-1.8,1.8,1.8,1.8,0,0,0-.8,1.5c0,5-.1,10,.1,15a8.4,8.4,0,0,0,8.7,8.1,8.5,8.5,0,0,0,8.5-8.4c.1-1.6,0-3.3,0-4.9s0-1.9-1.7-1.5a15.1,15.1,0,0,1-8.9-.7c-.7-.2-1.4-.6-1.1-1.4s1-.8,1.7-.6a14.1,14.1,0,0,0,2.2.6c8.6,1.9,16.6-5.1,15.5-13.7a4.8,4.8,0,0,1,.7-3.5,6.6,6.6,0,0,0,.1-7.5c-.3-.4-.5-1.2-1.2-.4s-4.2,2.5-6.9,2.1c1.3,2.7,1.2,2.8-1.5,3.7l-1.8.5a1.1,1.1,0,0,1-1.5-.7.9.9,0,0,1,.8-1.2c2.9-.4,1.9-1.8.9-3.3S144.8,26.4,144,24.9ZM273.3,81h-20c-1.2,0-1.7.2-1.7,1.6q.2,10.5,0,21c0,1.4.5,1.6,1.7,1.5h12.3c5.1,0,5.1,0,5.1-5.1s-.6-4.3,4.4-4.4,12.5.7,18.1-2.9c1-.6,1.6-1,1.6-2.3a64.2,64.2,0,0,1,0-7.6c0-1.3-.3-1.8-1.7-1.8ZM273,210.8h0c6.4,0,12.8-.1,19.2.1,2.2.1,2.7-.6,2.5-2.7a64.2,64.2,0,0,1,0-7.6c.1-1.6-.4-2.1-2-2-6.5.1-13.1-.1-19.6.1-2,0-2.5-.7-2.4-2.5s-.1-5.3,0-7.9-.4-1.6-1.6-1.6q-8,.2-15.9,0c-1.4,0-1.7.4-1.7,1.7,0,6.8.1,13.7,0,20.5,0,1.5.3,1.9,1.9,1.9C259.9,210.7,266.5,210.8,273,210.8ZM256.6,213h-14c-1.2,0-1.6.2-1.2,1.5a23.2,23.2,0,0,1,.7,5.9c0,5.1.1,10.2.1,15.3,0,1.1.1,1.7,1.5,1.7,8.9-.1,17.9-.1,26.8,0,1.2,0,1.5-.4,1.5-1.5V214.6c0-1.3-.4-1.7-1.6-1.7Zm.3,77.3h13.2c1.2,0,1.7-.1,1.7-1.5-.1-7,0-14,0-21,0-1.2-.3-1.5-1.5-1.5H243.9c-1.2-.1-1.6.2-1.6,1.5.1,7,.1,13.9,0,20.9,0,1.4.6,1.6,1.8,1.6C248.4,290.2,252.7,290.3,256.9,290.3ZM140.5,237.1H179c.5,0,1.4.4,1.5-.6s.3-3-.7-4.4l-12-18a2.7,2.7,0,0,0-2.5-1.3H154c-4.3,0-3.1-.8-4.8,3.2C146.3,222.9,143.5,229.8,140.5,237.1Zm40.1,14.6h-.1V240.8c.1-1.2-.3-1.5-1.5-1.5H163.2c-1.5,0-1.7.6-1.7,1.8.1,7.1.1,14.2,0,21.2,0,1.3.3,1.8,1.7,1.8,5.2-.1,10.5-.1,15.7,0,1.5.1,1.8-.6,1.7-1.9Zm-19.2,52.8c0,3.5.1,7,0,10.5-.1,1.4.3,1.7,1.7,1.7h15.6c1.6,0,2.1-.4,2.1-2,0-7.1-.5-14.1,0-21.2,0-1.1-.6-1.2-1.4-1.2H162.9c-1.2,0-1.5.3-1.5,1.5C161.5,297.4,161.4,300.9,161.4,304.5Zm90.2-159c0,3.5.1,7,0,10.5,0,1.4.5,1.7,1.8,1.7H269c1.2,0,1.7-.2,1.7-1.6V134.9c0-1.1-.2-1.6-1.4-1.5H253c-1.1,0-1.4.4-1.4,1.5C251.7,138.3,251.6,141.9,251.6,145.5Zm-28.4,41.2c4.6,6.4,8.9,12.5,13.4,18.5,1.3,1.8,2,4.6,4.1,5.4s4.6.2,7,.2h.6c.9.1,1.1-.4,1.1-1.2V187.9c0-.8-.2-1.2-1.1-1.2Zm19,65.2h.1v7c.1,1.7-.7,3.9.3,4.9s3.3.2,5,.4,2.1-.3,2.1-2c-.1-5.7,0-11.4-.1-17.1,0-1.9.8-4.3-.4-5.4s-3.6-.2-5.6-.3-1.4.4-1.4,1.5Zm29.2,85.7V323.7c0-4.8,0-4.8-4.8-4.8H245.7c4.9,2.3,10.2,3.4,14.7,6.6A44,44,0,0,1,271.4,337.6ZM129,60.9c-1.3.4-2.5,1-3.9,1.3s-1.6,1.1-1.1,2.3c1.6,4.5,4.9,7.2,9.2,8.8,8.1,3.1,17.6.3,21.4-6.5,2.1-3.7,2.1-3.7-2-5.2l-1.8-.7c-1,6.6-5,10.5-10.6,10.6S130.3,67.8,129,60.9ZM579.4,283.4H560.2l9.6,12.7ZM77.1,307.7c.2.2.2.4.3.4l18.5,4.1a3.8,3.8,0,0,0,4.2-1.6,4.6,4.6,0,0,0-.2-4.8c-1-1.6-2.5-1.8-4.2-1.5Zm165.3-3.1,2.1-.6c4.9-1.4,4.9-1.4,4.9-6.5s0-5.1-5.1-5.2c-1.7,0-2,.6-1.9,2.1C242.5,297.8,242.4,301.1,242.4,304.6Zm-91-93.9h5.9c1.5.1,2.2-.2,2-2a43.4,43.4,0,0,1,0-5.1c.3-2.4-1-4-2.6-5.8C155,202.1,153.2,206.2,151.4,210.7Zm-14-189.5a4.2,4.2,0,0,0-4,2.6,4,4,0,0,0,.7,4.4,4.1,4.1,0,0,0,4.5,1.3c.8-.2,1.6-.4.8-1.6a1.2,1.2,0,0,1,1-2c1.9-.1,1.2-1.1.9-2A4,4,0,0,0,137.4,21.2ZM155.1,24c.3-2.5-.5-4.1-2.5-4.9a4.2,4.2,0,0,0-4.9,1.4,4.4,4.4,0,0,0,.1,5.3q2.1,2.4,5.4.9c-.5-.8-1.4-1.5-.6-2.5S154.2,23.5,155.1,24Zm79.5,285.2v.3l4.8.6,5.2.5c5.2.7,5.2.7,4.8-4.5v-.2c.1-.7-.2-1-.9-.8Zm-.2,2.4c3,2.9,5.9,6,10.6,5.1h2.4c1.7.3,2.1-.4,2.1-2s-.5-1.5-1.6-1.6l-3.8-.4Zm17.1-4v2.7c0,.5,0,.9.6,1.1s5-.1,5.8-1.8a4.7,4.7,0,0,0-2.3-5.9c-2.3-.8-4.1.3-4.1,2.7ZM159.2,36.7l-.8-.3c.7,6.4-.9,12-6.5,16.2,2.3,0,4.1-.1,5.8,0s1.5-.4,1.5-1.5ZM83.8,304.4l-10.4-5.3c-1,2.2-.4,4,.3,5.9s.6,1.1,1.5,1C77.8,305.4,80.5,305,83.8,304.4Zm157.1.7v-.3H228c1.3,1.3,1.3,3.6,3.5,3.1S237.8,306,240.9,305.1Zm-75.5-94.5-3.8-5.7C160.8,210.9,160.8,210.9,165.4,210.6Z"/><path class="ba7a5d98-b16c-4140-ba07-d694c30c4beb" d="M110.2,45.8a2.5,2.5,0,0,0,1.2,1.9,7.8,7.8,0,0,0,1,1.5c1.3,1.4,1,2.2-.5,3.3L99.1,61.7c-1-.8-1.8,0-2.6.5L75.6,76.1l-1,.7c-.4.4-.7.9-.2,1.5a1.2,1.2,0,0,0,1.3.3l1.2-.8L97.5,64.2c.6-.5,1.4-.8,1.7-1.7l16.3-.3c-.1,12.6,1.4,25.1.6,37.8-.4,6.5-3.8,11.6-6.9,17.2l-3.6-12.5c1.4.5,2.1,1.8,3.3,2.7s1.2,1.4,2,.5.1-1.5-.5-2.1-2.1-1.6-2.8-2.9c1.5-.6,2.9-.1,4.2-.2s1.7,0,1.7-1-.8-1.2-1.6-1.2h-7.2a1.5,1.5,0,0,0-1.5.8l-20,.4-2,.3-29.7.7-14,.4c-9.3.2-16.9-4.8-19.7-13a20.1,20.1,0,0,1,7.6-22.8L56.7,44.5,89.2,20.9c1.3-1,1.9-1,2.7.3s1.8,2.3,2.7,3.5a3.3,3.3,0,0,0,1.2,1.7c4.5,6.5,9.3,12.9,14.1,19.3Z"/><path class="fd6fea14-eb85-4043-8d2d-9dbe8cad421a" d="M315,28.6V26.4c0-4.8.1-9.5,0-14.2,0-1.6.4-2.4,2.1-2.2h45.2c.6-.1,1.4.2,2-.3l1.4.3H497.9c.6-.1,1.2.1,1.7-.3h24.8c1.8-.1,2.4.4,2.4,2.3V84.3l-14.4-6.1c-1.1-.5-1-1.3-1-2.2,0-11.4-.1-22.8-.1-34.2,0-7.3-.1-14.6-.1-21.9,0-1.7-.5-2.3-2.2-2.3H331.7c-3.1,0-3.1,0-3.1,3.2,0,18.1-.1,36.1,0,54.2a2.7,2.7,0,0,1-2,3c-3.9,1.5-7.6,3.2-11.4,4.8A13.7,13.7,0,0,1,315,81V28.6Z"/><path class="bb3dc3ed-1c0c-4c90-8e08-02b8c8f43b55" d="M81.2,102l2-.3,20-.4c.2,1.6,1.9,2,2.4,3.4l3.6,12.5c3.1-5.6,6.5-10.7,6.9-17.2.8-12.7-.7-25.2-.6-37.8a28.4,28.4,0,0,1,5.8-.5,22.4,22.4,0,0,0,.9,4.5c-.2,2,.3,3.8.4,5.8.4,5.8,1,11.7,1.4,17.5a63.8,63.8,0,0,1-2.1,22.2,68.9,68.9,0,0,1-8.5,17.2c-9.1,8.5-11.7,18.9-8.5,30.7a4.5,4.5,0,0,1-.1,2.6l-2.1,5.2c-3.6-1.1-7.4-1.7-10.8-3.2-7.9-3.2-13.1-8.8-14.1-17.6a15.4,15.4,0,0,1,.3-3.7c3.4-.7,6.5-2.3,9.8-3.4a1.4,1.4,0,0,0,.9-1.3c.8-4.4,1.7-8.7,2.6-13.1.2-1.1-.2-1.6-1.3-1.9l-8.8-2.7a1.9,1.9,0,0,0-1.5.2C80.2,114.5,80.7,108.2,81.2,102Z"/><path class="ba7a5d98-b16c-4140-ba07-d694c30c4beb" d="M570.9,226.5h-2c-9.7-1.2-16-7-17.2-16.2-.5-3.8-.2-7.8-.2-11.7v-2.2c0-1,.1-2,0-3s.8-3.5,2.8-4.1,3.4.3,4.3,2.2c-.8.5-.8,1.2-.8,2V206c0,.9,0,1.9,1,1.9s1.2-1.1,1.2-2V193.6c0-.8.1-1.7-.9-2.1,2.2-3.2,4.8-3.2,6.9,0-.8.4-.8,1.2-.8,1.9V206c0,.9,0,1.9,1,1.9s1.1-1.1,1.1-1.8V193.5c0-.8,0-1.6-.8-2a4.5,4.5,0,0,1,2.6-2.3h2.2a5.6,5.6,0,0,1,2.1,2.2c-.9.4-.9,1.2-.9,1.9.1,4.2,0,8.4.1,12.6,0,.8-.2,1.8,1,1.8s1.1-1,1.1-1.8c0-4.2-.1-8.4,0-12.6a2,2,0,0,0-.8-1.9c2-3.2,4.6-3.1,6.9,0-1.1.4-.9,1.3-.9,2.1v12.3c0,.8-.3,1.9.9,2s1.2-1,1.2-1.9V193.4c0-.7,0-1.5-.8-1.9.9-1.8,2.3-2.7,4.3-2.2s2.8,2.1,2.8,4.1c-.1,4.5,0,8.9,0,13.4C588.3,217.9,582,225,570.9,226.5Z"/><path class="fd6fea14-eb85-4043-8d2d-9dbe8cad421a" d="M587.8,256.9a3.9,3.9,0,0,0-2-.6c-3.6-2.2-6.5-5.1-7.2-9.5a11.9,11.9,0,0,1,3.1-11.1,2.9,2.9,0,0,1,.3,1A13.8,13.8,0,0,0,592.5,248c4.2,1,8-.1,11.5-2.4-.4,7.4-7.8,13-15.2,11.5Z"/><path class="bb3dc3ed-1c0c-4c90-8e08-02b8c8f43b55" d="M78.1,140.9c.6-6.3,1.1-12.5,1.6-18.7l8.1,2.5c1,.3,1.4.6,1.1,1.8q-1.1,4.8-1.8,9.6a2.8,2.8,0,0,1-1.9,2.2Z"/><path class="a67ff778-022c-4e43-aa0e-d7ad6dfb3fc7" d="M604,245.6c-3.5,2.3-7.3,3.4-11.5,2.4A13.8,13.8,0,0,1,582,236.7a2.9,2.9,0,0,0-.3-1c.3-1.1.1-2.5,2-1.9a6.4,6.4,0,0,1,.4,2.4c.6,4.7,4.6,9.1,8.8,9.4a15.1,15.1,0,0,1,.6-14c1.2-.8,1.9-.5,2.3.8a11.6,11.6,0,0,0-1.1,11.8c.8,1.8,1.9,2.2,3.7,1.7s3.7-2,5.7-2.7C605.1,244,604.8,244.9,604,245.6Z"/><path class="fd6fea14-eb85-4043-8d2d-9dbe8cad421a" d="M604.1,243.2c-2,.7-3.6,2.2-5.7,2.7s-2.9.1-3.7-1.7a11.6,11.6,0,0,1,1.1-11.8C600.3,233.7,603.6,238.1,604.1,243.2Z"/><path class="fd6fea14-eb85-4043-8d2d-9dbe8cad421a" d="M593.5,231.6a15.1,15.1,0,0,0-.6,14c-4.2-.3-8.2-4.7-8.8-9.4a6.4,6.4,0,0,0-.4-2.4C586.7,231.9,589.9,230.8,593.5,231.6Z"/><path class="a67ff778-022c-4e43-aa0e-d7ad6dfb3fc7" d="M581.2,191.5c.8.4.8,1.2.8,1.9V206c0,.9.1,2-1.2,1.9s-.9-1.2-.9-2V193.6c0-.8-.2-1.7.9-2.1Z"/><path class="a67ff778-022c-4e43-aa0e-d7ad6dfb3fc7" d="M573.9,191.5a2,2,0,0,1,.8,1.9c-.1,4.2,0,8.4,0,12.6,0,.8,0,1.8-1.1,1.8s-1-1-1-1.8c-.1-4.2,0-8.4-.1-12.6,0-.7,0-1.5.9-1.9Z"/><path class="fa6ce163-83e9-47b1-ace8-6fac0d271236" d="M569.1,189.2a4.5,4.5,0,0,0-2.6,2.3H566c-2.1-3.2-4.7-3.2-6.9,0h-.5c-.9-1.9-2.3-2.7-4.3-2.2s-2.8,2.1-2.8,4.1,0,2,0,3H275.4c-2.2,0-2.6-.7-2.6-2.7V99.8c0-1.8.4-2.2,2.2-2.2H566.8c1.8,0,2.5.2,2.5,2.3q-.1,43.5-.1,87.2C569.2,187.8,569.1,188.5,569.1,189.2Z"/><path class="fd6fea14-eb85-4043-8d2d-9dbe8cad421a" d="M420.2,342.4H332.7c-1.7.1-2.2-.3-2.2-2.1q.2-69.9.1-139.8c0-1.7.5-2,2.1-2H507.5c1.7,0,2.1.4,2.1,2.1q.1,69.6.5,139c0,2-.6,2.4-2.4,2.4H420.2Z"/><path class="fa6ce163-83e9-47b1-ace8-6fac0d271236" d="M180.3,229c-6.1-9.1-12.1-18-18-27-1.2-1.8-2.4-3.8-3.8-5.6a2.3,2.3,0,0,1-.2-2.6c1.5-3.3,2.9-6.5,4.3-9.8.3-.8,1.2-1.9-.2-2.5s-1.4.8-1.7,1.6c-5.6,13.3-11.1,26.6-16.6,39.9-2.8,6.6-5.5,13.1-8.2,19.8a33.7,33.7,0,0,1-5.7,9.2L87.4,301.9c-.6.8-1.1,1.4-2.3.8L36.3,277.9l-.8-.6L50,259.8l34.2-41.5a14,14,0,0,1,3.7-3.2c2.2-1.2,4.3-2.4,6.4-3.8s2.5-.8,1.6-2.2-1.8,0-2.6.4l-4.5,2.6c-.4-1,.2-1.7.5-2.4l17.4-46.6a6.4,6.4,0,0,0,.2-4.3c-2.6-9.9-1-18.8,6.1-26.4a3,3,0,0,1,2.6-1.3l63.6.3c.8,0,1.5-.1,2.1.8q27.1,37.8,54.4,75.4a21.7,21.7,0,0,1,4.3,13.2c0,26.6.2,53.1.4,79.7,0,1.7-.4,2.2-2.3,2.2-17.8-.4-35.7-.7-53.6-.9-1.4,0-1.7-.5-1.7-1.8,0-21.4-.1-42.9-.1-64.3,0-3.2.1-6.3,0-9.5,0-.8.1-1.9-1-1.9s-1.1,1.1-1.1,2A6.8,6.8,0,0,1,180.3,229Z"/><path class="fd6fea14-eb85-4043-8d2d-9dbe8cad421a" d="M330.7,76.1v-16c0-12.7,0-25.3-.1-38,0-1.8.5-2.2,2.3-2.2H504c5,0,5,0,5,5,.1,16.5.1,33.1.2,49.7,0,2.2,0,2.2-2,1.4L427.3,41.1c-1-.5-1.6-.9-1.7-2.2a5.2,5.2,0,0,0-5.1-4.9,5.2,5.2,0,0,0-5.6,4.6,2.3,2.3,0,0,1-1.5,2L331.5,75.9Z"/><path class="fd6fea14-eb85-4043-8d2d-9dbe8cad421a" d="M419.8,95.5H332.9c-1.7,0-2.4-.3-2.3-2.2.2-4.3.1-8.6,0-12.8a2.5,2.5,0,0,1,1.8-2.8l71.8-31,9.5-4.1a1.8,1.8,0,0,1,2.6.5,5.2,5.2,0,0,0,7.4.5c1.2-1.3,2.1-1,3.4-.4l61.5,26.8,18.9,8.2a2.4,2.4,0,0,1,1.8,2.6c-.1,4.1-.1,8.3,0,12.4.1,1.8-.4,2.3-2.2,2.3H419.8Z"/><path class="ba7a5d98-b16c-4140-ba07-d694c30c4beb" d="M183.9,118a2.4,2.4,0,0,1-.6-2.1V104.6c0-.8.1-1.9-1-2s-1.1,1.2-1.1,2c0,3.6,0,7.1-.1,10.7-5.3-10.2-10.9-20.3-12-32.1-.6-7-1.8-13.9-2.8-20.8a14.4,14.4,0,0,1,5,1.9c3.5,2,6.9,4.1,10.3,6.2l2.3,1.5c3.6,2.3,7.1,4.7,10.9,6.7a16.3,16.3,0,0,0,3.5,2.3l6.1,3.7a3.8,3.8,0,0,0,2.2,1.3c3.2,2.6,6.9,4.4,10.3,6.7,5.6,3.7,12,6.4,15.8,12.4l1,2.1c2.8,6.7,2,13.2-1.8,19.4-.9,1.4-1.7,3-2.5,4.5a5.7,5.7,0,0,0-1.1,2.2c-4.7,7.9-9.1,16-13.4,24.1a5.1,5.1,0,0,0-1.2,2.3c-1.8,2.3-2.8,5.1-4.4,7.6l-20.4-28c-1.3-1.8-2.5-3.7-3.9-5.4a2.4,2.4,0,0,1-.3-2.8c1.8-2.2,2.7-5,4.4-7.3.3,1.1.5,2.3.8,3.4a1,1,0,0,0,1.2.9c.8-.1.9-.7.9-1.3s-.7-1.7-.2-2.8l2.9,1.5c.6.4,1.3.6,1.7-.2s-.1-1.3-.7-1.7-3.3-1.7-4.9-2.6a1.5,1.5,0,0,0-1.7.1Z"/><path class="ba7a5d98-b16c-4140-ba07-d694c30c4beb" d="M113.4,128.9a68.9,68.9,0,0,0,8.5-17.2A63.8,63.8,0,0,0,124,89.5c-.4-5.8-1-11.7-1.4-17.5-.1-2-.6-3.8-.4-5.8,5.2,11.2,21,13.7,30.5,6.2,2.9-2.2,4.3-5.4,5.7-8.6a2.2,2.2,0,0,0-.1-1.6l1.5-.3c.7,7.5,1.2,15,2,22.5a72.6,72.6,0,0,0,14.1,35.1,33.3,33.3,0,0,0,6.2,7.3c.5,1.9-.1,2.5-2.2,2.5L115,129Z"/><path class="fd6fea14-eb85-4043-8d2d-9dbe8cad421a" d="M526.8,198.7V341.9l-13.4.2c-1.5,0-1.1-1.1-1.1-1.9-.1-8.9-.1-17.7-.1-26.6q-.3-56.2-.4-112.5c0-2,.4-2.6,2.4-2.5C518.4,198.8,522.6,198.7,526.8,198.7Z"/><path class="fd6fea14-eb85-4043-8d2d-9dbe8cad421a" d="M315,213V198.7h11.6c1.5-.1,1.9.3,1.9,1.9-.1,9.8,0,19.5,0,29.3-.1,19.3-.1,38.6-.1,57.9-.1,17.1-.1,34.3-.1,51.5v3.3H315V213Z"/><path class="ed9171d9-0d03-43cb-bf7b-4f817eef1956" d="M88.4,342.6c-8.3,0-16.5-.1-24.8,0a7.4,7.4,0,0,1-3.2-.7L18.2,322c-1.3-.6-1.8-1-1-2.5,2.7-5.2,5.2-10.6,7.7-15.9.5-1.2.9-1.5,2.2-.9a30.9,30.9,0,0,1,13.7,10.5,28.6,28.6,0,0,0,15.1,10.9l16.3,5.3c7.2,2.3,14.4,1.9,21.7.3,3.4-.8,6.9-1.3,10.4-1.9a2.1,2.1,0,0,1,1.9.1c5.1,2.9,8.2,7,9,12.8.2,1.5-.2,1.9-1.7,1.9H88.4Z"/><path class="ed9171d9-0d03-43cb-bf7b-4f817eef1956" d="M101.6,326.1c-7.7,1-15,3.7-22.8,2.6-5.4-.8-10.3-2.9-15.5-4.4-2.5-.7-5.1-1.5-7.6-2.4A26,26,0,0,1,43,312.5a32.7,32.7,0,0,0-14.9-11.6c-1.2-.5-1.5-1-.9-2.2,2.8-5.7,5.5-11.4,8.2-17.1.5-1,.9-1.4,2.1-.8l32.4,16.5c1,.5,1.4,1,1.1,2.1s-.2,4,.6,6,.4,1.3-.7,1.4a1.1,1.1,0,0,0-1.1,1c0,.8.6,1.1,1.3,1.1s3,1.4,4.1,2.9a22.1,22.1,0,0,0,9.8,7.3L99.7,325C100.3,325.3,101.1,325.3,101.6,326.1Z"/><path class="ed9171d9-0d03-43cb-bf7b-4f817eef1956" d="M257.6,326.4a34.9,34.9,0,0,1-16.4,3.7c-9.3-.3-18.7-.2-28-.2a13.3,13.3,0,0,1-8.8-3l-2.8-2.2a23.2,23.2,0,0,0-17-6.4c-1.3,0-1.8-.4-1.8-1.8q.1-5.5,0-11.1c0-1.1.2-1.6,1.4-1.6l40,.8c1.6,0,3.9,3.2,3.4,4.7s.2,1.6,1.2,1.6a4.3,4.3,0,0,1,2.8,1.5,43.4,43.4,0,0,0,18.7,10.7A26.5,26.5,0,0,1,257.6,326.4Z"/><path class="ed9171d9-0d03-43cb-bf7b-4f817eef1956" d="M226.6,342.7H185c-1.8,0-2.2-.5-2.1-2.1.1-6.1.1-12.1-.1-18.2,0-2,.6-2.1,2.3-2a22.5,22.5,0,0,1,15,5.8c2.7,2.4,5.5,4.8,9.3,5.5a37.5,37.5,0,0,0,5.8.2c8.4.2,16.8,0,25.1.4a37.4,37.4,0,0,0,17.2-3.5c2-1,3.3-.5,4.7.9a31.9,31.9,0,0,1,7.7,10.8c.9,2.1.9,2.1-1.4,2.1H226.6Z"/><path class="fa6ce163-83e9-47b1-ace8-6fac0d271236" d="M273.2,264.2H253.6c-1.4,0-1.9-.3-1.9-1.8.1-7.1.1-14.3,0-21.4,0-1.3.4-1.6,1.6-1.6h39.9c1.4,0,1.6.5,1.6,1.8,0,7-.1,14.1,0,21.2,0,1.4-.3,1.8-1.8,1.8Z"/><path class="ed9171d9-0d03-43cb-bf7b-4f817eef1956" d="M182.8,52.6c-6.6,0-13.2-.1-19.8,0-1.4,0-1.7-.4-1.7-1.7.1-7,.1-13.9,0-20.9,0-1.4.5-1.7,1.8-1.6h39.4c1.5,0,1.8.5,1.8,1.9-.1,6.8-.1,13.7,0,20.6,0,1.3-.3,1.7-1.7,1.7-6.6-.1-13.2,0-19.8,0Z"/><path class="fa6ce163-83e9-47b1-ace8-6fac0d271236" d="M205.4,2.3h19.4c1.3-.1,1.9.2,1.9,1.7-.1,6.9-.1,13.7-.1,20.6.1,1.4-.3,1.7-1.7,1.7-13.2,0-26.4-.1-39.6,0-1.4,0-1.6-.5-1.6-1.8V3.9c0-1.3.3-1.7,1.7-1.7Z"/><path class="fa6ce163-83e9-47b1-ace8-6fac0d271236" d="M250,26.3c-6.4,0-12.9-.1-19.4,0-1.4,0-2-.2-1.9-1.8q.2-10.3,0-20.7c0-1.2.3-1.6,1.6-1.6h39.6c1.5,0,1.8.4,1.8,1.8q-.1,10.2,0,20.4c0,1.5-.4,1.9-1.8,1.9Z"/><path class="ed9171d9-0d03-43cb-bf7b-4f817eef1956" d="M227.8,28.5h19.8c1.4,0,1.8.3,1.8,1.7-.1,7-.1,14,0,21.1,0,1.1-.4,1.4-1.5,1.4h-40c-1.2,0-1.5-.3-1.5-1.4V29.9c-.1-1.4.5-1.5,1.6-1.5h19.8Z"/><path class="fa6ce163-83e9-47b1-ace8-6fac0d271236" d="M273.1,28.5c6.6,0,13.1.1,19.6,0,1.5,0,1.9.4,1.9,1.8-.1,6.9-.1,13.7,0,20.6,0,1.3-.3,1.8-1.7,1.8H253.1c-1.3,0-1.7-.3-1.7-1.7.1-6.9.1-13.8,0-20.8,0-1.4.4-1.7,1.7-1.7Z"/><path class="ed9171d9-0d03-43cb-bf7b-4f817eef1956" d="M249.8,159.8H269c1.3,0,1.7.3,1.7,1.7v21.4c0,1.3-.2,1.8-1.6,1.8H230.3c-1.1,0-1.5-.2-1.5-1.4.1-7.3.1-14.6,0-21.8,0-1.4.4-1.7,1.7-1.6Z"/><path class="ed9171d9-0d03-43cb-bf7b-4f817eef1956" d="M250.3,78.7H230.7c-1.4,0-1.9-.4-1.8-1.9V56.5c-.1-1.4.3-1.8,1.8-1.8h39.4c1.4,0,1.7.4,1.7,1.7q-.2,10.4,0,20.7c0,1.5-.5,1.8-1.9,1.7H250.3Z"/><path class="ed9171d9-0d03-43cb-bf7b-4f817eef1956" d="M159.6,318.8H179c1.4,0,1.8.5,1.8,1.9-.1,6.8,0,13.6,0,20.4,0,1.2-.2,1.8-1.6,1.8H139.6c-1.2,0-1.5-.5-1.5-1.6,0-7,.1-14,0-21,0-1.3.5-1.6,1.7-1.6Z"/><path class="fa6ce163-83e9-47b1-ace8-6fac0d271236" d="M317.1,10c-1.7-.2-2.1.6-2.1,2.2.1,4.7,0,9.4,0,14.2H275.6c-1.3.1-1.9-.1-1.9-1.7.1-6.9.1-13.7,0-20.6,0-1.3.3-1.7,1.7-1.7h40c1.3,0,1.8.3,1.7,1.7S317.1,8,317.1,10Z"/><path class="ed9171d9-0d03-43cb-bf7b-4f817eef1956" d="M159.5,290.2H140.4c-1.4,0-2-.2-1.9-1.8V267.9c-.1-1.3.3-1.7,1.7-1.7h38.5c1.5,0,2,.3,2,1.9-.1,6.7-.1,13.5.1,20.2,0,1.7-.6,2-2.1,2Z"/><path class="fa6ce163-83e9-47b1-ace8-6fac0d271236" d="M315,213v24.3H276c-1.4,0-2-.3-1.9-1.9.1-6.8.1-13.7,0-20.6-.1-1.6.4-1.9,1.9-1.9Z"/><path class="fa6ce163-83e9-47b1-ace8-6fac0d271236" d="M194.8,78.7c-3.8-2-7.3-4.4-10.9-6.7,0-5.4,0-10.7-.1-16.1,0-1,.4-1.2,1.3-1.2h40.4c1.1,0,1.3.4,1.3,1.3-.1,7.2-.1,14.3,0,21.4,0,1.7-1.1,1.3-1.9,1.3Z"/><path class="fa6ce163-83e9-47b1-ace8-6fac0d271236" d="M315,54.8V78.9c-12.9,0-25.8-.1-38.8,0-1.9,0-2.3-.6-2.3-2.5.1-6.4.1-12.9,0-19.3,0-1.8.4-2.4,2.3-2.4Z"/><path class="fa6ce163-83e9-47b1-ace8-6fac0d271236" d="M315,318.9v23.6H275c-1.2,0-1.4-.4-1.4-1.5,0-6.9,0-13.8-.1-20.6,0-1.8.9-1.6,2.1-1.6Z"/><path class="fa6ce163-83e9-47b1-ace8-6fac0d271236" d="M315,266.3v24H276c-1.7,0-2.1-.4-2.1-2.1.1-6.7.1-13.3,0-20,0-1.5.3-2,1.9-1.9Z"/><path class="ed9171d9-0d03-43cb-bf7b-4f817eef1956" d="M569.9,300.1c5.9,9.4,11.8,18.7,17.5,28.1a8.9,8.9,0,0,1-7.5,13.5q-10.2.3-20.4,0a8.8,8.8,0,0,1-7.4-13.3c5.7-9.4,11.6-18.7,17.4-28Z"/><path class="ed9171d9-0d03-43cb-bf7b-4f817eef1956" d="M273.3,292.4c6.5,0,13,.1,19.6,0,1.4,0,1.8.3,1.8,1.8V315c0,1.3-.3,1.8-1.7,1.8H253.2c-1.3.1-1.7-.3-1.7-1.7s.9-1.3,1.8-1.3c4,.2,6.3-1.5,6.9-4.7a6.5,6.5,0,0,0-4.2-7.4,4.5,4.5,0,0,0-2.8-.1c-1.3.5-1.7.2-1.7-1.2s.1-4.1,0-6.2.4-1.7,1.8-1.7Z"/><path class="ed9171d9-0d03-43cb-bf7b-4f817eef1956" d="M229.4,131.1c.8-1.5,1.6-3.1,2.5-4.5,3.8-6.2,4.6-12.7,1.8-19.4H269c1.3,0,1.7.4,1.7,1.7v20.9c0,1.1-.3,1.5-1.5,1.5Z"/><path class="ed9171d9-0d03-43cb-bf7b-4f817eef1956" d="M144,24.9c.8,1.5,1.3,2.5,1.9,3.5s2,2.9-.9,3.3a.9.9,0,0,0-.8,1.2,1.1,1.1,0,0,0,1.5.7l1.8-.5c2.7-.9,2.8-1,1.5-3.7,2.7.4,5.1-.1,6.9-2.1s.9,0,1.2.4a6.6,6.6,0,0,1-.1,7.5,4.8,4.8,0,0,0-.7,3.5c1.1,8.6-6.9,15.6-15.5,13.7a14.1,14.1,0,0,1-2.2-.6c-.7-.2-1.5-.3-1.7.6s.4,1.2,1.1,1.4a15.1,15.1,0,0,0,8.9.7c1.7-.4,1.8.1,1.7,1.5s.1,3.3,0,4.9a8.5,8.5,0,0,1-8.5,8.4,8.4,8.4,0,0,1-8.7-8.1c-.2-5-.1-10-.1-15a1.8,1.8,0,0,1,.8-1.5,15.3,15.3,0,0,0,1.8-1.8,1.2,1.2,0,0,0,.1-1.8c-.7-.5-1.3-.1-1.8.5a7.4,7.4,0,0,1-8.5,2.5A7.5,7.5,0,0,1,119.4,34a7.6,7.6,0,0,1,10.5-3.5c1,.5,2.1,2.7,3.3.1,0-.1.4.1.7.2C139.3,33,142.8,31.1,144,24.9ZM126.5,36.6l-.9,1c-.5.6-1.4,1.2-.5,2s1.5,0,2.1-.6,1.7-1.6,2.4-2.4.6-1.9-.7-2-4.1-.3-6.1-.4a1.1,1.1,0,0,0-1.4.9c-.1.8.5,1.1,1.2,1.1ZM149,38.4l1.5.2c.8.2,1.6.5,1.9-.6s-.7-1.3-1.4-1.4a8.2,8.2,0,0,0-6.3.8c-.7.4-1.5.8-1,1.7s1.2.6,1.9.2A6.4,6.4,0,0,1,149,38.4Z"/><path class="fa6ce163-83e9-47b1-ace8-6fac0d271236" d="M140.7,10.1c1.8-3.3,1.5-5.4-1-6.6-.5-.2-1.2-.1-1.3-.9s1.2-.3,1.9-.3h39.4c1.5,0,1.9.3,1.9,1.9-.1,6.8,0,13.6,0,20.5,0,1.3-.3,1.7-1.7,1.7q-9.9-.2-19.8,0a2.4,2.4,0,0,1-2.7-2.4c-.2-5.1-2.6-7.4-7.6-7.1h-.7C147.2,13.4,143.9,11.7,140.7,10.1Z"/><path class="ed9171d9-0d03-43cb-bf7b-4f817eef1956" d="M273.3,81h19.8c1.4,0,1.7.5,1.7,1.8a64.2,64.2,0,0,0,0,7.6c0,1.3-.6,1.7-1.6,2.3-5.6,3.6-11.9,2.9-18.1,2.9s-4.4-.7-4.4,4.4,0,5.1-5.1,5.1H253.3c-1.2.1-1.7-.1-1.7-1.5q.2-10.5,0-21c0-1.4.5-1.6,1.7-1.6Z"/><path class="fa6ce163-83e9-47b1-ace8-6fac0d271236" d="M232.7,105.1c-3.8-6-10.2-8.7-15.8-12.4-3.4-2.3-7.1-4.1-10.3-6.7-.4-5.1-.4-5.1,4.6-5.1h36.3c1.6,0,2,.5,2,2.1-.1,6.7-.1,13.4,0,20.2,0,1.6-.5,1.9-1.9,1.8Z"/><path class="ed9171d9-0d03-43cb-bf7b-4f817eef1956" d="M273,210.8c-6.5,0-13.1-.1-19.6,0-1.6,0-1.9-.4-1.9-1.9.1-6.8,0-13.7,0-20.5,0-1.3.3-1.7,1.7-1.7q7.9.2,15.9,0c1.2,0,1.7.3,1.6,1.6s.1,5.2,0,7.9.4,2.5,2.4,2.5c6.5-.2,13.1,0,19.6-.1,1.6-.1,2.1.4,2,2a64.2,64.2,0,0,0,0,7.6c.2,2.1-.3,2.8-2.5,2.7-6.4-.2-12.8-.1-19.2-.1Z"/><path class="ed9171d9-0d03-43cb-bf7b-4f817eef1956" d="M256.6,213h13.8c1.2,0,1.6.4,1.6,1.7v21.2c0,1.1-.3,1.5-1.5,1.5-8.9-.1-17.9-.1-26.8,0-1.4,0-1.5-.6-1.5-1.7,0-5.1-.1-10.2-.1-15.3a23.2,23.2,0,0,0-.7-5.9c-.4-1.3,0-1.5,1.2-1.5h14Z"/><path class="fa6ce163-83e9-47b1-ace8-6fac0d271236" d="M256.9,290.3c-4.2,0-8.5-.1-12.8,0-1.2,0-1.8-.2-1.8-1.6.1-7,.1-13.9,0-20.9,0-1.3.4-1.6,1.6-1.5h26.4c1.2,0,1.5.3,1.5,1.5,0,7-.1,14,0,21,0,1.4-.5,1.5-1.7,1.5Z"/><path class="ed9171d9-0d03-43cb-bf7b-4f817eef1956" d="M140.5,237.1c3-7.3,5.8-14.2,8.7-21,1.7-4,.5-3.2,4.8-3.2h11.3a2.7,2.7,0,0,1,2.5,1.3l12,18c1,1.4.7,2.9.7,4.4s-1,.6-1.5.6H140.5Z"/><path class="ed9171d9-0d03-43cb-bf7b-4f817eef1956" d="M214.9,157.4c4.3-8.1,8.7-16.2,13.4-24.1h19.4c1.4,0,1.8.3,1.8,1.8-.1,6.9,0,13.9,0,20.8,0,1.1,0,1.8-1.5,1.8H215.7Z"/><path class="ed9171d9-0d03-43cb-bf7b-4f817eef1956" d="M180.6,251.7v10.5c.1,1.3-.2,2-1.7,1.9-5.2-.1-10.5-.1-15.7,0-1.4,0-1.7-.5-1.7-1.8.1-7,.1-14.1,0-21.2,0-1.2.2-1.8,1.7-1.8H179c1.2,0,1.6.3,1.5,1.5v10.9Z"/><path class="ed9171d9-0d03-43cb-bf7b-4f817eef1956" d="M161.4,304.5c0-3.6.1-7.1,0-10.7,0-1.2.3-1.5,1.5-1.5h16.5c.8,0,1.4.1,1.4,1.2-.5,7.1,0,14.1,0,21.2,0,1.6-.5,2-2.1,2H163.1c-1.4,0-1.8-.3-1.7-1.7C161.5,311.5,161.4,308,161.4,304.5Z"/><path class="ed9171d9-0d03-43cb-bf7b-4f817eef1956" d="M251.6,145.5c0-3.6.1-7.2,0-10.7,0-1.1.3-1.5,1.4-1.5h16.3c1.2-.1,1.4.4,1.4,1.5v21.2c0,1.4-.5,1.6-1.7,1.6H253.4c-1.3,0-1.8-.3-1.8-1.7C251.7,152.5,251.6,149,251.6,145.5Z"/><path class="bb3dc3ed-1c0c-4c90-8e08-02b8c8f43b55" d="M182.1,126.8a33.3,33.3,0,0,1-6.2-7.3,72.6,72.6,0,0,1-14.1-35.1c-.8-7.5-1.3-15-2-22.5a10.3,10.3,0,0,1,6.5.5c1,6.9,2.2,13.8,2.8,20.8,1.1,11.8,6.7,21.9,12,32.1C183,119,181.9,123,182.1,126.8Z"/><path class="ed9171d9-0d03-43cb-bf7b-4f817eef1956" d="M315,239.5v24.7H298.5c-1.2,0-1.6-.3-1.6-1.6V241c0-1.3.4-1.6,1.6-1.6Z"/><path class="fa6ce163-83e9-47b1-ace8-6fac0d271236" d="M315,292.4v24.3H298.5c-1.3,0-1.7-.4-1.7-1.7v-21c0-1.4.4-1.7,1.7-1.7C304,292.5,309.5,292.4,315,292.4Z"/><path class="fa6ce163-83e9-47b1-ace8-6fac0d271236" d="M315,28.6v24H298.3c-1.2,0-1.6-.3-1.6-1.6v-21c0-1.3.3-1.6,1.6-1.6Z"/><path class="ed9171d9-0d03-43cb-bf7b-4f817eef1956" d="M110.2,45.8h-.3c-4.8-6.4-9.6-12.8-14.1-19.3,1.6-1.3,3.3-2.6,4.8-4,6.7-6.1,14.6-10.3,22.9-13.7,4.4-1.8,9.1-2.3,13.6-3.4.9-.2,2-.3,2.5.9s-.4,2.3-1.4,3.1a20.3,20.3,0,0,0-6.5-.2c-6,.8-10.3,4-13.5,9-2.6-2.8-5.1-3-7.9-.6l-7,6.4-.9.8c-.5.5-1.1,1-.5,1.8s1.3.3,1.9-.3l.8-.6,7.2-6.5a2.8,2.8,0,0,1,3.9-.6c1.5,1.1,1,2.4.3,3.7a33,33,0,0,1-2.3,4.1c-1.6,2.3-3.4,4.5-5,6.8-.5.6-1.5,1.4-.4,2.2s1.5-.3,2-1c2-2.5,3.8-5,5.7-7.6.6,2.1.5,4.2,1.5,6.1a16.5,16.5,0,0,0-1,4.4c0,.3.1.6-.1.8C114.2,40.5,113.3,44,110.2,45.8Z"/><path class="ed9171d9-0d03-43cb-bf7b-4f817eef1956" d="M223.2,186.7h25.1c.9,0,1.1.4,1.1,1.2v21.7c0,.8-.2,1.3-1.1,1.2h-.6c-2.4,0-4.9.5-7-.2s-2.8-3.6-4.1-5.4C232.1,199.2,227.8,193.1,223.2,186.7Z"/><path class="ed9171d9-0d03-43cb-bf7b-4f817eef1956" d="M497.9,10H454.2c0-2,.1-4,0-6s.3-1.6,1.5-1.6h40.9c1,0,1.3.3,1.3,1.3S497.9,7.9,497.9,10Z"/><path class="ed9171d9-0d03-43cb-bf7b-4f817eef1956" d="M362.3,10H319.2V3.8c0-1,.1-1.5,1.3-1.5,13.5.1,26.9.1,40.4,0,1,0,1.3.4,1.3,1.4S362.2,7.9,362.3,10Z"/><path class="ed9171d9-0d03-43cb-bf7b-4f817eef1956" d="M452.1,9.9H409.2V3.8c-.1-1.1.3-1.4,1.4-1.4h40.1c1.2,0,1.4.5,1.4,1.6Z"/><path class="ed9171d9-0d03-43cb-bf7b-4f817eef1956" d="M407.1,10H365.7l-1.4-.3c0-1.9.1-3.9,0-5.8s.2-1.6,1.5-1.6h39.9c1.1,0,1.4.3,1.4,1.4S407.1,7.9,407.1,10Z"/><path class="ba7a5d98-b16c-4140-ba07-d694c30c4beb" d="M118.2,18.1c3.2-5,7.5-8.2,13.5-9a20.3,20.3,0,0,1,6.5.2l2.5.8c3.2,1.6,6.5,3.3,8.4,6.7a3.1,3.1,0,0,1-1.9.9c-1.3-1.1-2.2-2.8-4.5-2-4.5,1.7-9,3.2-13.5,4.7-1.8.7-2.1,1.8-1.5,3.4s1,2.7,1.6,4c-5.1-1.1-9.1.5-11.8,5-1-1.9-.9-4-1.5-6.1A32,32,0,0,1,118.2,18.1Z"/><path class="fa6ce163-83e9-47b1-ace8-6fac0d271236" d="M209.3,167.3c1.6-2.5,2.6-5.3,4.4-7.6h11.4c1.3-.1,1.6.4,1.6,1.7v21.6c0,1.1-.2,1.5-1.4,1.6a5.5,5.5,0,0,1-5.7-2.8C216.3,176.9,212.7,172.1,209.3,167.3Z"/><path class="fa6ce163-83e9-47b1-ace8-6fac0d271236" d="M166.3,62.4a10.3,10.3,0,0,0-6.5-.5l-1.5.3c-1.5-1.9-3.9-2.1-6-3a3.5,3.5,0,0,1-1.5-4.2c.3-.5.8-.3,1.2-.3h28.4c1,0,1.3.2,1.3,1.2-.1,4.9,0,9.8-.1,14.6-3.4-2.1-6.8-4.2-10.3-6.2A14.4,14.4,0,0,0,166.3,62.4Z"/><path class="fa6ce163-83e9-47b1-ace8-6fac0d271236" d="M315,198.7v12.2H298.7c-1.4,0-2-.2-1.9-1.9s0-6,0-9c-.1-1.1.3-1.4,1.4-1.4Z"/><path class="fd6fea14-eb85-4043-8d2d-9dbe8cad421a" d="M526.8,95.4h-14c-.7,0-1.4.1-1.3-1V80l15.3,6.9Z"/><path class="ed9171d9-0d03-43cb-bf7b-4f817eef1956" d="M242.2,251.9v-11c0-1.1.2-1.6,1.4-1.5s4.4-.8,5.6.3.4,3.5.4,5.4c.1,5.7,0,11.4.1,17.1,0,1.7-.5,2.2-2.1,2s-3.9.7-5-.4-.2-3.2-.3-4.9v-7Z"/><path class="ed9171d9-0d03-43cb-bf7b-4f817eef1956" d="M271.4,337.6a44,44,0,0,0-11-12.1c-4.5-3.2-9.8-4.3-14.7-6.6h20.9c4.8,0,4.8,0,4.8,4.8Z"/><path class="fd6fea14-eb85-4043-8d2d-9dbe8cad421a" d="M315,85.5l12.2-5.4c1.3-.6,1.4,0,1.4,1-.1,4.3-.1,8.7,0,13,0,1-.3,1.5-1.4,1.4H315Z"/><path class="ed9171d9-0d03-43cb-bf7b-4f817eef1956" d="M129,60.9c1.3,6.9,5.4,10.8,11.2,10.6s9.6-4,10.6-10.6l1.8.7c4.1,1.5,4.1,1.5,2,5.2-3.8,6.8-13.3,9.6-21.4,6.5-4.3-1.6-7.6-4.3-9.2-8.8-.5-1.2-.3-2,1.1-2.3S127.7,61.3,129,60.9Z"/><path class="ed9171d9-0d03-43cb-bf7b-4f817eef1956" d="M579.4,283.4l-9.6,12.7-9.6-12.7Z"/><path class="ed9171d9-0d03-43cb-bf7b-4f817eef1956" d="M315,85.5v10H298.1c-.4,0-1.2.3-1.2-.5s-.4-1.6.7-2.1Z"/><path class="ed9171d9-0d03-43cb-bf7b-4f817eef1956" d="M315,81a13.7,13.7,0,0,0,.2,1.9L296.8,91c0-3.1.1-5.8,0-8.6,0-1.1.3-1.5,1.5-1.4Z"/><path class="ed9171d9-0d03-43cb-bf7b-4f817eef1956" d="M242.4,304.6c0-3.5.1-6.8,0-10.2-.1-1.5.2-2.1,1.9-2.1,5.1.1,5.1,0,5.1,5.2s0,5.1-4.9,6.5Z"/><path class="ed9171d9-0d03-43cb-bf7b-4f817eef1956" d="M129.3,27.8c-.6-1.3-1.1-2.6-1.6-4s-.3-2.7,1.5-3.4c4.5-1.5,9-3,13.5-4.7,2.3-.8,3.2.9,4.5,2a16.6,16.6,0,0,0-2.6,4.5c-.4,1.5-1.3.6-1.9-.3a6.4,6.4,0,0,0-11.6,2.4,2.8,2.8,0,0,0-.1,1.8C131.5,27.9,130.7,28.1,129.3,27.8Z"/><path class="ed9171d9-0d03-43cb-bf7b-4f817eef1956" d="M151.4,210.7c1.8-4.5,3.6-8.6,5.3-12.9,1.6,1.8,2.9,3.4,2.6,5.8a43.4,43.4,0,0,0,0,5.1c.2,1.8-.5,2.1-2,2Z"/><path class="ed9171d9-0d03-43cb-bf7b-4f817eef1956" d="M137.4,21.2a4,4,0,0,1,3.9,2.7c.3.9,1,1.9-.9,2a1.2,1.2,0,0,0-1,2c.8,1.2,0,1.4-.8,1.6a4.1,4.1,0,0,1-4.5-1.3,4,4,0,0,1-.7-4.4A4.2,4.2,0,0,1,137.4,21.2Z"/><path class="ed9171d9-0d03-43cb-bf7b-4f817eef1956" d="M155.1,24c-.9-.5-1.8-.7-2.5.2s.1,1.7.6,2.5q-3.3,1.5-5.4-.9a4.4,4.4,0,0,1-.1-5.3,4.2,4.2,0,0,1,4.9-1.4C154.6,19.9,155.4,21.5,155.1,24Z"/><path class="ed9171d9-0d03-43cb-bf7b-4f817eef1956" d="M234.6,309.2l13.9-4.1c.7-.2,1,.1.9.8v.2c.4,5.2.4,5.2-4.8,4.5l-5.2-.5-4.8-.6Z"/><path class="ed9171d9-0d03-43cb-bf7b-4f817eef1956" d="M234.4,311.6l9.7,1.1,3.8.4c1.1.1,1.5.4,1.6,1.6s-.4,2.3-2.1,2H245C240.3,317.6,237.4,314.5,234.4,311.6Z"/><path class="ed9171d9-0d03-43cb-bf7b-4f817eef1956" d="M251.5,307.6v-1.2c0-2.4,1.8-3.5,4.1-2.7a4.7,4.7,0,0,1,2.3,5.9c-.8,1.7-4,2.7-5.8,1.8s-.6-.6-.6-1.1Z"/><path class="ed9171d9-0d03-43cb-bf7b-4f817eef1956" d="M183.9,118l5.2,3.1v2.7c-1.7,2.3-2.6,5.1-4.4,7.3-1.1,0-.9-.8-.9-1.5C183.8,125.7,183.8,121.8,183.9,118Z"/><path class="ed9171d9-0d03-43cb-bf7b-4f817eef1956" d="M159.2,36.7V51.1c0,1.1-.3,1.6-1.5,1.5s-3.5,0-5.8,0c5.6-4.2,7.2-9.8,6.5-16.2Z"/><path class="ed9171d9-0d03-43cb-bf7b-4f817eef1956" d="M240.9,305.1c-3.1.9-6.2,2-9.4,2.8s-2.2-1.8-3.5-3.1h12.9Z"/><path class="ed9171d9-0d03-43cb-bf7b-4f817eef1956" d="M165.4,210.6c-4.6.3-4.6.3-3.8-5.7Z"/><path class="ed9171d9-0d03-43cb-bf7b-4f817eef1956" d="M204.4,84.7,198.3,81h2.3C204.5,80.8,204.5,80.9,204.4,84.7Z"/><path class="a67ff778-022c-4e43-aa0e-d7ad6dfb3fc7" d="M99.1,61.7c0,.3.1.5.1.8s-1.1,1.2-1.7,1.7L76.9,77.8l-1.2.8a1.2,1.2,0,0,1-1.3-.3c-.5-.6-.2-1.1.2-1.5l1-.7L96.5,62.2C97.3,61.7,98.1,60.9,99.1,61.7Z"/><path class="a67ff778-022c-4e43-aa0e-d7ad6dfb3fc7" d="M105.6,104.7c-.5-1.4-2.2-1.8-2.4-3.4a1.5,1.5,0,0,1,1.5-.8h7.2c.8,0,1.6.1,1.6,1.2s-.9,1-1.7,1-2.7-.4-4.2.2c.7,1.3,1.9,2,2.8,2.9s1.4,1.2.5,2.1-1.4-.1-2-.5S107,105.2,105.6,104.7Z"/><path class="a67ff778-022c-4e43-aa0e-d7ad6dfb3fc7" d="M558.6,191.5h.5c1,.4.9,1.3.9,2.1v12.3c0,.9.1,2.1-1.2,2s-1-1-1-1.9V193.5C557.8,192.7,557.8,192,558.6,191.5Z"/><path class="a67ff778-022c-4e43-aa0e-d7ad6dfb3fc7" d="M566,191.5h.5c.8.4.8,1.2.8,2v12.6c0,.7.1,1.9-1.1,1.8s-1-1-1-1.9V193.4C565.2,192.7,565.2,191.9,566,191.5Z"/><path class="a67ff778-022c-4e43-aa0e-d7ad6dfb3fc7" d="M189.1,123.8v-2.7a1.5,1.5,0,0,1,1.7-.1c1.6.9,3.2,1.8,4.9,2.6s1.1.9.7,1.7-1.1.6-1.7.2l-2.9-1.5c-.5,1.1.2,1.9.2,2.8s-.1,1.2-.9,1.3a1,1,0,0,1-1.2-.9C189.6,126.1,189.4,124.9,189.1,123.8Z"/><path class="a67ff778-022c-4e43-aa0e-d7ad6dfb3fc7" d="M126.5,36.6l-3.9-.4c-.7,0-1.3-.3-1.2-1.1a1.1,1.1,0,0,1,1.4-.9c2,.1,4.1.1,6.1.4s1.6,1,.7,2-1.6,1.6-2.4,2.4-1.3,1.4-2.1.6,0-1.4.5-2Z"/><path class="a67ff778-022c-4e43-aa0e-d7ad6dfb3fc7" d="M149,38.4a6.4,6.4,0,0,0-3.4.9c-.7.4-1.4.8-1.9-.2s.3-1.3,1-1.7a8.2,8.2,0,0,1,6.3-.8c.7.1,1.6.4,1.4,1.4s-1.1.8-1.9.6Z"/><path class="a67ff778-022c-4e43-aa0e-d7ad6dfb3fc7" d="M118.2,18.1a32,32,0,0,0-2.2,8.6c-1.9,2.6-3.7,5.1-5.7,7.6-.5.7-.9,1.8-2,1s-.1-1.6.4-2.2c1.6-2.3,3.4-4.5,5-6.8a33,33,0,0,0,2.3-4.1c.7-1.3,1.2-2.6-.3-3.7a2.8,2.8,0,0,0-3.9.6l-7.2,6.5-.8.6c-.6.6-1.2,1.1-1.9.3s0-1.3.5-1.8l.9-.8,7-6.4C113.1,15.1,115.6,15.3,118.2,18.1Z"/><path class="bb3dc3ed-1c0c-4c90-8e08-02b8c8f43b55" d="M80.4,112.5l-2.7,33.3s5.7,6,12.5,3.7,12.3-11.8,12.9-14.3,3.4-11,1.9-12.5-5.6-5.5-5.6-5.5"/><path class="b88e345a-f15e-4cd6-b3cf-313ec69d483f" d="M313.4,118v15.7a9.8,9.8,0,0,1-1.1,4.6,7.8,7.8,0,0,1-3.3,2.9,11.2,11.2,0,0,1-5,1c-2.9,0-5.2-.7-6.8-2.2a7.9,7.9,0,0,1-2.6-6.2V118h5.8v15.9c0,2.6,1.3,3.9,3.6,3.9a3.3,3.3,0,0,0,2.7-1,4.5,4.5,0,0,0,.9-3.2V118Z"/><path class="b88e345a-f15e-4cd6-b3cf-313ec69d483f" d="M336.9,141.9h-5.7l-8.4-14.8v14.8H317V118h5.8l8.4,14.9V118h5.7Z"/><path class="b88e345a-f15e-4cd6-b3cf-313ec69d483f" d="M340.6,141.9V118h7.7a11,11,0,0,1,5.7,1.5,10,10,0,0,1,3.9,4,11.7,11.7,0,0,1,1.4,5.9v1.1a12.8,12.8,0,0,1-1.3,5.9,10.7,10.7,0,0,1-3.9,4,11,11,0,0,1-5.7,1.5Zm5.7-19.4v15h2a4.3,4.3,0,0,0,3.8-1.8,8.5,8.5,0,0,0,1.4-5.2v-1.1a8.5,8.5,0,0,0-1.4-5.2,4.5,4.5,0,0,0-3.8-1.7Z"/><path class="b88e345a-f15e-4cd6-b3cf-313ec69d483f" d="M377.1,131.8h-9v5.7h10.6v4.4H362.3V118h16.5v4.5H368.1v5h9Z"/><path class="b88e345a-f15e-4cd6-b3cf-313ec69d483f" d="M390,133.5h-3.2v8.4h-5.7V118h9.4a10.8,10.8,0,0,1,6.6,1.9,6.4,6.4,0,0,1,2.4,5.3,7.7,7.7,0,0,1-1,4.2,7.3,7.3,0,0,1-3.1,2.6l4.9,9.7v.2h-6.1Zm-3.2-4.5h3.7a3.3,3.3,0,0,0,2.5-.8,3.6,3.6,0,0,0,.8-2.4,3.3,3.3,0,0,0-.9-2.5,3.3,3.3,0,0,0-2.4-.8h-3.7Z"/><path class="b88e345a-f15e-4cd6-b3cf-313ec69d483f" d="M314,168.8a7.9,7.9,0,0,1-1.4,4.4,7.7,7.7,0,0,1-3.4,3,11.9,11.9,0,0,1-5.1,1,9.5,9.5,0,0,1-7.4-3q-2.7-3.1-2.7-8.7v-1.2a14.4,14.4,0,0,1,1.2-6.1,9.4,9.4,0,0,1,3.5-4.1,10.6,10.6,0,0,1,5.4-1.4A10.1,10.1,0,0,1,311,155a8.6,8.6,0,0,1,3,6.3h-5.7a3.9,3.9,0,0,0-1.1-3.1,4.1,4.1,0,0,0-3.1-1,3.4,3.4,0,0,0-3.2,1.6,9.8,9.8,0,0,0-1,5.1v1.7a12.1,12.1,0,0,0,.9,5.5,3.6,3.6,0,0,0,3.3,1.6,4.8,4.8,0,0,0,3.1-.9,4.2,4.2,0,0,0,1.1-3Z"/><path class="b88e345a-f15e-4cd6-b3cf-313ec69d483f" d="M336.9,165.5a13.1,13.1,0,0,1-1.3,6.1,9.3,9.3,0,0,1-3.6,4.2,10,10,0,0,1-5.5,1.4,9.9,9.9,0,0,1-5.4-1.4,9,9,0,0,1-3.7-4,15.6,15.6,0,0,1-1.4-6v-1.3a15.2,15.2,0,0,1,1.3-6.2,9.3,9.3,0,0,1,3.7-4.1,10.1,10.1,0,0,1,5.5-1.5,10.9,10.9,0,0,1,5.4,1.4,10.1,10.1,0,0,1,3.7,4.2,13.1,13.1,0,0,1,1.3,6.1Zm-5.8-1a9.8,9.8,0,0,0-1.2-5.4,3.7,3.7,0,0,0-3.4-1.9c-2.9,0-4.4,2.2-4.6,6.5v1.8a10.3,10.3,0,0,0,1.2,5.4,3.7,3.7,0,0,0,3.4,1.8,3.8,3.8,0,0,0,3.4-1.8,9.7,9.7,0,0,0,1.2-5.3Z"/><path class="b88e345a-f15e-4cd6-b3cf-313ec69d483f" d="M359.8,176.9h-5.7l-8.4-14.8v14.8h-5.8V153h5.8l8.4,14.9V153h5.7Z"/><path class="b88e345a-f15e-4cd6-b3cf-313ec69d483f" d="M375.8,170.6a2.4,2.4,0,0,0-.9-2,9.8,9.8,0,0,0-3.1-1.5l-3.7-1.4c-3.1-1.5-4.6-3.6-4.6-6.3a5.4,5.4,0,0,1,1.1-3.5,7.3,7.3,0,0,1,3.3-2.3,11.9,11.9,0,0,1,4.7-.9,11.6,11.6,0,0,1,4.7.9,7.2,7.2,0,0,1,3.1,2.6,6.9,6.9,0,0,1,1.2,3.9h-5.8a2.7,2.7,0,0,0-.9-2.2,3.2,3.2,0,0,0-2.4-.8,4.3,4.3,0,0,0-2.4.6,2.3,2.3,0,0,0-.9,1.8,1.9,1.9,0,0,0,1,1.6,13.6,13.6,0,0,0,3.4,1.6,20.3,20.3,0,0,1,4.1,1.7c2.6,1.5,3.9,3.5,3.9,6.1a5.9,5.9,0,0,1-2.4,5,11.2,11.2,0,0,1-6.5,1.7,12.4,12.4,0,0,1-5.2-1,7.5,7.5,0,0,1-3.6-2.9,7.3,7.3,0,0,1-1.2-4.1h5.8a3.4,3.4,0,0,0,1,2.8,4.7,4.7,0,0,0,3.2.9,3.9,3.9,0,0,0,2.3-.6A2.1,2.1,0,0,0,375.8,170.6Z"/><path class="b88e345a-f15e-4cd6-b3cf-313ec69d483f" d="M403.3,157.5h-7.2v19.4h-5.8V157.5h-7V153h20Z"/><path class="b88e345a-f15e-4cd6-b3cf-313ec69d483f" d="M414.6,168.5h-3.2v8.4h-5.7V153h9.4a10.8,10.8,0,0,1,6.6,1.9,6.4,6.4,0,0,1,2.4,5.3,7.7,7.7,0,0,1-1,4.2A7.3,7.3,0,0,1,420,167l4.9,9.7v.2h-6.1Zm-3.2-4.5h3.7a3.3,3.3,0,0,0,2.5-.8,3.6,3.6,0,0,0,.8-2.4,3.3,3.3,0,0,0-.9-2.5,3.3,3.3,0,0,0-2.4-.8h-3.7Z"/><path class="b88e345a-f15e-4cd6-b3cf-313ec69d483f" d="M446.3,153v15.7a8.7,8.7,0,0,1-1.1,4.6,7.5,7.5,0,0,1-3.2,2.9,11.6,11.6,0,0,1-5.1,1c-2.9,0-5.2-.7-6.8-2.2a8.3,8.3,0,0,1-2.6-6.2V153h5.8v15.9q.1,3.9,3.6,3.9a3.7,3.7,0,0,0,2.8-1,4.5,4.5,0,0,0,.9-3.2V153Z"/><path class="b88e345a-f15e-4cd6-b3cf-313ec69d483f" d="M469.2,168.8a8.1,8.1,0,0,1-4.8,7.4,11.2,11.2,0,0,1-5,1,9.4,9.4,0,0,1-7.4-3,13,13,0,0,1-2.8-8.7v-1.2a14.4,14.4,0,0,1,1.3-6.1,9.4,9.4,0,0,1,3.5-4.1,10.2,10.2,0,0,1,5.3-1.4,10.5,10.5,0,0,1,7,2.3,9,9,0,0,1,3,6.3h-5.7a4.7,4.7,0,0,0-1.1-3.1,4.4,4.4,0,0,0-3.2-1,3.3,3.3,0,0,0-3.1,1.6,9.7,9.7,0,0,0-1.1,5.1v1.7c0,2.6.3,4.4,1,5.5a3.4,3.4,0,0,0,3.3,1.6,4.5,4.5,0,0,0,3-.9,3.8,3.8,0,0,0,1.1-3Z"/><path class="b88e345a-f15e-4cd6-b3cf-313ec69d483f" d="M490.2,157.5h-7.1v19.4h-5.8V157.5h-7V153h19.9Z"/><path class="b88e345a-f15e-4cd6-b3cf-313ec69d483f" d="M498.8,176.9h-5.7V153h5.7Z"/><path class="b88e345a-f15e-4cd6-b3cf-313ec69d483f" d="M523,165.5a13.1,13.1,0,0,1-1.3,6.1,9.5,9.5,0,0,1-3.7,4.2,11.1,11.1,0,0,1-10.8,0,9,9,0,0,1-3.7-4,14,14,0,0,1-1.4-6v-1.3a15.2,15.2,0,0,1,1.3-6.2,9.3,9.3,0,0,1,3.7-4.1,10.1,10.1,0,0,1,5.5-1.5,10.9,10.9,0,0,1,5.4,1.4,10.1,10.1,0,0,1,3.7,4.2,13.1,13.1,0,0,1,1.3,6.1Zm-5.8-1a9.8,9.8,0,0,0-1.2-5.4,3.8,3.8,0,0,0-3.4-1.9c-2.9,0-4.4,2.2-4.6,6.5v1.8a11.5,11.5,0,0,0,1.1,5.4,4,4,0,0,0,3.5,1.8,3.8,3.8,0,0,0,3.4-1.8,9.7,9.7,0,0,0,1.2-5.3Z"/><path class="b88e345a-f15e-4cd6-b3cf-313ec69d483f" d="M545.9,176.9h-5.7l-8.5-14.8v14.8H526V153h5.7l8.5,14.9V153h5.7Z"/></g></g></svg>